{
	"patcher" : 	{
		"fileversion" : 1,
		"rect" : [ 49.0, 94.0, 434.0, 201.0 ],
		"bglocked" : 0,
		"defrect" : [ 49.0, 94.0, 434.0, 201.0 ],
		"openrect" : [ 0.0, 0.0, 0.0, 0.0 ],
		"openinpresentation" : 0,
		"default_fontsize" : 12.0,
		"default_fontface" : 0,
		"default_fontname" : "Arial",
		"gridonopen" : 0,
		"gridsize" : [ 15.0, 15.0 ],
		"gridsnaponopen" : 0,
		"toolbarvisible" : 1,
		"boxanimatetime" : 200,
		"imprint" : 0,
		"enablehscroll" : 1,
		"enablevscroll" : 1,
		"devicewidth" : 0.0,
		"boxes" : [ 			{
				"box" : 				{
					"maxclass" : "message",
					"text" : ";\rmax launchbrowser http://www.giri.it",
					"linecount" : 2,
					"numoutlets" : 1,
					"hidden" : 1,
					"outlettype" : [ "" ],
					"patching_rect" : [ 287.0, 205.0, 203.0, 32.0 ],
					"id" : "obj-13",
					"fontname" : "Arial",
					"numinlets" : 2,
					"fontsize" : 12.0
				}

			}
, 			{
				"box" : 				{
					"maxclass" : "ubutton",
					"numoutlets" : 4,
					"handoff" : "",
					"outlettype" : [ "bang", "bang", "", "int" ],
					"patching_rect" : [ 365.0, 178.0, 65.0, 21.0 ],
					"id" : "obj-14",
					"numinlets" : 1
				}

			}
, 			{
				"box" : 				{
					"maxclass" : "message",
					"text" : ";\rmax launchbrowser http://www.virtual-sound.com",
					"linecount" : 2,
					"numoutlets" : 1,
					"hidden" : 1,
					"outlettype" : [ "" ],
					"patching_rect" : [ 13.0, 205.0, 272.0, 32.0 ],
					"id" : "obj-11",
					"fontname" : "Arial",
					"numinlets" : 2,
					"fontsize" : 12.0
				}

			}
, 			{
				"box" : 				{
					"maxclass" : "ubutton",
					"numoutlets" : 4,
					"handoff" : "",
					"outlettype" : [ "bang", "bang", "", "int" ],
					"patching_rect" : [ 134.0, 178.0, 130.0, 20.0 ],
					"id" : "obj-12",
					"numinlets" : 1
				}

			}
, 			{
				"box" : 				{
					"maxclass" : "comment",
					"text" : "VirtualSound Macros - www.virtual-sound.com - (c) Maurizio Giri - www.giri.it",
					"numoutlets" : 0,
					"frgb" : [ 0.168627, 0.305882, 0.721569, 1.0 ],
					"patching_rect" : [ 12.0, 178.0, 419.0, 20.0 ],
					"id" : "obj-15",
					"fontname" : "Arial",
					"textcolor" : [ 0.168627, 0.305882, 0.721569, 1.0 ],
					"numinlets" : 1,
					"fontsize" : 12.0
				}

			}
, 			{
				"box" : 				{
					"maxclass" : "newobj",
					"text" : "sel 0",
					"numoutlets" : 2,
					"outlettype" : [ "bang", "" ],
					"patching_rect" : [ 159.0, 47.0, 36.0, 20.0 ],
					"id" : "obj-10",
					"fontname" : "Arial",
					"numinlets" : 2,
					"fontsize" : 12.0
				}

			}
, 			{
				"box" : 				{
					"maxclass" : "newobj",
					"text" : "loadmess #1",
					"numoutlets" : 1,
					"outlettype" : [ "" ],
					"patching_rect" : [ 159.0, 14.0, 79.0, 20.0 ],
					"id" : "obj-9",
					"fontname" : "Arial",
					"numinlets" : 1,
					"fontsize" : 12.0
				}

			}
, 			{
				"box" : 				{
					"maxclass" : "inlet",
					"numoutlets" : 1,
					"presentation_rect" : [ 249.0, 112.0, 0.0, 0.0 ],
					"outlettype" : [ "" ],
					"patching_rect" : [ 117.0, 20.0, 25.0, 25.0 ],
					"id" : "obj-5",
					"numinlets" : 0,
					"comment" : "responsiveness (Hz)"
				}

			}
, 			{
				"box" : 				{
					"maxclass" : "inlet",
					"numoutlets" : 1,
					"outlettype" : [ "" ],
					"patching_rect" : [ 38.0, 19.0, 25.0, 25.0 ],
					"id" : "obj-4",
					"numinlets" : 0,
					"comment" : "input signal"
				}

			}
, 			{
				"box" : 				{
					"maxclass" : "outlet",
					"numoutlets" : 0,
					"patching_rect" : [ 38.0, 142.0, 25.0, 25.0 ],
					"id" : "obj-1",
					"numinlets" : 1,
					"comment" : ""
				}

			}
, 			{
				"box" : 				{
					"maxclass" : "newobj",
					"text" : "onepole~ 10. Hz",
					"numoutlets" : 1,
					"outlettype" : [ "signal" ],
					"patching_rect" : [ 38.0, 97.0, 98.0, 20.0 ],
					"id" : "obj-3",
					"fontname" : "Arial",
					"numinlets" : 2,
					"fontsize" : 12.0
				}

			}
, 			{
				"box" : 				{
					"maxclass" : "newobj",
					"text" : "abs~",
					"numoutlets" : 1,
					"outlettype" : [ "signal" ],
					"patching_rect" : [ 38.0, 59.0, 37.0, 20.0 ],
					"id" : "obj-2",
					"fontname" : "Arial",
					"numinlets" : 1,
					"fontsize" : 12.0
				}

			}
 ],
		"lines" : [ 			{
				"patchline" : 				{
					"source" : [ "obj-12", 0 ],
					"destination" : [ "obj-11", 0 ],
					"hidden" : 1,
					"midpoints" : [  ]
				}

			}
, 			{
				"patchline" : 				{
					"source" : [ "obj-14", 0 ],
					"destination" : [ "obj-13", 0 ],
					"hidden" : 1,
					"midpoints" : [  ]
				}

			}
, 			{
				"patchline" : 				{
					"source" : [ "obj-10", 1 ],
					"destination" : [ "obj-3", 1 ],
					"hidden" : 0,
					"midpoints" : [ 185.5, 80.0, 126.5, 80.0 ]
				}

			}
, 			{
				"patchline" : 				{
					"source" : [ "obj-9", 0 ],
					"destination" : [ "obj-10", 0 ],
					"hidden" : 0,
					"midpoints" : [  ]
				}

			}
, 			{
				"patchline" : 				{
					"source" : [ "obj-2", 0 ],
					"destination" : [ "obj-3", 0 ],
					"hidden" : 0,
					"midpoints" : [  ]
				}

			}
, 			{
				"patchline" : 				{
					"source" : [ "obj-3", 0 ],
					"destination" : [ "obj-1", 0 ],
					"hidden" : 0,
					"midpoints" : [  ]
				}

			}
, 			{
				"patchline" : 				{
					"source" : [ "obj-5", 0 ],
					"destination" : [ "obj-3", 1 ],
					"hidden" : 0,
					"midpoints" : [  ]
				}

			}
, 			{
				"patchline" : 				{
					"source" : [ "obj-4", 0 ],
					"destination" : [ "obj-2", 0 ],
					"hidden" : 0,
					"midpoints" : [  ]
				}

			}
 ]
	}

}
