{
	"patcher" : 	{
		"fileversion" : 1,
		"appversion" : 		{
			"major" : 8,
			"minor" : 0,
			"revision" : 0,
			"architecture" : "x64",
			"modernui" : 1
		}
,
		"rect" : [ 103.0, 91.0, 673.0, 513.0 ],
		"bglocked" : 0,
		"openinpresentation" : 0,
		"default_fontsize" : 12.0,
		"default_fontface" : 0,
		"default_fontname" : "Arial",
		"gridonopen" : 1,
		"gridsize" : [ 15.0, 15.0 ],
		"gridsnaponopen" : 1,
		"objectsnaponopen" : 1,
		"statusbarvisible" : 2,
		"toolbarvisible" : 1,
		"lefttoolbarpinned" : 0,
		"toptoolbarpinned" : 0,
		"righttoolbarpinned" : 0,
		"bottomtoolbarpinned" : 0,
		"toolbars_unpinned_last_save" : 0,
		"tallnewobj" : 0,
		"boxanimatetime" : 200,
		"enablehscroll" : 1,
		"enablevscroll" : 1,
		"devicewidth" : 0.0,
		"description" : "",
		"digest" : "",
		"tags" : "",
		"style" : "",
		"subpatcher_template" : "",
		"boxes" : [ 			{
				"box" : 				{
					"id" : "obj-22",
					"maxclass" : "comment",
					"numinlets" : 1,
					"numoutlets" : 0,
					"patching_rect" : [ 631.0, 122.0, 21.0, 20.0 ],
					"style" : "default",
					"text" : "R"
				}

			}
, 			{
				"box" : 				{
					"id" : "obj-30",
					"maxclass" : "comment",
					"numinlets" : 1,
					"numoutlets" : 0,
					"patching_rect" : [ 525.0, 122.0, 21.0, 20.0 ],
					"style" : "default",
					"text" : "L"
				}

			}
, 			{
				"box" : 				{
					"id" : "obj-63",
					"linecount" : 2,
					"maxclass" : "comment",
					"numinlets" : 1,
					"numoutlets" : 0,
					"patching_rect" : [ 526.0, 78.0, 140.0, 33.0 ],
					"style" : "default",
					"text" : "stereo position for each\n\"playback head\""
				}

			}
, 			{
				"box" : 				{
					"id" : "obj-94",
					"maxclass" : "preset",
					"numinlets" : 1,
					"numoutlets" : 4,
					"outlettype" : [ "preset", "int", "preset", "int" ],
					"patching_rect" : [ 35.0, 170.0, 28.0, 101.75 ],
					"preset_data" : [ 						{
							"number" : 1,
							"data" : [ 12, "obj-34", "multislider", "list", 0.0, 0.0, 0.0, 0.0, 0.0, 0.0, 0.0, 0.0, 12, "obj-32", "multislider", "list", 0.0, 0.0, 0.0, 0.0, 0.0, 0.0, 0.0, 0.0, 5, "obj-19", "flonum", "float", 1.0, 5, "obj-17", "flonum", "float", 0.0, 5, "obj-16", "flonum", "float", 0.0, 5, "obj-13", "flonum", "float", 1.0, 5, "obj-11", "flonum", "float", 0.0, 5, "obj-10", "flonum", "float", 0.0, 12, "obj-64", "multislider", "list", 0.0, 0.0, 0.0, 0.0, 0.0, 0.0, 0.0, 0.0, 12, "obj-49", "multislider", "list", 36, 36, 36, 36, 36, 36, 36, 36, 5, "obj-58", "flonum", "float", 1.0, 5, "obj-71", "flonum", "float", 0.0, 5, "obj-87", "flonum", "float", 0.0, 5, "obj-88", "flonum", "float", 0.0 ]
						}
, 						{
							"number" : 3,
							"data" : [ 12, "obj-34", "multislider", "list", 0.0, 59.996239, 147.523407, 249.705093, 362.742035, 484.604095, 613.994263, 750.0, 12, "obj-32", "multislider", "list", 0.3, 0.300637, 0.307719, 0.333198, 0.393465, 0.508607, 0.701998, 1.0, 5, "obj-19", "flonum", "float", 1.298, 5, "obj-17", "flonum", "float", 0.0, 5, "obj-16", "flonum", "float", 750.0, 5, "obj-13", "flonum", "float", 3.598, 5, "obj-11", "flonum", "float", 0.3, 5, "obj-10", "flonum", "float", 1.0, 12, "obj-64", "multislider", "list", -0.813559, 0.271186, -0.457627, -0.118644, 0.338983, 1.0, 0.0, -0.79661, 12, "obj-49", "multislider", "list", 50, 64, 77, 93, 49, 63, 77, 92, 5, "obj-58", "flonum", "float", 5.0, 5, "obj-71", "flonum", "float", 0.6, 5, "obj-87", "flonum", "float", 0.0, 5, "obj-88", "flonum", "float", 0.0 ]
						}
, 						{
							"number" : 4,
							"data" : [ 12, "obj-34", "multislider", "list", 0.0, 59.996239, 147.523407, 249.705093, 362.742035, 484.604095, 613.994263, 750.0, 12, "obj-32", "multislider", "list", 0.3, 0.300637, 0.307719, 0.333198, 0.393465, 0.508607, 0.701998, 1.0, 5, "obj-19", "flonum", "float", 1.298, 5, "obj-17", "flonum", "float", 0.0, 5, "obj-16", "flonum", "float", 750.0, 5, "obj-13", "flonum", "float", 3.598, 5, "obj-11", "flonum", "float", 0.3, 5, "obj-10", "flonum", "float", 1.0, 12, "obj-64", "multislider", "list", -0.813559, 0.271186, -0.457627, -0.118644, 0.338983, 1.0, 0.0, -0.79661, 12, "obj-49", "multislider", "list", 50, 64, 77, 93, 49, 63, 77, 92, 5, "obj-58", "flonum", "float", 5.0, 5, "obj-71", "flonum", "float", 0.6, 5, "obj-87", "flonum", "float", 750.0, 5, "obj-88", "flonum", "float", 0.65 ]
						}
, 						{
							"number" : 5,
							"data" : [ 12, "obj-34", "multislider", "list", 0.0, 57.142857, 114.285713, 171.428574, 228.571426, 285.714294, 342.857147, 400.0, 12, "obj-32", "multislider", "list", 0.4, 0.395918, 0.383673, 0.363265, 0.334694, 0.297959, 0.253061, 0.2, 5, "obj-19", "flonum", "float", 1.0, 5, "obj-17", "flonum", "float", 0.0, 5, "obj-16", "flonum", "float", 400.0, 5, "obj-13", "flonum", "float", 2.0, 5, "obj-11", "flonum", "float", 0.4, 5, "obj-10", "flonum", "float", 0.2, 12, "obj-64", "multislider", "list", -0.779661, -0.779661, -0.779661, -0.779661, 0.881356, 0.881356, 0.881356, 0.881356, 12, "obj-49", "multislider", "list", 60, 84, 50, 84, 59, 84, 50, 84, 5, "obj-58", "flonum", "float", 160.0, 5, "obj-71", "flonum", "float", 0.25, 5, "obj-87", "flonum", "float", 0.0, 5, "obj-88", "flonum", "float", 0.0 ]
						}
, 						{
							"number" : 6,
							"data" : [ 12, "obj-34", "multislider", "list", 0.0, 57.142857, 114.285713, 171.428574, 228.571426, 285.714294, 342.857147, 400.0, 12, "obj-32", "multislider", "list", 0.4, 0.395918, 0.383673, 0.363265, 0.334694, 0.297959, 0.253061, 0.2, 5, "obj-19", "flonum", "float", 1.0, 5, "obj-17", "flonum", "float", 0.0, 5, "obj-16", "flonum", "float", 400.0, 5, "obj-13", "flonum", "float", 2.0, 5, "obj-11", "flonum", "float", 0.4, 5, "obj-10", "flonum", "float", 0.2, 12, "obj-64", "multislider", "list", -0.779661, -0.779661, -0.779661, -0.779661, 0.881356, 0.881356, 0.881356, 0.881356, 12, "obj-49", "multislider", "list", 60, 84, 50, 84, 59, 84, 50, 84, 5, "obj-58", "flonum", "float", 160.0, 5, "obj-71", "flonum", "float", 0.25, 5, "obj-87", "flonum", "float", 62.5, 5, "obj-88", "flonum", "float", 0.6 ]
						}
, 						{
							"number" : 7,
							"data" : [ 12, "obj-34", "multislider", "list", 0.0, 107.14286, 214.285721, 321.428558, 428.571442, 535.714294, 642.857117, 750.0, 12, "obj-32", "multislider", "list", 0.2, 0.257143, 0.314286, 0.371429, 0.428571, 0.485714, 0.542857, 0.6, 5, "obj-19", "flonum", "float", 1.0, 5, "obj-17", "flonum", "float", 0.0, 5, "obj-16", "flonum", "float", 750.0, 5, "obj-13", "flonum", "float", 1.0, 5, "obj-11", "flonum", "float", 0.2, 5, "obj-10", "flonum", "float", 0.6, 12, "obj-64", "multislider", "list", -1.0, 0.983051, -0.983051, 1.0, -1.0, 1.0, -1.0, 1.0, 12, "obj-49", "multislider", "list", 96, 79, 62, 52, 47, 43, 41, 39, 5, "obj-58", "flonum", "float", 15.0, 5, "obj-71", "flonum", "float", 0.5, 5, "obj-87", "flonum", "float", 0.0, 5, "obj-88", "flonum", "float", 0.0 ]
						}
, 						{
							"number" : 8,
							"data" : [ 12, "obj-34", "multislider", "list", 0.0, 107.14286, 214.285721, 321.428558, 428.571442, 535.714294, 642.857117, 750.0, 12, "obj-32", "multislider", "list", 0.2, 0.257143, 0.314286, 0.371429, 0.428571, 0.485714, 0.542857, 0.6, 5, "obj-19", "flonum", "float", 1.0, 5, "obj-17", "flonum", "float", 0.0, 5, "obj-16", "flonum", "float", 750.0, 5, "obj-13", "flonum", "float", 1.0, 5, "obj-11", "flonum", "float", 0.2, 5, "obj-10", "flonum", "float", 0.6, 12, "obj-64", "multislider", "list", -1.0, 0.983051, -0.983051, 1.0, -1.0, 1.0, -1.0, 1.0, 12, "obj-49", "multislider", "list", 96, 79, 62, 52, 47, 43, 41, 39, 5, "obj-58", "flonum", "float", 15.0, 5, "obj-71", "flonum", "float", 0.5, 5, "obj-87", "flonum", "float", 150.0, 5, "obj-88", "flonum", "float", 0.65 ]
						}
, 						{
							"number" : 9,
							"data" : [ 12, "obj-34", "multislider", "list", 0.0, 7.713561, 43.634487, 120.242508, 246.833939, 431.201141, 680.194336, 1000.0, 12, "obj-32", "multislider", "list", 0.7, 0.687953, 0.658049, 0.612963, 0.55392, 0.481712, 0.396921, 0.3, 5, "obj-19", "flonum", "float", 2.5, 5, "obj-17", "flonum", "float", 0.0, 5, "obj-16", "flonum", "float", 1000.0, 5, "obj-13", "flonum", "float", 1.8, 5, "obj-11", "flonum", "float", 0.7, 5, "obj-10", "flonum", "float", 0.3, 12, "obj-64", "multislider", "list", -0.79661, -0.474576, -0.033898, 0.288136, 0.508475, 0.694915, 0.915254, -0.847458, 12, "obj-49", "multislider", "list", 96, 96, 96, 96, 96, 95, 94, 93, 5, "obj-58", "flonum", "float", 20.0, 5, "obj-71", "flonum", "float", 0.3, 5, "obj-87", "flonum", "float", 0.0, 5, "obj-88", "flonum", "float", 0.0 ]
						}
, 						{
							"number" : 10,
							"data" : [ 12, "obj-34", "multislider", "list", 0.0, 7.713561, 43.634487, 120.242508, 246.833939, 431.201141, 680.194336, 1000.0, 12, "obj-32", "multislider", "list", 0.7, 0.687953, 0.658049, 0.612963, 0.55392, 0.481712, 0.396921, 0.3, 5, "obj-19", "flonum", "float", 2.5, 5, "obj-17", "flonum", "float", 0.0, 5, "obj-16", "flonum", "float", 1000.0, 5, "obj-13", "flonum", "float", 1.8, 5, "obj-11", "flonum", "float", 0.7, 5, "obj-10", "flonum", "float", 0.3, 12, "obj-64", "multislider", "list", -0.79661, -0.474576, -0.033898, 0.288136, 0.508475, 0.694915, 0.915254, -0.847458, 12, "obj-49", "multislider", "list", 96, 96, 96, 96, 96, 95, 94, 93, 5, "obj-58", "flonum", "float", 20.0, 5, "obj-71", "flonum", "float", 0.3, 5, "obj-87", "flonum", "float", 666.599976, 5, "obj-88", "flonum", "float", 0.62 ]
						}
, 						{
							"number" : 11,
							"data" : [ 12, "obj-34", "multislider", "list", 0.0, 15.427121, 87.268974, 240.485016, 493.667877, 862.402283, 1360.388672, 2000.0, 12, "obj-32", "multislider", "list", 0.7, 0.608169, 0.578828, 0.557492, 0.540112, 0.525185, 0.51196, 0.5, 5, "obj-19", "flonum", "float", 2.5, 5, "obj-17", "flonum", "float", 0.0, 5, "obj-16", "flonum", "float", 2000.0, 5, "obj-13", "flonum", "float", 0.4, 5, "obj-11", "flonum", "float", 0.7, 5, "obj-10", "flonum", "float", 0.5, 12, "obj-64", "multislider", "list", 0.016949, -0.118644, -0.559322, -1.0, 1.0, 0.694915, 0.288136, 0.016949, 12, "obj-49", "multislider", "list", 49, 49, 49, 49, 49, 49, 49, 80, 5, "obj-58", "flonum", "float", 20.0, 5, "obj-71", "flonum", "float", 0.4, 5, "obj-87", "flonum", "float", 0.0, 5, "obj-88", "flonum", "float", 0.0 ]
						}
, 						{
							"number" : 12,
							"data" : [ 12, "obj-34", "multislider", "list", 0.0, 15.427121, 87.268974, 240.485016, 493.667877, 862.402283, 1360.388672, 2000.0, 12, "obj-32", "multislider", "list", 0.7, 0.608169, 0.578828, 0.557492, 0.540112, 0.525185, 0.51196, 0.5, 5, "obj-19", "flonum", "float", 2.5, 5, "obj-17", "flonum", "float", 0.0, 5, "obj-16", "flonum", "float", 2000.0, 5, "obj-13", "flonum", "float", 0.4, 5, "obj-11", "flonum", "float", 0.7, 5, "obj-10", "flonum", "float", 0.5, 12, "obj-64", "multislider", "list", 0.016949, -0.118644, -0.559322, -1.0, 1.0, 0.694915, 0.288136, 0.016949, 12, "obj-49", "multislider", "list", 49, 49, 49, 49, 49, 49, 49, 80, 5, "obj-58", "flonum", "float", 20.0, 5, "obj-71", "flonum", "float", 0.4, 5, "obj-87", "flonum", "float", 1125.0, 5, "obj-88", "flonum", "float", 0.8 ]
						}
, 						{
							"number" : 13,
							"data" : [ 12, "obj-34", "multislider", "list", 1000.0, 1173.544922, 1323.846191, 1466.466919, 1604.318359, 1738.728394, 1870.45813, 2000.0, 12, "obj-32", "multislider", "list", 0.5, 0.637747, 0.681758, 0.713762, 0.739831, 0.762223, 0.782061, 0.8, 5, "obj-19", "flonum", "float", 0.9, 5, "obj-17", "flonum", "float", 1000.0, 5, "obj-16", "flonum", "float", 2000.0, 5, "obj-13", "flonum", "float", 0.4, 5, "obj-11", "flonum", "float", 0.5, 5, "obj-10", "flonum", "float", 0.8, 12, "obj-64", "multislider", "list", -0.38983, -0.152542, -0.050847, 0.050847, 0.135593, 0.20339, 0.254237, 0.355932, 12, "obj-49", "multislider", "list", 91, 36, 38, 40, 41, 44, 46, 95, 5, "obj-58", "flonum", "float", 90.0, 5, "obj-71", "flonum", "float", 0.35, 5, "obj-87", "flonum", "float", 0.0, 5, "obj-88", "flonum", "float", 0.0 ]
						}
, 						{
							"number" : 14,
							"data" : [ 12, "obj-34", "multislider", "list", 1000.0, 1173.544922, 1323.846191, 1466.466919, 1604.318359, 1738.728394, 1870.45813, 2000.0, 12, "obj-32", "multislider", "list", 0.5, 0.637747, 0.681758, 0.713762, 0.739831, 0.762223, 0.782061, 0.8, 5, "obj-19", "flonum", "float", 0.9, 5, "obj-17", "flonum", "float", 1000.0, 5, "obj-16", "flonum", "float", 2000.0, 5, "obj-13", "flonum", "float", 0.4, 5, "obj-11", "flonum", "float", 0.5, 5, "obj-10", "flonum", "float", 0.8, 12, "obj-64", "multislider", "list", -0.38983, -0.152542, -0.050847, 0.050847, 0.135593, 0.20339, 0.254237, 0.355932, 12, "obj-49", "multislider", "list", 91, 36, 38, 40, 41, 44, 46, 95, 5, "obj-58", "flonum", "float", 90.0, 5, "obj-71", "flonum", "float", 0.35, 5, "obj-87", "flonum", "float", 375.0, 5, "obj-88", "flonum", "float", 0.75 ]
						}
, 						{
							"number" : 15,
							"data" : [ 12, "obj-34", "multislider", "list", 750.0, 1403.87146, 1573.636108, 1692.700562, 1787.476685, 1867.504761, 1937.453857, 2000.0, 12, "obj-32", "multislider", "list", 1.0, 0.816337, 0.757656, 0.714984, 0.680225, 0.65037, 0.623919, 0.6, 5, "obj-19", "flonum", "float", 0.333, 5, "obj-17", "flonum", "float", 750.0, 5, "obj-16", "flonum", "float", 2000.0, 5, "obj-13", "flonum", "float", 0.4, 5, "obj-11", "flonum", "float", 1.0, 5, "obj-10", "flonum", "float", 0.6, 12, "obj-64", "multislider", "list", 0.966102, 0.474576, 0.254237, 0.084746, -0.169492, -0.322034, -0.59322, -0.983051, 12, "obj-49", "multislider", "list", 58, 95, 92, 91, 88, 95, 92, 90, 5, "obj-58", "flonum", "float", 70.0, 5, "obj-71", "flonum", "float", 0.15, 5, "obj-87", "flonum", "float", 0.0, 5, "obj-88", "flonum", "float", 0.0 ]
						}
, 						{
							"number" : 16,
							"data" : [ 12, "obj-34", "multislider", "list", 750.0, 1403.87146, 1573.636108, 1692.700562, 1787.476685, 1867.504761, 1937.453857, 2000.0, 12, "obj-32", "multislider", "list", 1.0, 0.816337, 0.757656, 0.714984, 0.680225, 0.65037, 0.623919, 0.6, 5, "obj-19", "flonum", "float", 0.333, 5, "obj-17", "flonum", "float", 750.0, 5, "obj-16", "flonum", "float", 2000.0, 5, "obj-13", "flonum", "float", 0.4, 5, "obj-11", "flonum", "float", 1.0, 5, "obj-10", "flonum", "float", 0.6, 12, "obj-64", "multislider", "list", 0.966102, 0.474576, 0.254237, 0.084746, -0.169492, -0.322034, -0.59322, -0.983051, 12, "obj-49", "multislider", "list", 58, 95, 92, 91, 88, 95, 92, 90, 5, "obj-58", "flonum", "float", 70.0, 5, "obj-71", "flonum", "float", 0.15, 5, "obj-87", "flonum", "float", 100.0, 5, "obj-88", "flonum", "float", 0.8 ]
						}
 ],
					"style" : "default"
				}

			}
, 			{
				"box" : 				{
					"id" : "obj-93",
					"linecount" : 2,
					"maxclass" : "comment",
					"numinlets" : 1,
					"numoutlets" : 0,
					"patching_rect" : [ 139.0, 201.0, 61.0, 33.0 ],
					"style" : "default",
					"text" : "feedback amount"
				}

			}
, 			{
				"box" : 				{
					"id" : "obj-92",
					"linecount" : 2,
					"maxclass" : "comment",
					"numinlets" : 1,
					"numoutlets" : 0,
					"patching_rect" : [ 116.0, 147.0, 61.0, 33.0 ],
					"style" : "default",
					"text" : "feedback delay"
				}

			}
, 			{
				"box" : 				{
					"format" : 6,
					"id" : "obj-88",
					"maxclass" : "flonum",
					"maximum" : 0.99,
					"minimum" : 0.0,
					"numinlets" : 1,
					"numoutlets" : 2,
					"outlettype" : [ "", "bang" ],
					"parameter_enable" : 0,
					"patching_rect" : [ 141.0, 239.0, 50.0, 22.0 ],
					"style" : "default"
				}

			}
, 			{
				"box" : 				{
					"format" : 6,
					"id" : "obj-87",
					"maxclass" : "flonum",
					"maximum" : 2000.0,
					"minimum" : 0.0,
					"numinlets" : 1,
					"numoutlets" : 2,
					"outlettype" : [ "", "bang" ],
					"parameter_enable" : 0,
					"patching_rect" : [ 115.0, 179.0, 50.0, 22.0 ],
					"style" : "default"
				}

			}
, 			{
				"box" : 				{
					"id" : "obj-85",
					"maxclass" : "newobj",
					"numinlets" : 3,
					"numoutlets" : 1,
					"outlettype" : [ "signal" ],
					"patcher" : 					{
						"fileversion" : 1,
						"appversion" : 						{
							"major" : 8,
							"minor" : 0,
							"revision" : 0,
							"architecture" : "x64",
							"modernui" : 1
						}
,
						"rect" : [ 74.0, 104.0, 238.0, 204.0 ],
						"bglocked" : 0,
						"openinpresentation" : 0,
						"default_fontsize" : 12.0,
						"default_fontface" : 0,
						"default_fontname" : "Arial",
						"gridonopen" : 1,
						"gridsize" : [ 15.0, 15.0 ],
						"gridsnaponopen" : 1,
						"objectsnaponopen" : 1,
						"statusbarvisible" : 2,
						"toolbarvisible" : 1,
						"lefttoolbarpinned" : 0,
						"toptoolbarpinned" : 0,
						"righttoolbarpinned" : 0,
						"bottomtoolbarpinned" : 0,
						"toolbars_unpinned_last_save" : 0,
						"tallnewobj" : 0,
						"boxanimatetime" : 200,
						"enablehscroll" : 1,
						"enablevscroll" : 1,
						"devicewidth" : 0.0,
						"description" : "",
						"digest" : "",
						"tags" : "",
						"style" : "",
						"subpatcher_template" : "",
						"boxes" : [ 							{
								"box" : 								{
									"fontname" : "Arial",
									"fontsize" : 12.0,
									"id" : "obj-7",
									"linecount" : 2,
									"maxclass" : "comment",
									"numinlets" : 1,
									"numoutlets" : 0,
									"patching_rect" : [ 172.0, 8.0, 61.0, 33.0 ],
									"style" : "",
									"text" : "feedback amount"
								}

							}
, 							{
								"box" : 								{
									"fontname" : "Arial",
									"fontsize" : 12.0,
									"id" : "obj-6",
									"linecount" : 2,
									"maxclass" : "comment",
									"numinlets" : 1,
									"numoutlets" : 0,
									"patching_rect" : [ 112.0, 8.0, 61.0, 33.0 ],
									"style" : "",
									"text" : "feedback delay"
								}

							}
, 							{
								"box" : 								{
									"comment" : "",
									"id" : "obj-4",
									"index" : 3,
									"maxclass" : "inlet",
									"numinlets" : 0,
									"numoutlets" : 1,
									"outlettype" : [ "" ],
									"patching_rect" : [ 184.0, 46.0, 25.0, 25.0 ],
									"style" : ""
								}

							}
, 							{
								"box" : 								{
									"fontname" : "Arial",
									"fontsize" : 12.0,
									"id" : "obj-3",
									"maxclass" : "newobj",
									"numinlets" : 2,
									"numoutlets" : 1,
									"outlettype" : [ "signal" ],
									"patching_rect" : [ 45.0, 133.0, 101.5, 22.0 ],
									"style" : "",
									"text" : "*~"
								}

							}
, 							{
								"box" : 								{
									"comment" : "",
									"id" : "obj-2",
									"index" : 2,
									"maxclass" : "inlet",
									"numinlets" : 0,
									"numoutlets" : 1,
									"outlettype" : [ "" ],
									"patching_rect" : [ 124.0, 47.0, 25.0, 25.0 ],
									"style" : ""
								}

							}
, 							{
								"box" : 								{
									"fontname" : "Arial",
									"fontsize" : 12.0,
									"id" : "obj-1",
									"maxclass" : "newobj",
									"numinlets" : 1,
									"numoutlets" : 1,
									"outlettype" : [ "signal" ],
									"patching_rect" : [ 45.0, 106.0, 51.0, 22.0 ],
									"style" : "",
									"text" : "tapout~"
								}

							}
, 							{
								"box" : 								{
									"fontname" : "Arial",
									"fontsize" : 12.0,
									"id" : "obj-45",
									"maxclass" : "newobj",
									"numinlets" : 1,
									"numoutlets" : 1,
									"outlettype" : [ "tapconnect" ],
									"patching_rect" : [ 45.0, 65.0, 74.0, 22.0 ],
									"style" : "",
									"text" : "tapin~ 2000"
								}

							}
, 							{
								"box" : 								{
									"comment" : "",
									"id" : "obj-83",
									"index" : 1,
									"maxclass" : "inlet",
									"numinlets" : 0,
									"numoutlets" : 1,
									"outlettype" : [ "signal" ],
									"patching_rect" : [ 13.0, 8.0, 25.0, 25.0 ],
									"style" : ""
								}

							}
, 							{
								"box" : 								{
									"comment" : "",
									"id" : "obj-84",
									"index" : 1,
									"maxclass" : "outlet",
									"numinlets" : 1,
									"numoutlets" : 0,
									"patching_rect" : [ 13.0, 171.0, 25.0, 25.0 ],
									"style" : ""
								}

							}
 ],
						"lines" : [ 							{
								"patchline" : 								{
									"destination" : [ "obj-3", 0 ],
									"source" : [ "obj-1", 0 ]
								}

							}
, 							{
								"patchline" : 								{
									"destination" : [ "obj-1", 0 ],
									"midpoints" : [ 133.5, 93.5, 54.5, 93.5 ],
									"source" : [ "obj-2", 0 ]
								}

							}
, 							{
								"patchline" : 								{
									"destination" : [ "obj-45", 0 ],
									"midpoints" : [ 54.5, 162.0, 158.0, 162.0, 158.0, 40.0, 54.5, 40.0 ],
									"order" : 0,
									"source" : [ "obj-3", 0 ]
								}

							}
, 							{
								"patchline" : 								{
									"destination" : [ "obj-84", 0 ],
									"order" : 1,
									"source" : [ "obj-3", 0 ]
								}

							}
, 							{
								"patchline" : 								{
									"destination" : [ "obj-3", 1 ],
									"source" : [ "obj-4", 0 ]
								}

							}
, 							{
								"patchline" : 								{
									"destination" : [ "obj-1", 0 ],
									"midpoints" : [ 54.5, 93.0, 54.5, 93.0 ],
									"source" : [ "obj-45", 0 ]
								}

							}
, 							{
								"patchline" : 								{
									"destination" : [ "obj-45", 0 ],
									"order" : 0,
									"source" : [ "obj-83", 0 ]
								}

							}
, 							{
								"patchline" : 								{
									"destination" : [ "obj-84", 0 ],
									"order" : 1,
									"source" : [ "obj-83", 0 ]
								}

							}
 ]
					}
,
					"patching_rect" : [ 106.0, 280.0, 69.0, 22.0 ],
					"saved_object_attributes" : 					{
						"description" : "",
						"digest" : "",
						"globalpatchername" : "",
						"style" : "",
						"tags" : ""
					}
,
					"style" : "default",
					"text" : "p feedback"
				}

			}
, 			{
				"box" : 				{
					"id" : "obj-78",
					"maxclass" : "comment",
					"numinlets" : 1,
					"numoutlets" : 0,
					"patching_rect" : [ 574.0, 364.0, 66.0, 20.0 ],
					"style" : "default",
					"text" : "reson gain"
				}

			}
, 			{
				"box" : 				{
					"id" : "obj-77",
					"maxclass" : "comment",
					"numinlets" : 1,
					"numoutlets" : 0,
					"patching_rect" : [ 492.0, 362.0, 56.0, 20.0 ],
					"style" : "default",
					"text" : "Q factor"
				}

			}
, 			{
				"box" : 				{
					"id" : "obj-75",
					"maxclass" : "comment",
					"numinlets" : 1,
					"numoutlets" : 0,
					"patching_rect" : [ 322.0, 362.0, 132.0, 20.0 ],
					"style" : "default",
					"text" : "resonance frequency"
				}

			}
, 			{
				"box" : 				{
					"id" : "obj-69",
					"maxclass" : "newobj",
					"numinlets" : 1,
					"numoutlets" : 0,
					"patching_rect" : [ 574.0, 442.0, 59.0, 22.0 ],
					"style" : "default",
					"text" : "s resgain"
				}

			}
, 			{
				"box" : 				{
					"id" : "obj-70",
					"maxclass" : "message",
					"numinlets" : 2,
					"numoutlets" : 1,
					"outlettype" : [ "" ],
					"patching_rect" : [ 574.0, 413.0, 71.0, 22.0 ],
					"style" : "default",
					"text" : "target 0, $1"
				}

			}
, 			{
				"box" : 				{
					"format" : 6,
					"id" : "obj-71",
					"maxclass" : "flonum",
					"maximum" : 1.0,
					"minimum" : 0.0,
					"numinlets" : 1,
					"numoutlets" : 2,
					"outlettype" : [ "", "bang" ],
					"parameter_enable" : 0,
					"patching_rect" : [ 574.0, 385.0, 50.0, 22.0 ],
					"style" : "default"
				}

			}
, 			{
				"box" : 				{
					"id" : "obj-68",
					"maxclass" : "newobj",
					"numinlets" : 0,
					"numoutlets" : 1,
					"outlettype" : [ "" ],
					"patching_rect" : [ 325.0, 286.0, 57.0, 22.0 ],
					"style" : "default",
					"text" : "r resgain"
				}

			}
, 			{
				"box" : 				{
					"id" : "obj-61",
					"maxclass" : "newobj",
					"numinlets" : 1,
					"numoutlets" : 1,
					"outlettype" : [ "" ],
					"patching_rect" : [ 239.0, 382.0, 34.0, 22.0 ],
					"style" : "default",
					"text" : "mtof"
				}

			}
, 			{
				"box" : 				{
					"id" : "obj-59",
					"maxclass" : "newobj",
					"numinlets" : 1,
					"numoutlets" : 0,
					"patching_rect" : [ 492.0, 442.0, 43.0, 22.0 ],
					"style" : "default",
					"text" : "s resq"
				}

			}
, 			{
				"box" : 				{
					"id" : "obj-60",
					"maxclass" : "message",
					"numinlets" : 2,
					"numoutlets" : 1,
					"outlettype" : [ "" ],
					"patching_rect" : [ 492.0, 413.0, 71.0, 22.0 ],
					"style" : "default",
					"text" : "target 0, $1"
				}

			}
, 			{
				"box" : 				{
					"format" : 6,
					"id" : "obj-58",
					"maxclass" : "flonum",
					"minimum" : 0.5,
					"numinlets" : 1,
					"numoutlets" : 2,
					"outlettype" : [ "", "bang" ],
					"parameter_enable" : 0,
					"patching_rect" : [ 492.0, 385.0, 50.0, 22.0 ],
					"style" : "default"
				}

			}
, 			{
				"box" : 				{
					"id" : "obj-56",
					"maxclass" : "newobj",
					"numinlets" : 1,
					"numoutlets" : 0,
					"patching_rect" : [ 239.0, 468.0, 57.0, 22.0 ],
					"style" : "default",
					"text" : "s resfreq"
				}

			}
, 			{
				"box" : 				{
					"id" : "obj-27",
					"maxclass" : "message",
					"numinlets" : 2,
					"numoutlets" : 1,
					"outlettype" : [ "" ],
					"patching_rect" : [ 239.0, 439.0, 78.0, 22.0 ],
					"style" : "default",
					"text" : "target $1, $2"
				}

			}
, 			{
				"box" : 				{
					"id" : "obj-29",
					"maxclass" : "newobj",
					"numinlets" : 1,
					"numoutlets" : 1,
					"outlettype" : [ "list" ],
					"patching_rect" : [ 239.0, 410.0, 69.0, 22.0 ],
					"style" : "default",
					"text" : "listfunnel 1"
				}

			}
, 			{
				"box" : 				{
					"id" : "obj-35",
					"maxclass" : "comment",
					"numinlets" : 1,
					"numoutlets" : 0,
					"patching_rect" : [ 447.0, 385.0, 42.0, 20.0 ],
					"style" : "default",
					"text" : "DO 6"
				}

			}
, 			{
				"box" : 				{
					"candicane2" : [ 0.145098, 0.203922, 0.356863, 1.0 ],
					"candicane3" : [ 0.290196, 0.411765, 0.713726, 1.0 ],
					"candicane4" : [ 0.439216, 0.619608, 0.070588, 1.0 ],
					"candicane5" : [ 0.584314, 0.827451, 0.431373, 1.0 ],
					"candicane6" : [ 0.733333, 0.035294, 0.788235, 1.0 ],
					"candicane7" : [ 0.878431, 0.243137, 0.145098, 1.0 ],
					"candicane8" : [ 0.027451, 0.447059, 0.501961, 1.0 ],
					"contdata" : 1,
					"ghostbar" : 40,
					"id" : "obj-49",
					"maxclass" : "multislider",
					"numinlets" : 1,
					"numoutlets" : 2,
					"outlettype" : [ "", "" ],
					"parameter_enable" : 0,
					"patching_rect" : [ 327.0, 385.0, 120.0, 90.0 ],
					"setminmax" : [ 36.0, 96.0 ],
					"settype" : 0,
					"size" : 8,
					"spacing" : 1,
					"style" : "default"
				}

			}
, 			{
				"box" : 				{
					"id" : "obj-53",
					"maxclass" : "comment",
					"numinlets" : 1,
					"numoutlets" : 0,
					"patching_rect" : [ 447.0, 464.0, 43.0, 20.0 ],
					"style" : "default",
					"text" : "DO 1"
				}

			}
, 			{
				"box" : 				{
					"id" : "obj-24",
					"maxclass" : "newobj",
					"numinlets" : 0,
					"numoutlets" : 1,
					"outlettype" : [ "" ],
					"patching_rect" : [ 460.0, 286.0, 41.0, 22.0 ],
					"style" : "default",
					"text" : "r resq"
				}

			}
, 			{
				"box" : 				{
					"id" : "obj-4",
					"maxclass" : "newobj",
					"numinlets" : 0,
					"numoutlets" : 1,
					"outlettype" : [ "" ],
					"patching_rect" : [ 392.0, 286.0, 55.0, 22.0 ],
					"style" : "default",
					"text" : "r resfreq"
				}

			}
, 			{
				"box" : 				{
					"id" : "obj-2",
					"maxclass" : "comment",
					"numinlets" : 1,
					"numoutlets" : 0,
					"patching_rect" : [ 502.0, 134.0, 23.0, 20.0 ],
					"style" : "default",
					"text" : "1"
				}

			}
, 			{
				"box" : 				{
					"id" : "obj-1",
					"maxclass" : "comment",
					"numinlets" : 1,
					"numoutlets" : 0,
					"patching_rect" : [ 502.0, 201.0, 23.0, 20.0 ],
					"style" : "default",
					"text" : "0"
				}

			}
, 			{
				"box" : 				{
					"id" : "obj-54",
					"maxclass" : "message",
					"numinlets" : 2,
					"numoutlets" : 1,
					"outlettype" : [ "" ],
					"patching_rect" : [ 527.0, 254.0, 78.0, 22.0 ],
					"style" : "default",
					"text" : "target $1, $2"
				}

			}
, 			{
				"box" : 				{
					"id" : "obj-55",
					"maxclass" : "newobj",
					"numinlets" : 1,
					"numoutlets" : 1,
					"outlettype" : [ "list" ],
					"patching_rect" : [ 527.0, 225.0, 68.0, 22.0 ],
					"style" : "default",
					"text" : "listfunnel 1"
				}

			}
, 			{
				"box" : 				{
					"candicane2" : [ 0.145098, 0.203922, 0.356863, 1.0 ],
					"candicane3" : [ 0.290196, 0.411765, 0.713726, 1.0 ],
					"candicane4" : [ 0.439216, 0.619608, 0.070588, 1.0 ],
					"candicane5" : [ 0.584314, 0.827451, 0.431373, 1.0 ],
					"candicane6" : [ 0.733333, 0.035294, 0.788235, 1.0 ],
					"candicane7" : [ 0.878431, 0.243137, 0.145098, 1.0 ],
					"candicane8" : [ 0.027451, 0.447059, 0.501961, 1.0 ],
					"id" : "obj-64",
					"maxclass" : "multislider",
					"numinlets" : 1,
					"numoutlets" : 2,
					"orientation" : 0,
					"outlettype" : [ "", "" ],
					"parameter_enable" : 0,
					"patching_rect" : [ 527.0, 138.0, 120.0, 75.0 ],
					"setstyle" : 1,
					"signed" : 1,
					"size" : 8,
					"spacing" : 1,
					"style" : "default"
				}

			}
, 			{
				"box" : 				{
					"id" : "obj-50",
					"maxclass" : "newobj",
					"numinlets" : 4,
					"numoutlets" : 1,
					"outlettype" : [ "" ],
					"patching_rect" : [ 381.0, 52.0, 80.0, 22.0 ],
					"style" : "default",
					"text" : "pak 8 0. 0. 0."
				}

			}
, 			{
				"box" : 				{
					"id" : "obj-31",
					"interpinlet" : 1,
					"maxclass" : "gain~",
					"numinlets" : 2,
					"numoutlets" : 2,
					"outlettype" : [ "signal", "int" ],
					"parameter_enable" : 0,
					"patching_rect" : [ 112.999969, 379.5, 21.0, 81.0 ],
					"style" : "default"
				}

			}
, 			{
				"box" : 				{
					"id" : "obj-40",
					"maxclass" : "message",
					"numinlets" : 2,
					"numoutlets" : 1,
					"outlettype" : [ "" ],
					"patching_rect" : [ 11.0, 409.5, 74.0, 22.0 ],
					"style" : "default",
					"text" : "startwindow"
				}

			}
, 			{
				"box" : 				{
					"id" : "obj-41",
					"maxclass" : "newobj",
					"numinlets" : 2,
					"numoutlets" : 0,
					"patching_rect" : [ 90.0, 471.5, 37.0, 22.0 ],
					"style" : "default",
					"text" : "dac~"
				}

			}
, 			{
				"box" : 				{
					"id" : "obj-42",
					"interpinlet" : 1,
					"maxclass" : "gain~",
					"numinlets" : 2,
					"numoutlets" : 2,
					"outlettype" : [ "signal", "int" ],
					"parameter_enable" : 0,
					"patching_rect" : [ 88.999969, 379.5, 21.0, 81.0 ],
					"style" : "default"
				}

			}
, 			{
				"box" : 				{
					"id" : "obj-43",
					"maxclass" : "message",
					"numinlets" : 2,
					"numoutlets" : 1,
					"outlettype" : [ "" ],
					"patching_rect" : [ 34.0, 440.5, 33.0, 22.0 ],
					"style" : "default",
					"text" : "stop"
				}

			}
, 			{
				"box" : 				{
					"id" : "obj-20",
					"maxclass" : "message",
					"numinlets" : 2,
					"numoutlets" : 1,
					"outlettype" : [ "" ],
					"patching_rect" : [ 382.0, 254.0, 78.0, 22.0 ],
					"style" : "default",
					"text" : "target $1, $2"
				}

			}
, 			{
				"box" : 				{
					"id" : "obj-26",
					"maxclass" : "newobj",
					"numinlets" : 1,
					"numoutlets" : 1,
					"outlettype" : [ "list" ],
					"patching_rect" : [ 382.0, 225.0, 68.0, 22.0 ],
					"style" : "default",
					"text" : "listfunnel 1"
				}

			}
, 			{
				"box" : 				{
					"id" : "obj-18",
					"maxclass" : "message",
					"numinlets" : 2,
					"numoutlets" : 1,
					"outlettype" : [ "" ],
					"patching_rect" : [ 204.0, 254.0, 78.0, 22.0 ],
					"style" : "default",
					"text" : "target $1, $2"
				}

			}
, 			{
				"box" : 				{
					"id" : "obj-3",
					"maxclass" : "newobj",
					"numinlets" : 1,
					"numoutlets" : 1,
					"outlettype" : [ "list" ],
					"patching_rect" : [ 204.0, 225.0, 68.0, 22.0 ],
					"style" : "default",
					"text" : "listfunnel 1"
				}

			}
, 			{
				"box" : 				{
					"id" : "obj-52",
					"maxclass" : "newobj",
					"numinlets" : 4,
					"numoutlets" : 1,
					"outlettype" : [ "" ],
					"patching_rect" : [ 204.0, 53.0, 80.0, 22.0 ],
					"style" : "default",
					"text" : "pak 8 0. 0. 0."
				}

			}
, 			{
				"box" : 				{
					"id" : "obj-5",
					"maxclass" : "comment",
					"numinlets" : 1,
					"numoutlets" : 0,
					"patching_rect" : [ 431.0, 3.0, 32.0, 20.0 ],
					"style" : "default",
					"text" : "end"
				}

			}
, 			{
				"box" : 				{
					"id" : "obj-6",
					"maxclass" : "comment",
					"numinlets" : 1,
					"numoutlets" : 0,
					"patching_rect" : [ 379.0, 3.0, 34.0, 20.0 ],
					"style" : "default",
					"text" : "start"
				}

			}
, 			{
				"box" : 				{
					"id" : "obj-7",
					"maxclass" : "comment",
					"numinlets" : 1,
					"numoutlets" : 0,
					"patching_rect" : [ 486.0, 3.0, 40.0, 20.0 ],
					"style" : "default",
					"text" : "curve"
				}

			}
, 			{
				"box" : 				{
					"id" : "obj-8",
					"maxclass" : "comment",
					"numinlets" : 1,
					"numoutlets" : 0,
					"patching_rect" : [ 257.0, 3.0, 32.0, 20.0 ],
					"style" : "default",
					"text" : "end"
				}

			}
, 			{
				"box" : 				{
					"id" : "obj-9",
					"maxclass" : "comment",
					"numinlets" : 1,
					"numoutlets" : 0,
					"patching_rect" : [ 204.0, 3.0, 34.0, 20.0 ],
					"style" : "default",
					"text" : "start"
				}

			}
, 			{
				"box" : 				{
					"format" : 6,
					"id" : "obj-10",
					"maxclass" : "flonum",
					"numinlets" : 1,
					"numoutlets" : 2,
					"outlettype" : [ "", "bang" ],
					"parameter_enable" : 0,
					"patching_rect" : [ 432.0, 20.0, 53.0, 22.0 ],
					"style" : "default",
					"triscale" : 0.9
				}

			}
, 			{
				"box" : 				{
					"format" : 6,
					"id" : "obj-11",
					"maxclass" : "flonum",
					"numinlets" : 1,
					"numoutlets" : 2,
					"outlettype" : [ "", "bang" ],
					"parameter_enable" : 0,
					"patching_rect" : [ 379.0, 20.0, 53.0, 22.0 ],
					"style" : "default",
					"triscale" : 0.9
				}

			}
, 			{
				"box" : 				{
					"format" : 6,
					"id" : "obj-13",
					"maxclass" : "flonum",
					"numinlets" : 1,
					"numoutlets" : 2,
					"outlettype" : [ "", "bang" ],
					"parameter_enable" : 0,
					"patching_rect" : [ 485.0, 20.0, 48.0, 22.0 ],
					"style" : "default",
					"triscale" : 0.9
				}

			}
, 			{
				"box" : 				{
					"id" : "obj-15",
					"maxclass" : "newobj",
					"numinlets" : 4,
					"numoutlets" : 1,
					"outlettype" : [ "" ],
					"patching_rect" : [ 381.0, 82.0, 90.0, 22.0 ],
					"style" : "default",
					"text" : "vs.explist 0 1 1"
				}

			}
, 			{
				"box" : 				{
					"format" : 6,
					"id" : "obj-16",
					"maxclass" : "flonum",
					"numinlets" : 1,
					"numoutlets" : 2,
					"outlettype" : [ "", "bang" ],
					"parameter_enable" : 0,
					"patching_rect" : [ 258.0, 20.0, 54.0, 22.0 ],
					"style" : "default",
					"triscale" : 0.9
				}

			}
, 			{
				"box" : 				{
					"format" : 6,
					"id" : "obj-17",
					"maxclass" : "flonum",
					"numinlets" : 1,
					"numoutlets" : 2,
					"outlettype" : [ "", "bang" ],
					"parameter_enable" : 0,
					"patching_rect" : [ 203.0, 20.0, 54.0, 22.0 ],
					"style" : "default",
					"triscale" : 0.9
				}

			}
, 			{
				"box" : 				{
					"format" : 6,
					"id" : "obj-19",
					"maxclass" : "flonum",
					"numinlets" : 1,
					"numoutlets" : 2,
					"outlettype" : [ "", "bang" ],
					"parameter_enable" : 0,
					"patching_rect" : [ 313.0, 20.0, 48.0, 22.0 ],
					"style" : "default",
					"triscale" : 0.9
				}

			}
, 			{
				"box" : 				{
					"id" : "obj-21",
					"maxclass" : "newobj",
					"numinlets" : 4,
					"numoutlets" : 1,
					"outlettype" : [ "" ],
					"patching_rect" : [ 204.0, 82.0, 110.0, 22.0 ],
					"style" : "default",
					"text" : "vs.explist 0 1000 1"
				}

			}
, 			{
				"box" : 				{
					"hidden" : 1,
					"id" : "obj-23",
					"maxclass" : "newobj",
					"numinlets" : 1,
					"numoutlets" : 1,
					"outlettype" : [ "" ],
					"patching_rect" : [ 10.0, 121.0, 72.0, 22.0 ],
					"style" : "default",
					"text" : "loadmess 1"
				}

			}
, 			{
				"box" : 				{
					"id" : "obj-25",
					"maxclass" : "message",
					"numinlets" : 2,
					"numoutlets" : 1,
					"outlettype" : [ "" ],
					"patching_rect" : [ 18.0, 79.0, 37.0, 22.0 ],
					"style" : "default",
					"text" : "open"
				}

			}
, 			{
				"box" : 				{
					"id" : "obj-28",
					"linecount" : 2,
					"maxclass" : "comment",
					"numinlets" : 1,
					"numoutlets" : 0,
					"patching_rect" : [ 391.0, 104.0, 114.0, 33.0 ],
					"style" : "default",
					"text" : "amplitude for each\n\"playback head\""
				}

			}
, 			{
				"box" : 				{
					"candicane2" : [ 0.145098, 0.203922, 0.356863, 1.0 ],
					"candicane3" : [ 0.290196, 0.411765, 0.713726, 1.0 ],
					"candicane4" : [ 0.439216, 0.619608, 0.070588, 1.0 ],
					"candicane5" : [ 0.584314, 0.827451, 0.431373, 1.0 ],
					"candicane6" : [ 0.733333, 0.035294, 0.788235, 1.0 ],
					"candicane7" : [ 0.878431, 0.243137, 0.145098, 1.0 ],
					"candicane8" : [ 0.027451, 0.447059, 0.501961, 1.0 ],
					"ghostbar" : 40,
					"id" : "obj-32",
					"maxclass" : "multislider",
					"numinlets" : 1,
					"numoutlets" : 2,
					"outlettype" : [ "", "" ],
					"parameter_enable" : 0,
					"patching_rect" : [ 382.0, 138.0, 120.0, 75.0 ],
					"setminmax" : [ 0.0, 1.0 ],
					"size" : 8,
					"spacing" : 1,
					"style" : "default"
				}

			}
, 			{
				"box" : 				{
					"id" : "obj-33",
					"maxclass" : "comment",
					"numinlets" : 1,
					"numoutlets" : 0,
					"patching_rect" : [ 323.0, 134.0, 57.0, 20.0 ],
					"style" : "default",
					"text" : "2000 ms"
				}

			}
, 			{
				"box" : 				{
					"candicane2" : [ 0.145098, 0.203922, 0.356863, 1.0 ],
					"candicane3" : [ 0.290196, 0.411765, 0.713726, 1.0 ],
					"candicane4" : [ 0.439216, 0.619608, 0.070588, 1.0 ],
					"candicane5" : [ 0.584314, 0.827451, 0.431373, 1.0 ],
					"candicane6" : [ 0.733333, 0.035294, 0.788235, 1.0 ],
					"candicane7" : [ 0.878431, 0.243137, 0.145098, 1.0 ],
					"candicane8" : [ 0.027451, 0.447059, 0.501961, 1.0 ],
					"ghostbar" : 40,
					"id" : "obj-34",
					"maxclass" : "multislider",
					"numinlets" : 1,
					"numoutlets" : 2,
					"outlettype" : [ "", "" ],
					"parameter_enable" : 0,
					"patching_rect" : [ 204.0, 138.0, 120.0, 75.0 ],
					"setminmax" : [ 0.0, 2000.0 ],
					"size" : 8,
					"spacing" : 1,
					"style" : "default"
				}

			}
, 			{
				"box" : 				{
					"id" : "obj-36",
					"maxclass" : "toggle",
					"numinlets" : 1,
					"numoutlets" : 1,
					"outlettype" : [ "int" ],
					"parameter_enable" : 0,
					"patching_rect" : [ 117.0, 93.0, 20.0, 20.0 ],
					"style" : "default"
				}

			}
, 			{
				"box" : 				{
					"id" : "obj-37",
					"maxclass" : "message",
					"numinlets" : 2,
					"numoutlets" : 1,
					"outlettype" : [ "" ],
					"patching_rect" : [ 16.0, 9.0, 165.0, 22.0 ],
					"style" : "default",
					"text" : "open vs_carbon_loop, loop 1"
				}

			}
, 			{
				"box" : 				{
					"id" : "obj-38",
					"maxclass" : "newobj",
					"numinlets" : 2,
					"numoutlets" : 2,
					"outlettype" : [ "signal", "bang" ],
					"patching_rect" : [ 88.0, 121.0, 49.0, 22.0 ],
					"saved_object_attributes" : 					{
						"basictuning" : 440,
						"followglobaltempo" : 0,
						"formantcorrection" : 0,
						"mode" : "basic",
						"originallength" : [ 3840.0, "ticks" ],
						"originaltempo" : 120.0,
						"pitchcorrection" : 0,
						"quality" : "basic",
						"timestretch" : [ 0 ]
					}
,
					"style" : "default",
					"text" : "sfplay~"
				}

			}
, 			{
				"box" : 				{
					"id" : "obj-39",
					"maxclass" : "comment",
					"numinlets" : 1,
					"numoutlets" : 0,
					"patching_rect" : [ 137.0, 94.0, 40.0, 20.0 ],
					"style" : "default",
					"text" : "on/off"
				}

			}
, 			{
				"box" : 				{
					"id" : "obj-44",
					"maxclass" : "newobj",
					"numinlets" : 7,
					"numoutlets" : 2,
					"outlettype" : [ "signal", "signal" ],
					"patching_rect" : [ 123.0, 317.0, 424.0, 22.0 ],
					"style" : "default",
					"text" : "poly~ p_resontaps~ 8"
				}

			}
, 			{
				"box" : 				{
					"id" : "obj-46",
					"maxclass" : "comment",
					"numinlets" : 1,
					"numoutlets" : 0,
					"patching_rect" : [ 323.0, 201.0, 37.0, 20.0 ],
					"style" : "default",
					"text" : "0 ms"
				}

			}
, 			{
				"box" : 				{
					"id" : "obj-47",
					"linecount" : 2,
					"maxclass" : "comment",
					"numinlets" : 1,
					"numoutlets" : 0,
					"patching_rect" : [ 214.0, 104.0, 129.0, 33.0 ],
					"style" : "default",
					"text" : "delay time for each\n\"playback head\""
				}

			}
, 			{
				"box" : 				{
					"id" : "obj-48",
					"linecount" : 2,
					"maxclass" : "comment",
					"numinlets" : 1,
					"numoutlets" : 0,
					"patching_rect" : [ 18.0, 48.0, 78.0, 33.0 ],
					"style" : "default",
					"text" : "open an\naudio file"
				}

			}
, 			{
				"box" : 				{
					"id" : "obj-51",
					"maxclass" : "comment",
					"numinlets" : 1,
					"numoutlets" : 0,
					"patching_rect" : [ 313.0, 3.0, 40.0, 20.0 ],
					"style" : "default",
					"text" : "curva"
				}

			}
 ],
		"lines" : [ 			{
				"patchline" : 				{
					"destination" : [ "obj-50", 2 ],
					"source" : [ "obj-10", 0 ]
				}

			}
, 			{
				"patchline" : 				{
					"destination" : [ "obj-50", 1 ],
					"source" : [ "obj-11", 0 ]
				}

			}
, 			{
				"patchline" : 				{
					"destination" : [ "obj-50", 3 ],
					"source" : [ "obj-13", 0 ]
				}

			}
, 			{
				"patchline" : 				{
					"destination" : [ "obj-32", 0 ],
					"source" : [ "obj-15", 0 ]
				}

			}
, 			{
				"patchline" : 				{
					"destination" : [ "obj-52", 2 ],
					"source" : [ "obj-16", 0 ]
				}

			}
, 			{
				"patchline" : 				{
					"destination" : [ "obj-52", 1 ],
					"source" : [ "obj-17", 0 ]
				}

			}
, 			{
				"patchline" : 				{
					"destination" : [ "obj-44", 1 ],
					"midpoints" : [ 213.5, 285.5, 200.0, 285.5 ],
					"source" : [ "obj-18", 0 ]
				}

			}
, 			{
				"patchline" : 				{
					"destination" : [ "obj-52", 3 ],
					"source" : [ "obj-19", 0 ]
				}

			}
, 			{
				"patchline" : 				{
					"destination" : [ "obj-44", 2 ],
					"midpoints" : [ 391.5, 280.5, 267.5, 280.5 ],
					"source" : [ "obj-20", 0 ]
				}

			}
, 			{
				"patchline" : 				{
					"destination" : [ "obj-34", 0 ],
					"source" : [ "obj-21", 0 ]
				}

			}
, 			{
				"patchline" : 				{
					"destination" : [ "obj-37", 0 ],
					"hidden" : 1,
					"order" : 1,
					"source" : [ "obj-23", 0 ]
				}

			}
, 			{
				"patchline" : 				{
					"destination" : [ "obj-94", 0 ],
					"hidden" : 1,
					"order" : 0,
					"source" : [ "obj-23", 0 ]
				}

			}
, 			{
				"patchline" : 				{
					"destination" : [ "obj-44", 5 ],
					"source" : [ "obj-24", 0 ]
				}

			}
, 			{
				"patchline" : 				{
					"destination" : [ "obj-38", 0 ],
					"midpoints" : [ 27.5, 110.0, 97.5, 110.0 ],
					"source" : [ "obj-25", 0 ]
				}

			}
, 			{
				"patchline" : 				{
					"destination" : [ "obj-20", 0 ],
					"source" : [ "obj-26", 0 ]
				}

			}
, 			{
				"patchline" : 				{
					"destination" : [ "obj-56", 0 ],
					"source" : [ "obj-27", 0 ]
				}

			}
, 			{
				"patchline" : 				{
					"destination" : [ "obj-27", 0 ],
					"source" : [ "obj-29", 0 ]
				}

			}
, 			{
				"patchline" : 				{
					"destination" : [ "obj-18", 0 ],
					"source" : [ "obj-3", 0 ]
				}

			}
, 			{
				"patchline" : 				{
					"destination" : [ "obj-41", 1 ],
					"source" : [ "obj-31", 0 ]
				}

			}
, 			{
				"patchline" : 				{
					"destination" : [ "obj-26", 0 ],
					"source" : [ "obj-32", 0 ]
				}

			}
, 			{
				"patchline" : 				{
					"destination" : [ "obj-3", 0 ],
					"source" : [ "obj-34", 0 ]
				}

			}
, 			{
				"patchline" : 				{
					"destination" : [ "obj-38", 0 ],
					"midpoints" : [ 126.5, 117.0, 97.5, 117.0 ],
					"source" : [ "obj-36", 0 ]
				}

			}
, 			{
				"patchline" : 				{
					"destination" : [ "obj-38", 0 ],
					"midpoints" : [ 25.5, 40.5, 97.5, 40.5 ],
					"source" : [ "obj-37", 0 ]
				}

			}
, 			{
				"patchline" : 				{
					"destination" : [ "obj-31", 0 ],
					"midpoints" : [ 97.5, 287.0 ],
					"order" : 0,
					"source" : [ "obj-38", 0 ]
				}

			}
, 			{
				"patchline" : 				{
					"destination" : [ "obj-42", 0 ],
					"order" : 2,
					"source" : [ "obj-38", 0 ]
				}

			}
, 			{
				"patchline" : 				{
					"destination" : [ "obj-85", 0 ],
					"order" : 1,
					"source" : [ "obj-38", 0 ]
				}

			}
, 			{
				"patchline" : 				{
					"destination" : [ "obj-44", 4 ],
					"source" : [ "obj-4", 0 ]
				}

			}
, 			{
				"patchline" : 				{
					"destination" : [ "obj-41", 0 ],
					"midpoints" : [ 20.5, 467.0, 99.5, 467.0 ],
					"source" : [ "obj-40", 0 ]
				}

			}
, 			{
				"patchline" : 				{
					"destination" : [ "obj-31", 0 ],
					"hidden" : 1,
					"source" : [ "obj-42", 1 ]
				}

			}
, 			{
				"patchline" : 				{
					"destination" : [ "obj-41", 0 ],
					"source" : [ "obj-42", 0 ]
				}

			}
, 			{
				"patchline" : 				{
					"destination" : [ "obj-41", 0 ],
					"midpoints" : [ 43.5, 467.5, 99.5, 467.5 ],
					"source" : [ "obj-43", 0 ]
				}

			}
, 			{
				"patchline" : 				{
					"destination" : [ "obj-31", 0 ],
					"midpoints" : [ 537.5, 357.75, 122.499969, 357.75 ],
					"source" : [ "obj-44", 1 ]
				}

			}
, 			{
				"patchline" : 				{
					"destination" : [ "obj-42", 0 ],
					"source" : [ "obj-44", 0 ]
				}

			}
, 			{
				"patchline" : 				{
					"destination" : [ "obj-61", 0 ],
					"midpoints" : [ 336.5, 483.0, 321.0, 483.0, 321.0, 374.0, 248.5, 374.0 ],
					"source" : [ "obj-49", 0 ]
				}

			}
, 			{
				"patchline" : 				{
					"destination" : [ "obj-15", 0 ],
					"source" : [ "obj-50", 0 ]
				}

			}
, 			{
				"patchline" : 				{
					"destination" : [ "obj-21", 0 ],
					"source" : [ "obj-52", 0 ]
				}

			}
, 			{
				"patchline" : 				{
					"destination" : [ "obj-44", 6 ],
					"midpoints" : [ 536.5, 291.0, 537.5, 291.0 ],
					"source" : [ "obj-54", 0 ]
				}

			}
, 			{
				"patchline" : 				{
					"destination" : [ "obj-54", 0 ],
					"source" : [ "obj-55", 0 ]
				}

			}
, 			{
				"patchline" : 				{
					"destination" : [ "obj-60", 0 ],
					"source" : [ "obj-58", 0 ]
				}

			}
, 			{
				"patchline" : 				{
					"destination" : [ "obj-59", 0 ],
					"source" : [ "obj-60", 0 ]
				}

			}
, 			{
				"patchline" : 				{
					"destination" : [ "obj-29", 0 ],
					"source" : [ "obj-61", 0 ]
				}

			}
, 			{
				"patchline" : 				{
					"destination" : [ "obj-55", 0 ],
					"source" : [ "obj-64", 0 ]
				}

			}
, 			{
				"patchline" : 				{
					"destination" : [ "obj-44", 3 ],
					"source" : [ "obj-68", 0 ]
				}

			}
, 			{
				"patchline" : 				{
					"destination" : [ "obj-69", 0 ],
					"source" : [ "obj-70", 0 ]
				}

			}
, 			{
				"patchline" : 				{
					"destination" : [ "obj-70", 0 ],
					"source" : [ "obj-71", 0 ]
				}

			}
, 			{
				"patchline" : 				{
					"destination" : [ "obj-44", 0 ],
					"midpoints" : [ 115.5, 305.0, 132.5, 305.0 ],
					"source" : [ "obj-85", 0 ]
				}

			}
, 			{
				"patchline" : 				{
					"destination" : [ "obj-85", 1 ],
					"midpoints" : [ 124.5, 259.0, 140.5, 259.0 ],
					"source" : [ "obj-87", 0 ]
				}

			}
, 			{
				"patchline" : 				{
					"destination" : [ "obj-85", 2 ],
					"midpoints" : [ 150.5, 273.0, 165.5, 273.0 ],
					"source" : [ "obj-88", 0 ]
				}

			}
, 			{
				"patchline" : 				{
					"destination" : [ "obj-31", 0 ],
					"hidden" : 1,
					"order" : 1,
					"source" : [ "obj-94", 2 ]
				}

			}
, 			{
				"patchline" : 				{
					"destination" : [ "obj-36", 0 ],
					"hidden" : 1,
					"order" : 0,
					"source" : [ "obj-94", 2 ]
				}

			}
, 			{
				"patchline" : 				{
					"destination" : [ "obj-42", 0 ],
					"hidden" : 1,
					"order" : 2,
					"source" : [ "obj-94", 2 ]
				}

			}
 ],
		"dependency_cache" : [ 			{
				"name" : "p_resontaps~.maxpat",
				"bootpath" : "~/Dropbox/interscambio giri refice/VOLUME 2 MAX 7/Materiale online rivisto da MauG/Materiale Capitoli Max Vol 2/Versione Inglese/Chapter 06 Patch",
				"patcherrelativepath" : ".",
				"type" : "JSON",
				"implicit" : 1
			}
, 			{
				"name" : "vs.pan~.maxpat",
				"bootpath" : "~/Documents/Max/Max 8/Packages/Virtual Sound Macros/externals/spat and audio routers",
				"patcherrelativepath" : "../../../../../../../Documents/Max/Max 8/Packages/Virtual Sound Macros/externals/spat and audio routers",
				"type" : "JSON",
				"implicit" : 1
			}
, 			{
				"name" : "vs.sig~.maxpat",
				"bootpath" : "~/Documents/Max/Max 8/Packages/Virtual Sound Macros/externals/audio utility",
				"patcherrelativepath" : "../../../../../../../Documents/Max/Max 8/Packages/Virtual Sound Macros/externals/audio utility",
				"type" : "JSON",
				"implicit" : 1
			}
, 			{
				"name" : "vs.explist.maxpat",
				"bootpath" : "~/Documents/Max/Max 8/Packages/Virtual Sound Macros/externals/list processors",
				"patcherrelativepath" : "../../../../../../../Documents/Max/Max 8/Packages/Virtual Sound Macros/externals/list processors",
				"type" : "JSON",
				"implicit" : 1
			}
, 			{
				"name" : "vs.scale2.maxpat",
				"bootpath" : "~/Documents/Max/Max 8/Packages/Virtual Sound Macros/externals/converters and mappings",
				"patcherrelativepath" : "../../../../../../../Documents/Max/Max 8/Packages/Virtual Sound Macros/externals/converters and mappings",
				"type" : "JSON",
				"implicit" : 1
			}
, 			{
				"name" : "vs.scale.maxpat",
				"bootpath" : "~/Documents/Max/Max 8/Packages/Virtual Sound Macros/externals/converters and mappings",
				"patcherrelativepath" : "../../../../../../../Documents/Max/Max 8/Packages/Virtual Sound Macros/externals/converters and mappings",
				"type" : "JSON",
				"implicit" : 1
			}
 ],
		"autosave" : 0
	}

}
