{
	"patcher" : 	{
		"fileversion" : 1,
		"appversion" : 		{
			"major" : 8,
			"minor" : 0,
			"revision" : 3,
			"architecture" : "x64",
			"modernui" : 1
		}
,
		"classnamespace" : "box",
		"rect" : [ 404.0, 171.0, 549.0, 467.0 ],
		"bglocked" : 0,
		"openinpresentation" : 0,
		"default_fontsize" : 12.0,
		"default_fontface" : 0,
		"default_fontname" : "Arial",
		"gridonopen" : 1,
		"gridsize" : [ 15.0, 15.0 ],
		"gridsnaponopen" : 1,
		"objectsnaponopen" : 1,
		"statusbarvisible" : 2,
		"toolbarvisible" : 1,
		"lefttoolbarpinned" : 0,
		"toptoolbarpinned" : 0,
		"righttoolbarpinned" : 0,
		"bottomtoolbarpinned" : 0,
		"toolbars_unpinned_last_save" : 0,
		"tallnewobj" : 0,
		"boxanimatetime" : 200,
		"enablehscroll" : 1,
		"enablevscroll" : 1,
		"devicewidth" : 0.0,
		"description" : "",
		"digest" : "",
		"tags" : "",
		"style" : "",
		"subpatcher_template" : "",
		"boxes" : [ 			{
				"box" : 				{
					"comment" : "",
					"id" : "obj-10",
					"index" : 1,
					"maxclass" : "inlet",
					"numinlets" : 0,
					"numoutlets" : 1,
					"outlettype" : [ "signal" ],
					"patching_rect" : [ 4.0, 69.0, 30.0, 30.0 ]
				}

			}
, 			{
				"box" : 				{
					"comment" : "",
					"id" : "obj-7",
					"index" : 2,
					"maxclass" : "inlet",
					"numinlets" : 0,
					"numoutlets" : 1,
					"outlettype" : [ "" ],
					"patching_rect" : [ 38.0, 17.0, 30.0, 30.0 ]
				}

			}
, 			{
				"box" : 				{
					"comment" : "",
					"id" : "obj-6",
					"index" : 2,
					"maxclass" : "outlet",
					"numinlets" : 1,
					"numoutlets" : 0,
					"patching_rect" : [ 72.0, 417.0, 30.0, 30.0 ]
				}

			}
, 			{
				"box" : 				{
					"comment" : "",
					"id" : "obj-4",
					"index" : 1,
					"maxclass" : "outlet",
					"numinlets" : 1,
					"numoutlets" : 0,
					"patching_rect" : [ 27.0, 417.0, 30.0, 30.0 ]
				}

			}
, 			{
				"box" : 				{
					"id" : "obj-23",
					"maxclass" : "comment",
					"numinlets" : 1,
					"numoutlets" : 0,
					"patching_rect" : [ 455.0, 237.0, 25.0, 20.0 ],
					"style" : "default",
					"text" : "Hz"
				}

			}
, 			{
				"box" : 				{
					"id" : "obj-22",
					"maxclass" : "comment",
					"numinlets" : 1,
					"numoutlets" : 0,
					"patching_rect" : [ 337.0, 236.0, 25.0, 20.0 ],
					"style" : "default",
					"text" : "Hz"
				}

			}
, 			{
				"box" : 				{
					"hidden" : 1,
					"id" : "obj-75",
					"maxclass" : "newobj",
					"numinlets" : 1,
					"numoutlets" : 1,
					"outlettype" : [ "" ],
					"patching_rect" : [ 72.0, 10.0, 72.0, 22.0 ],
					"style" : "default",
					"text" : "loadmess 1"
				}

			}
, 			{
				"box" : 				{
					"id" : "obj-73",
					"maxclass" : "comment",
					"numinlets" : 1,
					"numoutlets" : 0,
					"patching_rect" : [ 79.0, 264.0, 32.0, 20.0 ],
					"style" : "default",
					"text" : "pan"
				}

			}
, 			{
				"box" : 				{
					"format" : 6,
					"id" : "obj-74",
					"maxclass" : "flonum",
					"maximum" : 1.0,
					"minimum" : 0.0,
					"numinlets" : 1,
					"numoutlets" : 2,
					"outlettype" : [ "", "bang" ],
					"parameter_enable" : 0,
					"patching_rect" : [ 38.0, 264.0, 44.0, 22.0 ],
					"style" : "default"
				}

			}
, 			{
				"box" : 				{
					"id" : "obj-71",
					"maxclass" : "newobj",
					"numinlets" : 1,
					"numoutlets" : 0,
					"patching_rect" : [ 38.0, 321.0, 61.0, 22.0 ],
					"style" : "default",
					"text" : "s rightch~"
				}

			}
, 			{
				"box" : 				{
					"id" : "obj-72",
					"maxclass" : "newobj",
					"numinlets" : 1,
					"numoutlets" : 0,
					"patching_rect" : [ 4.0, 350.0, 54.0, 22.0 ],
					"style" : "default",
					"text" : "s leftch~"
				}

			}
, 			{
				"box" : 				{
					"id" : "obj-70",
					"maxclass" : "newobj",
					"numinlets" : 2,
					"numoutlets" : 2,
					"outlettype" : [ "signal", "signal" ],
					"patching_rect" : [ 4.0, 292.0, 53.0, 22.0 ],
					"style" : "default",
					"text" : "vs.pan~"
				}

			}
, 			{
				"box" : 				{
					"id" : "obj-66",
					"maxclass" : "newobj",
					"numinlets" : 0,
					"numoutlets" : 1,
					"outlettype" : [ "" ],
					"patching_rect" : [ 114.0, 88.0, 52.0, 22.0 ],
					"style" : "default",
					"text" : "r rightch"
				}

			}
, 			{
				"box" : 				{
					"id" : "obj-67",
					"maxclass" : "newobj",
					"numinlets" : 0,
					"numoutlets" : 1,
					"outlettype" : [ "" ],
					"patching_rect" : [ 56.0, 87.0, 52.0, 22.0 ],
					"style" : "default",
					"text" : "r leftch~"
				}

			}
, 			{
				"box" : 				{
					"id" : "obj-57",
					"maxclass" : "newobj",
					"numinlets" : 1,
					"numoutlets" : 0,
					"patching_rect" : [ 433.0, 421.0, 56.0, 22.0 ],
					"style" : "default",
					"text" : "s rightch"
				}

			}
, 			{
				"box" : 				{
					"id" : "obj-58",
					"maxclass" : "newobj",
					"numinlets" : 1,
					"numoutlets" : 0,
					"patching_rect" : [ 375.0, 421.0, 49.0, 22.0 ],
					"style" : "default",
					"text" : "s leftch"
				}

			}
, 			{
				"box" : 				{
					"id" : "obj-59",
					"maxclass" : "comment",
					"numinlets" : 1,
					"numoutlets" : 0,
					"patching_rect" : [ 475.0, 361.0, 32.0, 20.0 ],
					"style" : "default",
					"text" : "pan"
				}

			}
, 			{
				"box" : 				{
					"id" : "obj-60",
					"maxclass" : "comment",
					"numinlets" : 1,
					"numoutlets" : 0,
					"patching_rect" : [ 454.0, 335.0, 59.0, 20.0 ],
					"style" : "default",
					"text" : "feedback"
				}

			}
, 			{
				"box" : 				{
					"id" : "obj-61",
					"maxclass" : "comment",
					"numinlets" : 1,
					"numoutlets" : 0,
					"patching_rect" : [ 441.0, 306.0, 39.0, 20.0 ],
					"style" : "default",
					"text" : "delay"
				}

			}
, 			{
				"box" : 				{
					"format" : 6,
					"id" : "obj-62",
					"maxclass" : "flonum",
					"maximum" : 1.0,
					"minimum" : 0.0,
					"numinlets" : 1,
					"numoutlets" : 2,
					"outlettype" : [ "", "bang" ],
					"parameter_enable" : 0,
					"patching_rect" : [ 433.0, 361.0, 44.0, 22.0 ],
					"style" : "default"
				}

			}
, 			{
				"box" : 				{
					"id" : "obj-63",
					"maxclass" : "newobj",
					"numinlets" : 4,
					"numoutlets" : 2,
					"outlettype" : [ "signal", "signal" ],
					"patching_rect" : [ 374.5, 389.5, 77.0, 22.0 ],
					"style" : "default",
					"text" : "tap.module~"
				}

			}
, 			{
				"box" : 				{
					"format" : 6,
					"id" : "obj-64",
					"maxclass" : "flonum",
					"maximum" : 1.0,
					"minimum" : 0.0,
					"numinlets" : 1,
					"numoutlets" : 2,
					"outlettype" : [ "", "bang" ],
					"parameter_enable" : 0,
					"patching_rect" : [ 413.0, 334.0, 44.0, 22.0 ],
					"style" : "default"
				}

			}
, 			{
				"box" : 				{
					"format" : 6,
					"id" : "obj-65",
					"maxclass" : "flonum",
					"numinlets" : 1,
					"numoutlets" : 2,
					"outlettype" : [ "", "bang" ],
					"parameter_enable" : 0,
					"patching_rect" : [ 394.0, 306.0, 50.0, 22.0 ],
					"style" : "default"
				}

			}
, 			{
				"box" : 				{
					"id" : "obj-47",
					"maxclass" : "newobj",
					"numinlets" : 1,
					"numoutlets" : 0,
					"patching_rect" : [ 302.0, 421.0, 56.0, 22.0 ],
					"style" : "default",
					"text" : "s rightch"
				}

			}
, 			{
				"box" : 				{
					"id" : "obj-48",
					"maxclass" : "newobj",
					"numinlets" : 1,
					"numoutlets" : 0,
					"patching_rect" : [ 244.0, 421.0, 49.0, 22.0 ],
					"style" : "default",
					"text" : "s leftch"
				}

			}
, 			{
				"box" : 				{
					"id" : "obj-50",
					"maxclass" : "comment",
					"numinlets" : 1,
					"numoutlets" : 0,
					"patching_rect" : [ 344.0, 361.0, 32.0, 20.0 ],
					"style" : "default",
					"text" : "pan"
				}

			}
, 			{
				"box" : 				{
					"id" : "obj-51",
					"maxclass" : "comment",
					"numinlets" : 1,
					"numoutlets" : 0,
					"patching_rect" : [ 323.0, 335.0, 59.0, 20.0 ],
					"style" : "default",
					"text" : "feedback"
				}

			}
, 			{
				"box" : 				{
					"id" : "obj-52",
					"maxclass" : "comment",
					"numinlets" : 1,
					"numoutlets" : 0,
					"patching_rect" : [ 310.0, 306.0, 39.0, 20.0 ],
					"style" : "default",
					"text" : "delay"
				}

			}
, 			{
				"box" : 				{
					"format" : 6,
					"id" : "obj-53",
					"maxclass" : "flonum",
					"maximum" : 1.0,
					"minimum" : 0.0,
					"numinlets" : 1,
					"numoutlets" : 2,
					"outlettype" : [ "", "bang" ],
					"parameter_enable" : 0,
					"patching_rect" : [ 302.0, 361.0, 44.0, 22.0 ],
					"style" : "default"
				}

			}
, 			{
				"box" : 				{
					"id" : "obj-54",
					"maxclass" : "newobj",
					"numinlets" : 4,
					"numoutlets" : 2,
					"outlettype" : [ "signal", "signal" ],
					"patching_rect" : [ 243.5, 389.5, 77.0, 22.0 ],
					"style" : "default",
					"text" : "tap.module~"
				}

			}
, 			{
				"box" : 				{
					"format" : 6,
					"id" : "obj-55",
					"maxclass" : "flonum",
					"maximum" : 1.0,
					"minimum" : 0.0,
					"numinlets" : 1,
					"numoutlets" : 2,
					"outlettype" : [ "", "bang" ],
					"parameter_enable" : 0,
					"patching_rect" : [ 282.0, 334.0, 44.0, 22.0 ],
					"style" : "default"
				}

			}
, 			{
				"box" : 				{
					"format" : 6,
					"id" : "obj-56",
					"maxclass" : "flonum",
					"numinlets" : 1,
					"numoutlets" : 2,
					"outlettype" : [ "", "bang" ],
					"parameter_enable" : 0,
					"patching_rect" : [ 263.0, 306.0, 50.0, 22.0 ],
					"style" : "default"
				}

			}
, 			{
				"box" : 				{
					"id" : "obj-46",
					"maxclass" : "newobj",
					"numinlets" : 1,
					"numoutlets" : 0,
					"patching_rect" : [ 171.0, 421.0, 54.0, 22.0 ],
					"style" : "default",
					"text" : "s rightch"
				}

			}
, 			{
				"box" : 				{
					"id" : "obj-45",
					"maxclass" : "newobj",
					"numinlets" : 1,
					"numoutlets" : 0,
					"patching_rect" : [ 113.0, 421.0, 49.0, 22.0 ],
					"style" : "default",
					"text" : "s leftch"
				}

			}
, 			{
				"box" : 				{
					"id" : "obj-42",
					"maxclass" : "comment",
					"numinlets" : 1,
					"numoutlets" : 0,
					"patching_rect" : [ 213.0, 361.0, 32.0, 20.0 ],
					"style" : "default",
					"text" : "pan"
				}

			}
, 			{
				"box" : 				{
					"id" : "obj-41",
					"maxclass" : "comment",
					"numinlets" : 1,
					"numoutlets" : 0,
					"patching_rect" : [ 192.0, 335.0, 59.0, 20.0 ],
					"style" : "default",
					"text" : "feedback"
				}

			}
, 			{
				"box" : 				{
					"id" : "obj-40",
					"maxclass" : "comment",
					"numinlets" : 1,
					"numoutlets" : 0,
					"patching_rect" : [ 179.0, 306.0, 39.0, 20.0 ],
					"style" : "default",
					"text" : "delay"
				}

			}
, 			{
				"box" : 				{
					"format" : 6,
					"id" : "obj-38",
					"maxclass" : "flonum",
					"maximum" : 1.0,
					"minimum" : 0.0,
					"numinlets" : 1,
					"numoutlets" : 2,
					"outlettype" : [ "", "bang" ],
					"parameter_enable" : 0,
					"patching_rect" : [ 171.0, 361.0, 44.0, 22.0 ],
					"style" : "default"
				}

			}
, 			{
				"box" : 				{
					"id" : "obj-32",
					"maxclass" : "newobj",
					"numinlets" : 3,
					"numoutlets" : 3,
					"outlettype" : [ "signal", "signal", "signal" ],
					"patcher" : 					{
						"fileversion" : 1,
						"appversion" : 						{
							"major" : 8,
							"minor" : 0,
							"revision" : 3,
							"architecture" : "x64",
							"modernui" : 1
						}
,
						"classnamespace" : "box",
						"rect" : [ 25.0, 69.0, 146.0, 204.0 ],
						"bglocked" : 0,
						"openinpresentation" : 0,
						"default_fontsize" : 12.0,
						"default_fontface" : 0,
						"default_fontname" : "Arial",
						"gridonopen" : 1,
						"gridsize" : [ 15.0, 15.0 ],
						"gridsnaponopen" : 1,
						"objectsnaponopen" : 1,
						"statusbarvisible" : 2,
						"toolbarvisible" : 1,
						"lefttoolbarpinned" : 0,
						"toptoolbarpinned" : 0,
						"righttoolbarpinned" : 0,
						"bottomtoolbarpinned" : 0,
						"toolbars_unpinned_last_save" : 0,
						"tallnewobj" : 0,
						"boxanimatetime" : 200,
						"enablehscroll" : 1,
						"enablevscroll" : 1,
						"devicewidth" : 0.0,
						"description" : "",
						"digest" : "",
						"tags" : "",
						"style" : "",
						"subpatcher_template" : "",
						"boxes" : [ 							{
								"box" : 								{
									"fontname" : "Arial",
									"fontsize" : 12.0,
									"id" : "obj-67",
									"maxclass" : "newobj",
									"numinlets" : 2,
									"numoutlets" : 2,
									"outlettype" : [ "signal", "bang" ],
									"patching_rect" : [ 36.0, 67.0, 36.0, 20.0 ],
									"text" : "line~"
								}

							}
, 							{
								"box" : 								{
									"fontname" : "Arial",
									"fontsize" : 12.0,
									"id" : "obj-68",
									"maxclass" : "message",
									"numinlets" : 2,
									"numoutlets" : 1,
									"outlettype" : [ "" ],
									"patching_rect" : [ 36.0, 42.0, 41.0, 18.0 ],
									"text" : "$1 20"
								}

							}
, 							{
								"box" : 								{
									"fontname" : "Arial",
									"fontsize" : 12.0,
									"id" : "obj-66",
									"maxclass" : "newobj",
									"numinlets" : 2,
									"numoutlets" : 2,
									"outlettype" : [ "signal", "bang" ],
									"patching_rect" : [ 91.0, 67.0, 36.0, 20.0 ],
									"text" : "line~"
								}

							}
, 							{
								"box" : 								{
									"fontname" : "Arial",
									"fontsize" : 12.0,
									"id" : "obj-65",
									"maxclass" : "message",
									"numinlets" : 2,
									"numoutlets" : 1,
									"outlettype" : [ "" ],
									"patching_rect" : [ 91.0, 42.0, 41.0, 18.0 ],
									"text" : "$1 20"
								}

							}
, 							{
								"box" : 								{
									"fontname" : "Arial",
									"fontsize" : 12.0,
									"id" : "obj-30",
									"maxclass" : "newobj",
									"numinlets" : 2,
									"numoutlets" : 2,
									"outlettype" : [ "signal", "signal" ],
									"patching_rect" : [ 37.0, 121.0, 46.0, 20.0 ],
									"text" : "cross~"
								}

							}
, 							{
								"box" : 								{
									"fontname" : "Arial",
									"fontsize" : 12.0,
									"id" : "obj-29",
									"maxclass" : "newobj",
									"numinlets" : 2,
									"numoutlets" : 2,
									"outlettype" : [ "signal", "signal" ],
									"patching_rect" : [ 9.0, 94.0, 46.0, 20.0 ],
									"text" : "cross~"
								}

							}
, 							{
								"box" : 								{
									"comment" : "",
									"id" : "obj-21",
									"index" : 1,
									"maxclass" : "inlet",
									"numinlets" : 0,
									"numoutlets" : 1,
									"outlettype" : [ "signal" ],
									"patching_rect" : [ 9.0, 4.0, 25.0, 25.0 ]
								}

							}
, 							{
								"box" : 								{
									"comment" : "",
									"id" : "obj-23",
									"index" : 2,
									"maxclass" : "inlet",
									"numinlets" : 0,
									"numoutlets" : 1,
									"outlettype" : [ "" ],
									"patching_rect" : [ 36.0, 4.0, 25.0, 25.0 ]
								}

							}
, 							{
								"box" : 								{
									"comment" : "",
									"id" : "obj-24",
									"index" : 3,
									"maxclass" : "inlet",
									"numinlets" : 0,
									"numoutlets" : 1,
									"outlettype" : [ "" ],
									"patching_rect" : [ 91.0, 4.0, 25.0, 25.0 ]
								}

							}
, 							{
								"box" : 								{
									"comment" : "",
									"id" : "obj-25",
									"index" : 1,
									"maxclass" : "outlet",
									"numinlets" : 1,
									"numoutlets" : 0,
									"patching_rect" : [ 9.0, 167.0, 25.0, 25.0 ]
								}

							}
, 							{
								"box" : 								{
									"comment" : "",
									"id" : "obj-26",
									"index" : 2,
									"maxclass" : "outlet",
									"numinlets" : 1,
									"numoutlets" : 0,
									"patching_rect" : [ 37.0, 167.0, 25.0, 25.0 ]
								}

							}
, 							{
								"box" : 								{
									"comment" : "",
									"id" : "obj-27",
									"index" : 3,
									"maxclass" : "outlet",
									"numinlets" : 1,
									"numoutlets" : 0,
									"patching_rect" : [ 64.0, 167.0, 25.0, 25.0 ]
								}

							}
 ],
						"lines" : [ 							{
								"patchline" : 								{
									"destination" : [ "obj-29", 0 ],
									"source" : [ "obj-21", 0 ]
								}

							}
, 							{
								"patchline" : 								{
									"destination" : [ "obj-68", 0 ],
									"source" : [ "obj-23", 0 ]
								}

							}
, 							{
								"patchline" : 								{
									"destination" : [ "obj-65", 0 ],
									"source" : [ "obj-24", 0 ]
								}

							}
, 							{
								"patchline" : 								{
									"destination" : [ "obj-25", 0 ],
									"source" : [ "obj-29", 0 ]
								}

							}
, 							{
								"patchline" : 								{
									"destination" : [ "obj-30", 0 ],
									"source" : [ "obj-29", 1 ]
								}

							}
, 							{
								"patchline" : 								{
									"destination" : [ "obj-26", 0 ],
									"source" : [ "obj-30", 0 ]
								}

							}
, 							{
								"patchline" : 								{
									"destination" : [ "obj-27", 0 ],
									"source" : [ "obj-30", 1 ]
								}

							}
, 							{
								"patchline" : 								{
									"destination" : [ "obj-66", 0 ],
									"source" : [ "obj-65", 0 ]
								}

							}
, 							{
								"patchline" : 								{
									"destination" : [ "obj-30", 1 ],
									"source" : [ "obj-66", 0 ]
								}

							}
, 							{
								"patchline" : 								{
									"destination" : [ "obj-29", 1 ],
									"source" : [ "obj-67", 0 ]
								}

							}
, 							{
								"patchline" : 								{
									"destination" : [ "obj-67", 0 ],
									"source" : [ "obj-68", 0 ]
								}

							}
 ]
					}
,
					"patching_rect" : [ 171.0, 265.0, 252.0, 22.0 ],
					"saved_object_attributes" : 					{
						"description" : "",
						"digest" : "",
						"globalpatchername" : "",
						"tags" : ""
					}
,
					"style" : "default",
					"text" : "p 3_bands"
				}

			}
, 			{
				"box" : 				{
					"id" : "obj-1",
					"maxclass" : "preset",
					"numinlets" : 1,
					"numoutlets" : 4,
					"outlettype" : [ "preset", "int", "preset", "int" ],
					"patching_rect" : [ 72.0, 40.0, 43.0, 29.0 ],
					"preset_data" : [ 						{
							"number" : 1,
							"data" : [ 5, "<invalid>", "live.step", "recallseq", 1, 95, "<invalid>", "live.step", "recallseq", 0, 1, 12, 0, 16, 59.0, 80.0, 0, 0, 16, 60, 101, 4, 127, 127, 63, 83, 4, 127, 127, 67, 57, 4, 127, 127, 74, 78, 4, 127, 127, 70, 35, 4, 127, 127, 67, 75, 4, 127, 127, 60, 114, 4, 127, 127, 70, 75, 4, 127, 127, 67, 59, 4, 127, 127, 79, 80, 4, 127, 127, 60, 100, 4, 127, 127, 70, 84, 4, 127, 127, 60, 114, 4, 127, 127, 63, 98, 4, 127, 127, 70, 97, 4, 127, 127, 62, 103, 4, 127, 127, 0, 4, "<invalid>", "live.step", "recallseq", 4, "<invalid>", "function", "clear", 7, "<invalid>", "function", "add", 0.0, 0.0, 0, 7, "<invalid>", "function", "add", 4.424778, 1.0, 0, 7, "<invalid>", "function", "add", 53.097343000000002, 0.622222, 0, 7, "<invalid>", "function", "add", 157.079651000000013, 0.133333, 0, 7, "<invalid>", "function", "add", 250.0, 0.0, 0, 5, "<invalid>", "function", "domain", 250.0, 6, "<invalid>", "function", "range", 0.0, 1.0, 5, "<invalid>", "number", "int", 250, 5, "obj-33", "flonum", "float", 1200.0, 5, "obj-34", "flonum", "float", 3500.0, 5, "obj-43", "flonum", "float", 80.0, 5, "obj-44", "flonum", "float", 0.0, 5, "obj-38", "flonum", "float", 0.0, 5, "obj-56", "flonum", "float", 160.0, 5, "obj-55", "flonum", "float", 0.0, 5, "obj-53", "flonum", "float", 0.5, 5, "obj-65", "flonum", "float", 240.0, 5, "obj-64", "flonum", "float", 0.0, 5, "obj-62", "flonum", "float", 1.0, 5, "obj-74", "flonum", "float", 0.5 ]
						}
, 						{
							"number" : 2,
							"data" : [ 5, "<invalid>", "live.step", "recallseq", 1, 95, "<invalid>", "live.step", "recallseq", 0, 1, 12, 0, 16, 59.0, 80.0, 0, 0, 16, 60, 101, 4, 127, 127, 63, 83, 4, 127, 127, 67, 57, 4, 127, 127, 74, 78, 4, 127, 127, 70, 35, 4, 127, 127, 67, 75, 4, 127, 127, 60, 114, 4, 127, 127, 70, 75, 4, 127, 127, 67, 59, 4, 127, 127, 79, 80, 4, 127, 127, 60, 100, 4, 127, 127, 70, 84, 4, 127, 127, 60, 114, 4, 127, 127, 63, 98, 4, 127, 127, 70, 97, 4, 127, 127, 62, 103, 4, 127, 127, 0, 4, "<invalid>", "live.step", "recallseq", 4, "<invalid>", "function", "clear", 7, "<invalid>", "function", "add", 0.0, 0.0, 0, 7, "<invalid>", "function", "add", 4.424778, 1.0, 0, 7, "<invalid>", "function", "add", 53.097343000000002, 0.622222, 0, 7, "<invalid>", "function", "add", 157.079651000000013, 0.133333, 0, 7, "<invalid>", "function", "add", 250.0, 0.0, 0, 5, "<invalid>", "function", "domain", 250.0, 6, "<invalid>", "function", "range", 0.0, 1.0, 5, "<invalid>", "number", "int", 250, 5, "obj-33", "flonum", "float", 390.0, 5, "obj-34", "flonum", "float", 2200.0, 5, "obj-43", "flonum", "float", 125.0, 5, "obj-44", "flonum", "float", 0.93, 5, "obj-38", "flonum", "float", 0.0, 5, "obj-56", "flonum", "float", 275.0, 5, "obj-55", "flonum", "float", 0.8, 5, "obj-53", "flonum", "float", 0.5, 5, "obj-65", "flonum", "float", 333.0, 5, "obj-64", "flonum", "float", 0.7, 5, "obj-62", "flonum", "float", 1.0, 5, "obj-74", "flonum", "float", 0.5 ]
						}
, 						{
							"number" : 3,
							"data" : [ 5, "<invalid>", "live.step", "recallseq", 1, 95, "<invalid>", "live.step", "recallseq", 0, 1, 12, 0, 16, 59.0, 80.0, 0, 0, 16, 60, 101, 4, 127, 127, 63, 83, 4, 127, 127, 67, 57, 4, 127, 127, 74, 78, 4, 127, 127, 70, 35, 4, 127, 127, 67, 75, 4, 127, 127, 60, 114, 4, 127, 127, 70, 75, 4, 127, 127, 67, 59, 4, 127, 127, 79, 80, 4, 127, 127, 60, 100, 4, 127, 127, 70, 84, 4, 127, 127, 60, 114, 4, 127, 127, 63, 98, 4, 127, 127, 70, 97, 4, 127, 127, 62, 103, 4, 127, 127, 0, 4, "<invalid>", "live.step", "recallseq", 4, "<invalid>", "function", "clear", 7, "<invalid>", "function", "add", 0.0, 0.0, 0, 7, "<invalid>", "function", "add", 24.336283000000002, 1.0, 0, 7, "<invalid>", "function", "add", 81.858406000000002, 0.755556, 0, 7, "<invalid>", "function", "add", 157.079651000000013, 0.133333, 0, 7, "<invalid>", "function", "add", 250.0, 0.0, 0, 5, "<invalid>", "function", "domain", 250.0, 6, "<invalid>", "function", "range", 0.0, 1.0, 5, "<invalid>", "number", "int", 250, 5, "obj-33", "flonum", "float", 2800.0, 5, "obj-34", "flonum", "float", 6000.0, 5, "obj-43", "flonum", "float", 125.0, 5, "obj-44", "flonum", "float", 0.6, 5, "obj-38", "flonum", "float", 1.0, 5, "obj-56", "flonum", "float", 130.0, 5, "obj-55", "flonum", "float", 0.6, 5, "obj-53", "flonum", "float", 0.5, 5, "obj-65", "flonum", "float", 135.0, 5, "obj-64", "flonum", "float", 0.6, 5, "obj-62", "flonum", "float", 0.0, 5, "obj-74", "flonum", "float", 0.5 ]
						}
, 						{
							"number" : 4,
							"data" : [ 5, "<invalid>", "live.step", "recallseq", 1, 95, "<invalid>", "live.step", "recallseq", 0, 1, 12, 0, 16, 59.0, 80.0, 0, 0, 16, 60, 101, 4, 127, 127, 63, 83, 4, 127, 127, 67, 57, 4, 127, 127, 74, 78, 4, 127, 127, 70, 35, 4, 127, 127, 67, 75, 4, 127, 127, 60, 114, 4, 127, 127, 70, 75, 4, 127, 127, 67, 59, 4, 127, 127, 79, 80, 4, 127, 127, 60, 100, 4, 127, 127, 70, 84, 4, 127, 127, 60, 114, 4, 127, 127, 63, 98, 4, 127, 127, 70, 97, 4, 127, 127, 62, 103, 4, 127, 127, 0, 4, "<invalid>", "live.step", "recallseq", 4, "<invalid>", "function", "clear", 7, "<invalid>", "function", "add", 0.0, 0.0, 0, 7, "<invalid>", "function", "add", 2.212389, 1.0, 0, 7, "<invalid>", "function", "add", 26.548672, 0.622222, 0, 7, "<invalid>", "function", "add", 58.628318999999998, 0.0, 0, 7, "<invalid>", "function", "add", 125.0, 0.0, 0, 5, "<invalid>", "function", "domain", 125.0, 6, "<invalid>", "function", "range", 0.0, 1.0, 5, "<invalid>", "number", "int", 125, 5, "obj-33", "flonum", "float", 98.0, 5, "obj-34", "flonum", "float", 2650.0, 5, "obj-43", "flonum", "float", 25.0, 5, "obj-44", "flonum", "float", 0.65, 5, "obj-38", "flonum", "float", 0.6, 5, "obj-56", "flonum", "float", 50.0, 5, "obj-55", "flonum", "float", 0.65, 5, "obj-53", "flonum", "float", 0.8, 5, "obj-65", "flonum", "float", 75.0, 5, "obj-64", "flonum", "float", 0.65, 5, "obj-62", "flonum", "float", 1.0, 5, "obj-74", "flonum", "float", 0.0 ]
						}
, 						{
							"number" : 5,
							"data" : [ 5, "<invalid>", "live.step", "recallseq", 1, 95, "<invalid>", "live.step", "recallseq", 0, 1, 12, 0, 16, 59.0, 80.0, 0, 0, 16, 60, 101, 4, 127, 127, 63, 83, 4, 127, 127, 67, 57, 4, 127, 127, 74, 78, 4, 127, 127, 70, 35, 4, 127, 127, 67, 75, 4, 127, 127, 60, 114, 4, 127, 127, 70, 75, 4, 127, 127, 67, 59, 4, 127, 127, 79, 80, 4, 127, 127, 60, 100, 4, 127, 127, 70, 84, 4, 127, 127, 60, 114, 4, 127, 127, 63, 98, 4, 127, 127, 70, 97, 4, 127, 127, 62, 103, 4, 127, 127, 0, 4, "<invalid>", "live.step", "recallseq", 4, "<invalid>", "function", "clear", 7, "<invalid>", "function", "add", 0.0, 0.0, 0, 7, "<invalid>", "function", "add", 19.911504999999998, 0.977778, 0, 7, "<invalid>", "function", "add", 51.991149999999998, 0.644444, 0, 7, "<invalid>", "function", "add", 66.371680999999995, 0.0, 0, 7, "<invalid>", "function", "add", 125.0, 0.0, 0, 5, "<invalid>", "function", "domain", 125.0, 6, "<invalid>", "function", "range", 0.0, 1.0, 5, "<invalid>", "number", "int", 125, 5, "obj-33", "flonum", "float", 3500.0, 5, "obj-34", "flonum", "float", 6300.0, 5, "obj-43", "flonum", "float", 10.0, 5, "obj-44", "flonum", "float", 0.8, 5, "obj-38", "flonum", "float", 0.0, 5, "obj-56", "flonum", "float", 30.0, 5, "obj-55", "flonum", "float", 0.85, 5, "obj-53", "flonum", "float", 0.25, 5, "obj-65", "flonum", "float", 50.0, 5, "obj-64", "flonum", "float", 0.85, 5, "obj-62", "flonum", "float", 0.5, 5, "obj-74", "flonum", "float", 1.0 ]
						}
, 						{
							"number" : 6,
							"data" : [ 5, "<invalid>", "live.step", "recallseq", 1, 95, "<invalid>", "live.step", "recallseq", 0, 1, 12, 0, 16, 59.0, 80.0, 0, 0, 16, 60, 101, 4, 127, 127, 63, 83, 4, 127, 127, 67, 57, 4, 127, 127, 74, 78, 4, 127, 127, 70, 35, 4, 127, 127, 67, 75, 4, 127, 127, 60, 114, 4, 127, 127, 70, 75, 4, 127, 127, 67, 59, 4, 127, 127, 79, 80, 4, 127, 127, 60, 100, 4, 127, 127, 70, 84, 4, 127, 127, 60, 114, 4, 127, 127, 63, 98, 4, 127, 127, 70, 97, 4, 127, 127, 62, 103, 4, 127, 127, 0, 4, "<invalid>", "live.step", "recallseq", 4, "<invalid>", "function", "clear", 7, "<invalid>", "function", "add", 0.0, 0.0, 0, 7, "<invalid>", "function", "add", 2.212389, 1.0, 0, 7, "<invalid>", "function", "add", 26.548672, 0.622222, 0, 7, "<invalid>", "function", "add", 96.238937000000007, 0.266667, 0, 7, "<invalid>", "function", "add", 125.0, 0.0, 0, 5, "<invalid>", "function", "domain", 125.0, 6, "<invalid>", "function", "range", 0.0, 1.0, 5, "<invalid>", "number", "int", 125, 5, "obj-33", "flonum", "float", 320.0, 5, "obj-34", "flonum", "float", 2500.0, 5, "obj-43", "flonum", "float", 251.0, 5, "obj-44", "flonum", "float", 0.85, 5, "obj-38", "flonum", "float", 0.8, 5, "obj-56", "flonum", "float", 502.0, 5, "obj-55", "flonum", "float", 0.85, 5, "obj-53", "flonum", "float", 0.9, 5, "obj-65", "flonum", "float", 753.0, 5, "obj-64", "flonum", "float", 0.85, 5, "obj-62", "flonum", "float", 1.0, 5, "obj-74", "flonum", "float", 0.1 ]
						}
 ],
					"style" : "default"
				}

			}
, 			{
				"box" : 				{
					"id" : "obj-49",
					"maxclass" : "newobj",
					"numinlets" : 4,
					"numoutlets" : 2,
					"outlettype" : [ "signal", "signal" ],
					"patching_rect" : [ 112.5, 389.5, 77.0, 22.0 ],
					"style" : "default",
					"text" : "tap.module~"
				}

			}
, 			{
				"box" : 				{
					"format" : 6,
					"id" : "obj-44",
					"maxclass" : "flonum",
					"maximum" : 1.0,
					"minimum" : 0.0,
					"numinlets" : 1,
					"numoutlets" : 2,
					"outlettype" : [ "", "bang" ],
					"parameter_enable" : 0,
					"patching_rect" : [ 151.0, 334.0, 44.0, 22.0 ],
					"style" : "default"
				}

			}
, 			{
				"box" : 				{
					"format" : 6,
					"id" : "obj-43",
					"maxclass" : "flonum",
					"numinlets" : 1,
					"numoutlets" : 2,
					"outlettype" : [ "", "bang" ],
					"parameter_enable" : 0,
					"patching_rect" : [ 132.0, 306.0, 50.0, 22.0 ],
					"style" : "default"
				}

			}
, 			{
				"box" : 				{
					"format" : 6,
					"id" : "obj-34",
					"maxclass" : "flonum",
					"numinlets" : 1,
					"numoutlets" : 2,
					"outlettype" : [ "", "bang" ],
					"parameter_enable" : 0,
					"patching_rect" : [ 404.0, 236.0, 53.0, 22.0 ],
					"style" : "default"
				}

			}
, 			{
				"box" : 				{
					"format" : 6,
					"id" : "obj-33",
					"maxclass" : "flonum",
					"numinlets" : 1,
					"numoutlets" : 2,
					"outlettype" : [ "", "bang" ],
					"parameter_enable" : 0,
					"patching_rect" : [ 288.0, 236.0, 50.0, 22.0 ],
					"style" : "default"
				}

			}
 ],
		"lines" : [ 			{
				"patchline" : 				{
					"destination" : [ "obj-32", 0 ],
					"order" : 0,
					"source" : [ "obj-10", 0 ]
				}

			}
, 			{
				"patchline" : 				{
					"destination" : [ "obj-70", 0 ],
					"order" : 1,
					"source" : [ "obj-10", 0 ]
				}

			}
, 			{
				"patchline" : 				{
					"destination" : [ "obj-49", 0 ],
					"midpoints" : [ 180.5, 295.25, 122.0, 295.25 ],
					"source" : [ "obj-32", 0 ]
				}

			}
, 			{
				"patchline" : 				{
					"destination" : [ "obj-54", 0 ],
					"midpoints" : [ 297.0, 294.0, 253.0, 294.0 ],
					"source" : [ "obj-32", 1 ]
				}

			}
, 			{
				"patchline" : 				{
					"destination" : [ "obj-63", 0 ],
					"midpoints" : [ 413.5, 291.0, 384.0, 291.0 ],
					"source" : [ "obj-32", 2 ]
				}

			}
, 			{
				"patchline" : 				{
					"destination" : [ "obj-32", 1 ],
					"midpoints" : [ 297.5, 256.5, 297.0, 256.5 ],
					"source" : [ "obj-33", 0 ]
				}

			}
, 			{
				"patchline" : 				{
					"destination" : [ "obj-32", 2 ],
					"midpoints" : [ 413.5, 256.5, 413.5, 256.5 ],
					"source" : [ "obj-34", 0 ]
				}

			}
, 			{
				"patchline" : 				{
					"destination" : [ "obj-49", 3 ],
					"source" : [ "obj-38", 0 ]
				}

			}
, 			{
				"patchline" : 				{
					"destination" : [ "obj-49", 1 ],
					"source" : [ "obj-43", 0 ]
				}

			}
, 			{
				"patchline" : 				{
					"destination" : [ "obj-49", 2 ],
					"source" : [ "obj-44", 0 ]
				}

			}
, 			{
				"patchline" : 				{
					"destination" : [ "obj-45", 0 ],
					"source" : [ "obj-49", 0 ]
				}

			}
, 			{
				"patchline" : 				{
					"destination" : [ "obj-46", 0 ],
					"source" : [ "obj-49", 1 ]
				}

			}
, 			{
				"patchline" : 				{
					"destination" : [ "obj-54", 3 ],
					"source" : [ "obj-53", 0 ]
				}

			}
, 			{
				"patchline" : 				{
					"destination" : [ "obj-47", 0 ],
					"source" : [ "obj-54", 1 ]
				}

			}
, 			{
				"patchline" : 				{
					"destination" : [ "obj-48", 0 ],
					"source" : [ "obj-54", 0 ]
				}

			}
, 			{
				"patchline" : 				{
					"destination" : [ "obj-54", 2 ],
					"source" : [ "obj-55", 0 ]
				}

			}
, 			{
				"patchline" : 				{
					"destination" : [ "obj-54", 1 ],
					"source" : [ "obj-56", 0 ]
				}

			}
, 			{
				"patchline" : 				{
					"destination" : [ "obj-63", 3 ],
					"source" : [ "obj-62", 0 ]
				}

			}
, 			{
				"patchline" : 				{
					"destination" : [ "obj-57", 0 ],
					"source" : [ "obj-63", 1 ]
				}

			}
, 			{
				"patchline" : 				{
					"destination" : [ "obj-58", 0 ],
					"source" : [ "obj-63", 0 ]
				}

			}
, 			{
				"patchline" : 				{
					"destination" : [ "obj-63", 2 ],
					"source" : [ "obj-64", 0 ]
				}

			}
, 			{
				"patchline" : 				{
					"destination" : [ "obj-63", 1 ],
					"source" : [ "obj-65", 0 ]
				}

			}
, 			{
				"patchline" : 				{
					"destination" : [ "obj-6", 0 ],
					"source" : [ "obj-66", 0 ]
				}

			}
, 			{
				"patchline" : 				{
					"destination" : [ "obj-4", 0 ],
					"source" : [ "obj-67", 0 ]
				}

			}
, 			{
				"patchline" : 				{
					"destination" : [ "obj-1", 0 ],
					"source" : [ "obj-7", 0 ]
				}

			}
, 			{
				"patchline" : 				{
					"destination" : [ "obj-71", 0 ],
					"source" : [ "obj-70", 1 ]
				}

			}
, 			{
				"patchline" : 				{
					"destination" : [ "obj-72", 0 ],
					"source" : [ "obj-70", 0 ]
				}

			}
, 			{
				"patchline" : 				{
					"destination" : [ "obj-70", 1 ],
					"source" : [ "obj-74", 0 ]
				}

			}
, 			{
				"patchline" : 				{
					"destination" : [ "obj-1", 0 ],
					"hidden" : 1,
					"source" : [ "obj-75", 0 ]
				}

			}
 ]
	}

}
