{
	"patcher" : 	{
		"fileversion" : 1,
		"rect" : [ 363.0, 169.0, 640.0, 506.0 ],
		"bglocked" : 0,
		"defrect" : [ 363.0, 169.0, 640.0, 506.0 ],
		"openrect" : [ 0.0, 0.0, 0.0, 0.0 ],
		"openinpresentation" : 0,
		"default_fontsize" : 12.0,
		"default_fontface" : 0,
		"default_fontname" : "Arial",
		"gridonopen" : 0,
		"gridsize" : [ 16.0, 16.0 ],
		"gridsnaponopen" : 0,
		"toolbarvisible" : 1,
		"boxanimatetime" : 200,
		"imprint" : 0,
		"metadata" : [  ],
		"boxes" : [ 			{
				"box" : 				{
					"maxclass" : "ezdac~",
					"numoutlets" : 0,
					"id" : "obj-32",
					"patching_rect" : [ 602.0, 468.0, 32.0, 32.0 ],
					"numinlets" : 2
				}

			}
, 			{
				"box" : 				{
					"maxclass" : "comment",
					"text" : "scaling",
					"fontname" : "Arial",
					"numoutlets" : 0,
					"frgb" : [ 0.0, 0.0, 0.0, 1.0 ],
					"fontsize" : 12.0,
					"id" : "obj-20",
					"patching_rect" : [ 137.0, 96.0, 75.0, 20.0 ],
					"numinlets" : 1
				}

			}
, 			{
				"box" : 				{
					"maxclass" : "flonum",
					"fontname" : "Arial",
					"numoutlets" : 2,
					"outlettype" : [ "float", "bang" ],
					"fontsize" : 12.0,
					"id" : "obj-21",
					"patching_rect" : [ 87.0, 96.0, 50.0, 20.0 ],
					"numinlets" : 1
				}

			}
, 			{
				"box" : 				{
					"maxclass" : "comment",
					"text" : "invert",
					"fontname" : "Arial",
					"numoutlets" : 0,
					"frgb" : [ 0.0, 0.0, 0.0, 1.0 ],
					"fontsize" : 12.0,
					"id" : "obj-22",
					"patching_rect" : [ 152.0, 145.0, 75.0, 20.0 ],
					"numinlets" : 1
				}

			}
, 			{
				"box" : 				{
					"maxclass" : "toggle",
					"numoutlets" : 1,
					"outlettype" : [ "int" ],
					"id" : "obj-23",
					"patching_rect" : [ 132.0, 145.0, 20.0, 20.0 ],
					"numinlets" : 1
				}

			}
, 			{
				"box" : 				{
					"maxclass" : "comment",
					"text" : "sine / ramp",
					"fontname" : "Arial",
					"numoutlets" : 0,
					"frgb" : [ 0.0, 0.0, 0.0, 1.0 ],
					"fontsize" : 12.0,
					"id" : "obj-24",
					"patching_rect" : [ 129.0, 120.0, 75.0, 20.0 ],
					"numinlets" : 1
				}

			}
, 			{
				"box" : 				{
					"maxclass" : "toggle",
					"numoutlets" : 1,
					"outlettype" : [ "int" ],
					"id" : "obj-25",
					"patching_rect" : [ 109.0, 120.0, 20.0, 20.0 ],
					"numinlets" : 1
				}

			}
, 			{
				"box" : 				{
					"maxclass" : "newobj",
					"text" : "p wave_select",
					"fontname" : "Arial",
					"numoutlets" : 2,
					"outlettype" : [ "signal", "bang" ],
					"fontsize" : 12.0,
					"id" : "obj-26",
					"patching_rect" : [ 64.0, 176.0, 87.0, 20.0 ],
					"numinlets" : 4,
					"patcher" : 					{
						"fileversion" : 1,
						"rect" : [ 136.0, 129.0, 661.0, 515.0 ],
						"bglocked" : 0,
						"defrect" : [ 136.0, 129.0, 661.0, 515.0 ],
						"openrect" : [ 0.0, 0.0, 0.0, 0.0 ],
						"openinpresentation" : 0,
						"default_fontsize" : 12.0,
						"default_fontface" : 0,
						"default_fontname" : "Arial",
						"gridonopen" : 0,
						"gridsize" : [ 16.0, 16.0 ],
						"gridsnaponopen" : 0,
						"toolbarvisible" : 1,
						"boxanimatetime" : 200,
						"imprint" : 0,
						"metadata" : [  ],
						"boxes" : [ 							{
								"box" : 								{
									"maxclass" : "comment",
									"text" : "< invert the waveform",
									"fontname" : "Arial",
									"numoutlets" : 0,
									"frgb" : [ 0.0, 0.0, 0.0, 1.0 ],
									"fontsize" : 12.0,
									"id" : "obj-12",
									"patching_rect" : [ 337.0, 291.0, 143.0, 20.0 ],
									"numinlets" : 1
								}

							}
, 							{
								"box" : 								{
									"maxclass" : "newobj",
									"text" : "*~ -1.",
									"fontname" : "Arial",
									"numoutlets" : 1,
									"outlettype" : [ "signal" ],
									"fontsize" : 12.0,
									"id" : "obj-14",
									"patching_rect" : [ 286.0, 291.0, 40.0, 20.0 ],
									"numinlets" : 2
								}

							}
, 							{
								"box" : 								{
									"maxclass" : "newobj",
									"text" : "+ 1",
									"fontname" : "Arial",
									"numoutlets" : 1,
									"outlettype" : [ "int" ],
									"fontsize" : 12.0,
									"id" : "obj-15",
									"patching_rect" : [ 191.0, 291.0, 32.5, 20.0 ],
									"numinlets" : 2
								}

							}
, 							{
								"box" : 								{
									"maxclass" : "newobj",
									"text" : "selector~ 2 1",
									"fontname" : "Arial",
									"numoutlets" : 1,
									"outlettype" : [ "signal" ],
									"fontsize" : 12.0,
									"id" : "obj-16",
									"patching_rect" : [ 191.0, 323.0, 114.0, 20.0 ],
									"numinlets" : 3
								}

							}
, 							{
								"box" : 								{
									"maxclass" : "message",
									"text" : "sync lock",
									"fontname" : "Arial",
									"numoutlets" : 1,
									"outlettype" : [ "" ],
									"fontsize" : 12.0,
									"id" : "obj-13",
									"patching_rect" : [ 102.0, 76.0, 60.0, 18.0 ],
									"numinlets" : 2
								}

							}
, 							{
								"box" : 								{
									"maxclass" : "newobj",
									"text" : "loadbang",
									"fontname" : "Arial",
									"numoutlets" : 1,
									"outlettype" : [ "bang" ],
									"fontsize" : 12.0,
									"id" : "obj-4",
									"patching_rect" : [ 102.0, 48.0, 60.0, 20.0 ],
									"numinlets" : 1
								}

							}
, 							{
								"box" : 								{
									"maxclass" : "comment",
									"text" : "< work with the regular (1) or inverted (2) waveform",
									"linecount" : 2,
									"fontname" : "Arial",
									"numoutlets" : 0,
									"frgb" : [ 0.0, 0.0, 0.0, 1.0 ],
									"fontsize" : 12.0,
									"id" : "obj-11",
									"patching_rect" : [ 487.0, 54.0, 153.0, 34.0 ],
									"numinlets" : 1
								}

							}
, 							{
								"box" : 								{
									"maxclass" : "comment",
									"text" : "< choose a sinusoid (1) or\nramp (2) output",
									"linecount" : 2,
									"fontname" : "Arial",
									"numoutlets" : 0,
									"frgb" : [ 0.0, 0.0, 0.0, 1.0 ],
									"fontsize" : 12.0,
									"id" : "obj-10",
									"patching_rect" : [ 272.0, 54.0, 153.0, 34.0 ],
									"numinlets" : 1
								}

							}
, 							{
								"box" : 								{
									"maxclass" : "comment",
									"text" : "< convert a 0. - 1.0 ramp\nto a -1 - 1. ramp",
									"linecount" : 2,
									"fontname" : "Arial",
									"numoutlets" : 0,
									"frgb" : [ 0.0, 0.0, 0.0, 1.0 ],
									"fontsize" : 12.0,
									"id" : "obj-7",
									"patching_rect" : [ 376.0, 186.0, 143.0, 34.0 ],
									"numinlets" : 1
								}

							}
, 							{
								"box" : 								{
									"maxclass" : "comment",
									"text" : "< trigger at waveform start",
									"fontname" : "Arial",
									"numoutlets" : 0,
									"frgb" : [ 0.0, 0.0, 0.0, 1.0 ],
									"fontsize" : 12.0,
									"id" : "obj-6",
									"patching_rect" : [ 313.0, 399.0, 158.0, 20.0 ],
									"numinlets" : 1
								}

							}
, 							{
								"box" : 								{
									"maxclass" : "comment",
									"text" : "<this rate~ object lets you scale the phasor~ output",
									"linecount" : 2,
									"fontname" : "Arial",
									"numoutlets" : 0,
									"frgb" : [ 0.0, 0.0, 0.0, 1.0 ],
									"fontsize" : 12.0,
									"id" : "obj-5",
									"patching_rect" : [ 96.0, 101.0, 149.0, 34.0 ],
									"numinlets" : 1
								}

							}
, 							{
								"box" : 								{
									"maxclass" : "newobj",
									"text" : "-~ 1.",
									"fontname" : "Arial",
									"numoutlets" : 1,
									"outlettype" : [ "signal" ],
									"fontsize" : 12.0,
									"id" : "obj-39",
									"patching_rect" : [ 335.0, 214.0, 35.0, 20.0 ],
									"numinlets" : 2
								}

							}
, 							{
								"box" : 								{
									"maxclass" : "newobj",
									"text" : "*~ 2.",
									"fontname" : "Arial",
									"numoutlets" : 1,
									"outlettype" : [ "signal" ],
									"fontsize" : 12.0,
									"id" : "obj-38",
									"patching_rect" : [ 335.0, 186.0, 36.0, 20.0 ],
									"numinlets" : 2
								}

							}
, 							{
								"box" : 								{
									"maxclass" : "newobj",
									"text" : "+ 1",
									"fontname" : "Arial",
									"numoutlets" : 1,
									"outlettype" : [ "int" ],
									"fontsize" : 12.0,
									"id" : "obj-29",
									"patching_rect" : [ 240.0, 220.0, 32.5, 20.0 ],
									"numinlets" : 2
								}

							}
, 							{
								"box" : 								{
									"maxclass" : "newobj",
									"text" : "selector~ 2 1",
									"fontname" : "Arial",
									"numoutlets" : 1,
									"outlettype" : [ "signal" ],
									"fontsize" : 12.0,
									"id" : "obj-24",
									"patching_rect" : [ 240.0, 252.0, 114.0, 20.0 ],
									"numinlets" : 3
								}

							}
, 							{
								"box" : 								{
									"maxclass" : "newobj",
									"text" : ">=~ 0.5",
									"fontname" : "Arial",
									"numoutlets" : 1,
									"outlettype" : [ "signal" ],
									"fontsize" : 11.595187,
									"id" : "obj-63",
									"patching_rect" : [ 257.0, 371.0, 50.0, 20.0 ],
									"numinlets" : 2
								}

							}
, 							{
								"box" : 								{
									"maxclass" : "newobj",
									"text" : "edge~",
									"fontname" : "Arial",
									"numoutlets" : 2,
									"outlettype" : [ "bang", "bang" ],
									"fontsize" : 11.595187,
									"id" : "obj-64",
									"patching_rect" : [ 257.0, 398.0, 50.0, 20.0 ],
									"numinlets" : 1
								}

							}
, 							{
								"box" : 								{
									"maxclass" : "newobj",
									"text" : "rate~ 1.",
									"fontname" : "Arial",
									"numoutlets" : 1,
									"outlettype" : [ "signal" ],
									"fontsize" : 12.0,
									"id" : "obj-19",
									"patching_rect" : [ 32.0, 101.0, 52.0, 20.0 ],
									"numinlets" : 2
								}

							}
, 							{
								"box" : 								{
									"maxclass" : "newobj",
									"text" : "cos~",
									"fontname" : "Arial",
									"numoutlets" : 1,
									"outlettype" : [ "signal" ],
									"fontsize" : 12.0,
									"id" : "obj-22",
									"patching_rect" : [ 288.0, 186.0, 37.0, 20.0 ],
									"numinlets" : 1
								}

							}
, 							{
								"box" : 								{
									"maxclass" : "inlet",
									"numoutlets" : 1,
									"outlettype" : [ "signal" ],
									"id" : "obj-93",
									"patching_rect" : [ 32.0, 53.0, 25.0, 25.0 ],
									"numinlets" : 0,
									"comment" : "waveform in"
								}

							}
, 							{
								"box" : 								{
									"maxclass" : "inlet",
									"numoutlets" : 1,
									"outlettype" : [ "float" ],
									"id" : "obj-94",
									"patching_rect" : [ 64.0, 53.0, 25.0, 25.0 ],
									"numinlets" : 0,
									"comment" : "rate~ input to scale the waveform (float)"
								}

							}
, 							{
								"box" : 								{
									"maxclass" : "inlet",
									"numoutlets" : 1,
									"outlettype" : [ "int" ],
									"id" : "obj-95",
									"patching_rect" : [ 240.0, 53.0, 25.0, 25.0 ],
									"numinlets" : 0,
									"comment" : "waveform select (off = sine, on = ramp)"
								}

							}
, 							{
								"box" : 								{
									"maxclass" : "inlet",
									"numoutlets" : 1,
									"outlettype" : [ "int" ],
									"id" : "obj-96",
									"patching_rect" : [ 452.0, 53.0, 25.0, 25.0 ],
									"numinlets" : 0,
									"comment" : "invert input (off = no, on = yes)"
								}

							}
, 							{
								"box" : 								{
									"maxclass" : "outlet",
									"numoutlets" : 0,
									"id" : "obj-97",
									"patching_rect" : [ 288.0, 458.0, 25.0, 25.0 ],
									"numinlets" : 1,
									"comment" : "trigger output"
								}

							}
, 							{
								"box" : 								{
									"maxclass" : "outlet",
									"numoutlets" : 0,
									"id" : "obj-98",
									"patching_rect" : [ 191.0, 458.0, 25.0, 25.0 ],
									"numinlets" : 1,
									"comment" : "waveform outlet to be sampled"
								}

							}
 ],
						"lines" : [ 							{
								"patchline" : 								{
									"source" : [ "obj-13", 0 ],
									"destination" : [ "obj-19", 0 ],
									"hidden" : 0,
									"midpoints" : [  ]
								}

							}
, 							{
								"patchline" : 								{
									"source" : [ "obj-4", 0 ],
									"destination" : [ "obj-13", 0 ],
									"hidden" : 0,
									"midpoints" : [  ]
								}

							}
, 							{
								"patchline" : 								{
									"source" : [ "obj-29", 0 ],
									"destination" : [ "obj-24", 0 ],
									"hidden" : 0,
									"midpoints" : [  ]
								}

							}
, 							{
								"patchline" : 								{
									"source" : [ "obj-64", 1 ],
									"destination" : [ "obj-97", 0 ],
									"hidden" : 0,
									"midpoints" : [  ]
								}

							}
, 							{
								"patchline" : 								{
									"source" : [ "obj-94", 0 ],
									"destination" : [ "obj-19", 1 ],
									"hidden" : 0,
									"midpoints" : [  ]
								}

							}
, 							{
								"patchline" : 								{
									"source" : [ "obj-93", 0 ],
									"destination" : [ "obj-19", 0 ],
									"hidden" : 0,
									"midpoints" : [  ]
								}

							}
, 							{
								"patchline" : 								{
									"source" : [ "obj-19", 0 ],
									"destination" : [ "obj-38", 0 ],
									"hidden" : 0,
									"midpoints" : [ 41.5, 154.0, 344.5, 154.0 ]
								}

							}
, 							{
								"patchline" : 								{
									"source" : [ "obj-38", 0 ],
									"destination" : [ "obj-39", 0 ],
									"hidden" : 0,
									"midpoints" : [  ]
								}

							}
, 							{
								"patchline" : 								{
									"source" : [ "obj-63", 0 ],
									"destination" : [ "obj-64", 0 ],
									"hidden" : 0,
									"midpoints" : [  ]
								}

							}
, 							{
								"patchline" : 								{
									"source" : [ "obj-19", 0 ],
									"destination" : [ "obj-22", 0 ],
									"hidden" : 0,
									"midpoints" : [ 41.5, 154.0, 297.5, 154.0 ]
								}

							}
, 							{
								"patchline" : 								{
									"source" : [ "obj-22", 0 ],
									"destination" : [ "obj-24", 1 ],
									"hidden" : 0,
									"midpoints" : [  ]
								}

							}
, 							{
								"patchline" : 								{
									"source" : [ "obj-39", 0 ],
									"destination" : [ "obj-24", 2 ],
									"hidden" : 0,
									"midpoints" : [  ]
								}

							}
, 							{
								"patchline" : 								{
									"source" : [ "obj-14", 0 ],
									"destination" : [ "obj-16", 2 ],
									"hidden" : 0,
									"midpoints" : [  ]
								}

							}
, 							{
								"patchline" : 								{
									"source" : [ "obj-15", 0 ],
									"destination" : [ "obj-16", 0 ],
									"hidden" : 0,
									"midpoints" : [  ]
								}

							}
, 							{
								"patchline" : 								{
									"source" : [ "obj-96", 0 ],
									"destination" : [ "obj-15", 0 ],
									"hidden" : 0,
									"midpoints" : [ 461.5, 170.0, 200.5, 170.0 ]
								}

							}
, 							{
								"patchline" : 								{
									"source" : [ "obj-95", 0 ],
									"destination" : [ "obj-29", 0 ],
									"hidden" : 0,
									"midpoints" : [  ]
								}

							}
, 							{
								"patchline" : 								{
									"source" : [ "obj-24", 0 ],
									"destination" : [ "obj-16", 1 ],
									"hidden" : 0,
									"midpoints" : [  ]
								}

							}
, 							{
								"patchline" : 								{
									"source" : [ "obj-24", 0 ],
									"destination" : [ "obj-14", 0 ],
									"hidden" : 0,
									"midpoints" : [  ]
								}

							}
, 							{
								"patchline" : 								{
									"source" : [ "obj-16", 0 ],
									"destination" : [ "obj-63", 0 ],
									"hidden" : 0,
									"midpoints" : [ 200.5, 350.0, 266.5, 350.0 ]
								}

							}
, 							{
								"patchline" : 								{
									"source" : [ "obj-16", 0 ],
									"destination" : [ "obj-98", 0 ],
									"hidden" : 0,
									"midpoints" : [  ]
								}

							}
 ]
					}
,
					"saved_object_attributes" : 					{
						"fontname" : "Arial",
						"default_fontface" : 0,
						"fontface" : 0,
						"default_fontname" : "Arial",
						"fontsize" : 12.0,
						"default_fontsize" : 12.0,
						"globalpatchername" : ""
					}

				}

			}
, 			{
				"box" : 				{
					"maxclass" : "button",
					"hint" : "Trigger B - add an [r bangB] object for this trigger",
					"numoutlets" : 1,
					"blinkcolor" : [ 0.360784, 0.360784, 0.360784, 1.0 ],
					"outlettype" : [ "bang" ],
					"id" : "obj-27",
					"bgcolor" : [ 1.0, 1.0, 1.0, 1.0 ],
					"outlinecolor" : [ 0.0, 0.0, 0.0, 1.0 ],
					"patching_rect" : [ 166.0, 176.0, 20.0, 20.0 ],
					"numinlets" : 1
				}

			}
, 			{
				"box" : 				{
					"maxclass" : "scope~",
					"fgcolor" : [ 1.0, 1.0, 1.0, 1.0 ],
					"numoutlets" : 0,
					"bordercolor" : [ 0.360784, 0.360784, 0.360784, 1.0 ],
					"id" : "obj-19",
					"bgcolor" : [ 0.0, 0.0, 0.0, 1.0 ],
					"gridcolor" : [ 0.360784, 0.360784, 0.360784, 1.0 ],
					"patching_rect" : [ 383.0, 320.0, 130.0, 130.0 ],
					"numinlets" : 2
				}

			}
, 			{
				"box" : 				{
					"maxclass" : "scope~",
					"fgcolor" : [ 1.0, 1.0, 1.0, 1.0 ],
					"numoutlets" : 0,
					"bordercolor" : [ 0.360784, 0.360784, 0.360784, 1.0 ],
					"id" : "obj-18",
					"bgcolor" : [ 0.0, 0.0, 0.0, 1.0 ],
					"gridcolor" : [ 0.360784, 0.360784, 0.360784, 1.0 ],
					"patching_rect" : [ 223.0, 320.0, 130.0, 130.0 ],
					"numinlets" : 2
				}

			}
, 			{
				"box" : 				{
					"maxclass" : "scope~",
					"fgcolor" : [ 1.0, 1.0, 1.0, 1.0 ],
					"numoutlets" : 0,
					"bordercolor" : [ 0.360784, 0.360784, 0.360784, 1.0 ],
					"id" : "obj-17",
					"bgcolor" : [ 0.0, 0.0, 0.0, 1.0 ],
					"gridcolor" : [ 0.360784, 0.360784, 0.360784, 1.0 ],
					"patching_rect" : [ 63.0, 320.0, 130.0, 130.0 ],
					"numinlets" : 2
				}

			}
, 			{
				"box" : 				{
					"maxclass" : "newobj",
					"text" : "+~ 0.",
					"fontname" : "Arial",
					"numoutlets" : 1,
					"outlettype" : [ "signal" ],
					"fontsize" : 12.0,
					"id" : "obj-12",
					"patching_rect" : [ 383.0, 281.0, 38.0, 20.0 ],
					"numinlets" : 2
				}

			}
, 			{
				"box" : 				{
					"maxclass" : "newobj",
					"text" : "*~ 0.5",
					"fontname" : "Arial",
					"numoutlets" : 1,
					"outlettype" : [ "signal" ],
					"fontsize" : 12.0,
					"id" : "obj-15",
					"patching_rect" : [ 431.0, 240.0, 42.0, 20.0 ],
					"numinlets" : 2
				}

			}
, 			{
				"box" : 				{
					"maxclass" : "newobj",
					"text" : "*~ 0.5",
					"fontname" : "Arial",
					"numoutlets" : 1,
					"outlettype" : [ "signal" ],
					"fontsize" : 12.0,
					"id" : "obj-16",
					"patching_rect" : [ 383.0, 240.0, 42.0, 20.0 ],
					"numinlets" : 2
				}

			}
, 			{
				"box" : 				{
					"maxclass" : "comment",
					"text" : "scaling",
					"fontname" : "Arial",
					"numoutlets" : 0,
					"frgb" : [ 0.0, 0.0, 0.0, 1.0 ],
					"fontsize" : 12.0,
					"id" : "obj-14",
					"patching_rect" : [ 376.0, 92.0, 75.0, 20.0 ],
					"numinlets" : 1
				}

			}
, 			{
				"box" : 				{
					"maxclass" : "flonum",
					"fontname" : "Arial",
					"numoutlets" : 2,
					"outlettype" : [ "float", "bang" ],
					"fontsize" : 12.0,
					"id" : "obj-11",
					"patching_rect" : [ 326.0, 92.0, 50.0, 20.0 ],
					"numinlets" : 1
				}

			}
, 			{
				"box" : 				{
					"maxclass" : "comment",
					"text" : "invert",
					"fontname" : "Arial",
					"numoutlets" : 0,
					"frgb" : [ 0.0, 0.0, 0.0, 1.0 ],
					"fontsize" : 12.0,
					"id" : "obj-8",
					"patching_rect" : [ 391.0, 141.0, 75.0, 20.0 ],
					"numinlets" : 1
				}

			}
, 			{
				"box" : 				{
					"maxclass" : "toggle",
					"numoutlets" : 1,
					"outlettype" : [ "int" ],
					"id" : "obj-9",
					"patching_rect" : [ 371.0, 141.0, 20.0, 20.0 ],
					"numinlets" : 1
				}

			}
, 			{
				"box" : 				{
					"maxclass" : "comment",
					"text" : "sine / ramp",
					"fontname" : "Arial",
					"numoutlets" : 0,
					"frgb" : [ 0.0, 0.0, 0.0, 1.0 ],
					"fontsize" : 12.0,
					"id" : "obj-7",
					"patching_rect" : [ 368.0, 116.0, 75.0, 20.0 ],
					"numinlets" : 1
				}

			}
, 			{
				"box" : 				{
					"maxclass" : "toggle",
					"numoutlets" : 1,
					"outlettype" : [ "int" ],
					"id" : "obj-2",
					"patching_rect" : [ 348.0, 116.0, 20.0, 20.0 ],
					"numinlets" : 1
				}

			}
, 			{
				"box" : 				{
					"maxclass" : "newobj",
					"text" : "phasor~ 1nd @lock 1",
					"fontname" : "Arial",
					"numoutlets" : 1,
					"outlettype" : [ "signal" ],
					"fontsize" : 12.0,
					"id" : "obj-5",
					"patching_rect" : [ 303.0, 66.0, 135.0, 20.0 ],
					"numinlets" : 2
				}

			}
, 			{
				"box" : 				{
					"maxclass" : "newobj",
					"text" : "phasor~ 1nd @lock 1",
					"fontname" : "Arial",
					"numoutlets" : 1,
					"outlettype" : [ "signal" ],
					"fontsize" : 12.0,
					"id" : "obj-35",
					"patching_rect" : [ 64.0, 64.0, 135.0, 20.0 ],
					"numinlets" : 2
				}

			}
, 			{
				"box" : 				{
					"maxclass" : "newobj",
					"text" : "p wave_select",
					"fontname" : "Arial",
					"numoutlets" : 2,
					"outlettype" : [ "signal", "bang" ],
					"fontsize" : 12.0,
					"id" : "obj-106",
					"patching_rect" : [ 303.0, 176.0, 87.0, 20.0 ],
					"numinlets" : 4,
					"patcher" : 					{
						"fileversion" : 1,
						"rect" : [ 136.0, 129.0, 661.0, 515.0 ],
						"bglocked" : 0,
						"defrect" : [ 136.0, 129.0, 661.0, 515.0 ],
						"openrect" : [ 0.0, 0.0, 0.0, 0.0 ],
						"openinpresentation" : 0,
						"default_fontsize" : 12.0,
						"default_fontface" : 0,
						"default_fontname" : "Arial",
						"gridonopen" : 0,
						"gridsize" : [ 16.0, 16.0 ],
						"gridsnaponopen" : 0,
						"toolbarvisible" : 1,
						"boxanimatetime" : 200,
						"imprint" : 0,
						"metadata" : [  ],
						"boxes" : [ 							{
								"box" : 								{
									"maxclass" : "comment",
									"text" : "< invert the waveform",
									"fontname" : "Arial",
									"numoutlets" : 0,
									"frgb" : [ 0.0, 0.0, 0.0, 1.0 ],
									"fontsize" : 12.0,
									"id" : "obj-12",
									"patching_rect" : [ 337.0, 291.0, 143.0, 20.0 ],
									"numinlets" : 1
								}

							}
, 							{
								"box" : 								{
									"maxclass" : "newobj",
									"text" : "*~ -1.",
									"fontname" : "Arial",
									"numoutlets" : 1,
									"outlettype" : [ "signal" ],
									"fontsize" : 12.0,
									"id" : "obj-14",
									"patching_rect" : [ 286.0, 291.0, 40.0, 20.0 ],
									"numinlets" : 2
								}

							}
, 							{
								"box" : 								{
									"maxclass" : "newobj",
									"text" : "+ 1",
									"fontname" : "Arial",
									"numoutlets" : 1,
									"outlettype" : [ "int" ],
									"fontsize" : 12.0,
									"id" : "obj-15",
									"patching_rect" : [ 191.0, 291.0, 32.5, 20.0 ],
									"numinlets" : 2
								}

							}
, 							{
								"box" : 								{
									"maxclass" : "newobj",
									"text" : "selector~ 2 1",
									"fontname" : "Arial",
									"numoutlets" : 1,
									"outlettype" : [ "signal" ],
									"fontsize" : 12.0,
									"id" : "obj-16",
									"patching_rect" : [ 191.0, 323.0, 114.0, 20.0 ],
									"numinlets" : 3
								}

							}
, 							{
								"box" : 								{
									"maxclass" : "message",
									"text" : "sync lock",
									"fontname" : "Arial",
									"numoutlets" : 1,
									"outlettype" : [ "" ],
									"fontsize" : 12.0,
									"id" : "obj-13",
									"patching_rect" : [ 102.0, 76.0, 60.0, 18.0 ],
									"numinlets" : 2
								}

							}
, 							{
								"box" : 								{
									"maxclass" : "newobj",
									"text" : "loadbang",
									"fontname" : "Arial",
									"numoutlets" : 1,
									"outlettype" : [ "bang" ],
									"fontsize" : 12.0,
									"id" : "obj-4",
									"patching_rect" : [ 102.0, 48.0, 60.0, 20.0 ],
									"numinlets" : 1
								}

							}
, 							{
								"box" : 								{
									"maxclass" : "comment",
									"text" : "< work with the regular (1) or inverted (2) waveform",
									"linecount" : 2,
									"fontname" : "Arial",
									"numoutlets" : 0,
									"frgb" : [ 0.0, 0.0, 0.0, 1.0 ],
									"fontsize" : 12.0,
									"id" : "obj-11",
									"patching_rect" : [ 487.0, 54.0, 153.0, 34.0 ],
									"numinlets" : 1
								}

							}
, 							{
								"box" : 								{
									"maxclass" : "comment",
									"text" : "< choose a sinusoid (1) or\nramp (2) output",
									"linecount" : 2,
									"fontname" : "Arial",
									"numoutlets" : 0,
									"frgb" : [ 0.0, 0.0, 0.0, 1.0 ],
									"fontsize" : 12.0,
									"id" : "obj-10",
									"patching_rect" : [ 272.0, 54.0, 153.0, 34.0 ],
									"numinlets" : 1
								}

							}
, 							{
								"box" : 								{
									"maxclass" : "comment",
									"text" : "< convert a 0. - 1.0 ramp\nto a -1 - 1. ramp",
									"linecount" : 2,
									"fontname" : "Arial",
									"numoutlets" : 0,
									"frgb" : [ 0.0, 0.0, 0.0, 1.0 ],
									"fontsize" : 12.0,
									"id" : "obj-7",
									"patching_rect" : [ 376.0, 186.0, 143.0, 34.0 ],
									"numinlets" : 1
								}

							}
, 							{
								"box" : 								{
									"maxclass" : "comment",
									"text" : "< trigger at waveform start",
									"fontname" : "Arial",
									"numoutlets" : 0,
									"frgb" : [ 0.0, 0.0, 0.0, 1.0 ],
									"fontsize" : 12.0,
									"id" : "obj-6",
									"patching_rect" : [ 313.0, 399.0, 158.0, 20.0 ],
									"numinlets" : 1
								}

							}
, 							{
								"box" : 								{
									"maxclass" : "comment",
									"text" : "<this rate~ object lets you scale the phasor~ output",
									"linecount" : 2,
									"fontname" : "Arial",
									"numoutlets" : 0,
									"frgb" : [ 0.0, 0.0, 0.0, 1.0 ],
									"fontsize" : 12.0,
									"id" : "obj-5",
									"patching_rect" : [ 96.0, 101.0, 149.0, 34.0 ],
									"numinlets" : 1
								}

							}
, 							{
								"box" : 								{
									"maxclass" : "newobj",
									"text" : "-~ 1.",
									"fontname" : "Arial",
									"numoutlets" : 1,
									"outlettype" : [ "signal" ],
									"fontsize" : 12.0,
									"id" : "obj-39",
									"patching_rect" : [ 335.0, 214.0, 35.0, 20.0 ],
									"numinlets" : 2
								}

							}
, 							{
								"box" : 								{
									"maxclass" : "newobj",
									"text" : "*~ 2.",
									"fontname" : "Arial",
									"numoutlets" : 1,
									"outlettype" : [ "signal" ],
									"fontsize" : 12.0,
									"id" : "obj-38",
									"patching_rect" : [ 335.0, 186.0, 36.0, 20.0 ],
									"numinlets" : 2
								}

							}
, 							{
								"box" : 								{
									"maxclass" : "newobj",
									"text" : "+ 1",
									"fontname" : "Arial",
									"numoutlets" : 1,
									"outlettype" : [ "int" ],
									"fontsize" : 12.0,
									"id" : "obj-29",
									"patching_rect" : [ 240.0, 220.0, 32.5, 20.0 ],
									"numinlets" : 2
								}

							}
, 							{
								"box" : 								{
									"maxclass" : "newobj",
									"text" : "selector~ 2 1",
									"fontname" : "Arial",
									"numoutlets" : 1,
									"outlettype" : [ "signal" ],
									"fontsize" : 12.0,
									"id" : "obj-24",
									"patching_rect" : [ 240.0, 252.0, 114.0, 20.0 ],
									"numinlets" : 3
								}

							}
, 							{
								"box" : 								{
									"maxclass" : "newobj",
									"text" : ">=~ 0.5",
									"fontname" : "Arial",
									"numoutlets" : 1,
									"outlettype" : [ "signal" ],
									"fontsize" : 11.595187,
									"id" : "obj-63",
									"patching_rect" : [ 257.0, 371.0, 50.0, 20.0 ],
									"numinlets" : 2
								}

							}
, 							{
								"box" : 								{
									"maxclass" : "newobj",
									"text" : "edge~",
									"fontname" : "Arial",
									"numoutlets" : 2,
									"outlettype" : [ "bang", "bang" ],
									"fontsize" : 11.595187,
									"id" : "obj-64",
									"patching_rect" : [ 257.0, 398.0, 50.0, 20.0 ],
									"numinlets" : 1
								}

							}
, 							{
								"box" : 								{
									"maxclass" : "newobj",
									"text" : "rate~ 1.",
									"fontname" : "Arial",
									"numoutlets" : 1,
									"outlettype" : [ "signal" ],
									"fontsize" : 12.0,
									"id" : "obj-19",
									"patching_rect" : [ 32.0, 101.0, 52.0, 20.0 ],
									"numinlets" : 2
								}

							}
, 							{
								"box" : 								{
									"maxclass" : "newobj",
									"text" : "cos~",
									"fontname" : "Arial",
									"numoutlets" : 1,
									"outlettype" : [ "signal" ],
									"fontsize" : 12.0,
									"id" : "obj-22",
									"patching_rect" : [ 288.0, 186.0, 37.0, 20.0 ],
									"numinlets" : 1
								}

							}
, 							{
								"box" : 								{
									"maxclass" : "inlet",
									"numoutlets" : 1,
									"outlettype" : [ "signal" ],
									"id" : "obj-93",
									"patching_rect" : [ 32.0, 53.0, 25.0, 25.0 ],
									"numinlets" : 0,
									"comment" : "waveform in"
								}

							}
, 							{
								"box" : 								{
									"maxclass" : "inlet",
									"numoutlets" : 1,
									"outlettype" : [ "float" ],
									"id" : "obj-94",
									"patching_rect" : [ 64.0, 53.0, 25.0, 25.0 ],
									"numinlets" : 0,
									"comment" : "rate~ input to scale the waveform (float)"
								}

							}
, 							{
								"box" : 								{
									"maxclass" : "inlet",
									"numoutlets" : 1,
									"outlettype" : [ "int" ],
									"id" : "obj-95",
									"patching_rect" : [ 240.0, 53.0, 25.0, 25.0 ],
									"numinlets" : 0,
									"comment" : "waveform select (off = sine, on = ramp)"
								}

							}
, 							{
								"box" : 								{
									"maxclass" : "inlet",
									"numoutlets" : 1,
									"outlettype" : [ "int" ],
									"id" : "obj-96",
									"patching_rect" : [ 452.0, 53.0, 25.0, 25.0 ],
									"numinlets" : 0,
									"comment" : "invert input (off = no, on = yes)"
								}

							}
, 							{
								"box" : 								{
									"maxclass" : "outlet",
									"numoutlets" : 0,
									"id" : "obj-97",
									"patching_rect" : [ 288.0, 458.0, 25.0, 25.0 ],
									"numinlets" : 1,
									"comment" : "trigger output"
								}

							}
, 							{
								"box" : 								{
									"maxclass" : "outlet",
									"numoutlets" : 0,
									"id" : "obj-98",
									"patching_rect" : [ 191.0, 458.0, 25.0, 25.0 ],
									"numinlets" : 1,
									"comment" : "waveform outlet to be sampled"
								}

							}
 ],
						"lines" : [ 							{
								"patchline" : 								{
									"source" : [ "obj-16", 0 ],
									"destination" : [ "obj-98", 0 ],
									"hidden" : 0,
									"midpoints" : [  ]
								}

							}
, 							{
								"patchline" : 								{
									"source" : [ "obj-16", 0 ],
									"destination" : [ "obj-63", 0 ],
									"hidden" : 0,
									"midpoints" : [ 200.5, 350.0, 266.5, 350.0 ]
								}

							}
, 							{
								"patchline" : 								{
									"source" : [ "obj-24", 0 ],
									"destination" : [ "obj-14", 0 ],
									"hidden" : 0,
									"midpoints" : [  ]
								}

							}
, 							{
								"patchline" : 								{
									"source" : [ "obj-24", 0 ],
									"destination" : [ "obj-16", 1 ],
									"hidden" : 0,
									"midpoints" : [  ]
								}

							}
, 							{
								"patchline" : 								{
									"source" : [ "obj-95", 0 ],
									"destination" : [ "obj-29", 0 ],
									"hidden" : 0,
									"midpoints" : [  ]
								}

							}
, 							{
								"patchline" : 								{
									"source" : [ "obj-96", 0 ],
									"destination" : [ "obj-15", 0 ],
									"hidden" : 0,
									"midpoints" : [ 461.5, 170.0, 200.5, 170.0 ]
								}

							}
, 							{
								"patchline" : 								{
									"source" : [ "obj-15", 0 ],
									"destination" : [ "obj-16", 0 ],
									"hidden" : 0,
									"midpoints" : [  ]
								}

							}
, 							{
								"patchline" : 								{
									"source" : [ "obj-14", 0 ],
									"destination" : [ "obj-16", 2 ],
									"hidden" : 0,
									"midpoints" : [  ]
								}

							}
, 							{
								"patchline" : 								{
									"source" : [ "obj-39", 0 ],
									"destination" : [ "obj-24", 2 ],
									"hidden" : 0,
									"midpoints" : [  ]
								}

							}
, 							{
								"patchline" : 								{
									"source" : [ "obj-22", 0 ],
									"destination" : [ "obj-24", 1 ],
									"hidden" : 0,
									"midpoints" : [  ]
								}

							}
, 							{
								"patchline" : 								{
									"source" : [ "obj-19", 0 ],
									"destination" : [ "obj-22", 0 ],
									"hidden" : 0,
									"midpoints" : [ 41.5, 154.0, 297.5, 154.0 ]
								}

							}
, 							{
								"patchline" : 								{
									"source" : [ "obj-63", 0 ],
									"destination" : [ "obj-64", 0 ],
									"hidden" : 0,
									"midpoints" : [  ]
								}

							}
, 							{
								"patchline" : 								{
									"source" : [ "obj-38", 0 ],
									"destination" : [ "obj-39", 0 ],
									"hidden" : 0,
									"midpoints" : [  ]
								}

							}
, 							{
								"patchline" : 								{
									"source" : [ "obj-19", 0 ],
									"destination" : [ "obj-38", 0 ],
									"hidden" : 0,
									"midpoints" : [ 41.5, 154.0, 344.5, 154.0 ]
								}

							}
, 							{
								"patchline" : 								{
									"source" : [ "obj-93", 0 ],
									"destination" : [ "obj-19", 0 ],
									"hidden" : 0,
									"midpoints" : [  ]
								}

							}
, 							{
								"patchline" : 								{
									"source" : [ "obj-94", 0 ],
									"destination" : [ "obj-19", 1 ],
									"hidden" : 0,
									"midpoints" : [  ]
								}

							}
, 							{
								"patchline" : 								{
									"source" : [ "obj-64", 1 ],
									"destination" : [ "obj-97", 0 ],
									"hidden" : 0,
									"midpoints" : [  ]
								}

							}
, 							{
								"patchline" : 								{
									"source" : [ "obj-29", 0 ],
									"destination" : [ "obj-24", 0 ],
									"hidden" : 0,
									"midpoints" : [  ]
								}

							}
, 							{
								"patchline" : 								{
									"source" : [ "obj-4", 0 ],
									"destination" : [ "obj-13", 0 ],
									"hidden" : 0,
									"midpoints" : [  ]
								}

							}
, 							{
								"patchline" : 								{
									"source" : [ "obj-13", 0 ],
									"destination" : [ "obj-19", 0 ],
									"hidden" : 0,
									"midpoints" : [  ]
								}

							}
 ]
					}
,
					"saved_object_attributes" : 					{
						"fontname" : "Arial",
						"default_fontface" : 0,
						"fontface" : 0,
						"default_fontname" : "Arial",
						"fontsize" : 12.0,
						"default_fontsize" : 12.0,
						"globalpatchername" : ""
					}

				}

			}
, 			{
				"box" : 				{
					"maxclass" : "button",
					"hint" : "Trigger B - add an [r bangB] object for this trigger",
					"numoutlets" : 1,
					"blinkcolor" : [ 0.360784, 0.360784, 0.360784, 1.0 ],
					"outlettype" : [ "bang" ],
					"id" : "obj-109",
					"bgcolor" : [ 1.0, 1.0, 1.0, 1.0 ],
					"outlinecolor" : [ 0.0, 0.0, 0.0, 1.0 ],
					"patching_rect" : [ 405.0, 176.0, 20.0, 20.0 ],
					"numinlets" : 1
				}

			}
, 			{
				"box" : 				{
					"maxclass" : "umenu",
					"hint" : "Note value B - add an [r nvB] object for this value",
					"varname" : "rate2",
					"types" : [  ],
					"fontname" : "Arial",
					"arrowlink" : 0,
					"numoutlets" : 3,
					"textcolor" : [ 0.0, 0.0, 0.0, 1.0 ],
					"items" : [ "1n", ",", "1nd", ",", "1nt", ",", "2n", ",", "2nd", ",", "2nt", ",", "4n", ",", "4nd", ",", "4nt", ",", "8n", ",", "8nd", ",", "8nt", ",", "16n", ",", "16nd", ",", "16nt", ",", "32n", ",", "32nd", ",", "32nt", ",", "64n", ",", "64nd", ",", "64nt", ",", "128n", ",", "128nd", ",", "128nt" ],
					"outlettype" : [ "int", "", "" ],
					"fontsize" : 11.595187,
					"arrowbgcolor" : [ 0.0, 0.0, 0.0, 1.0 ],
					"id" : "obj-4",
					"align" : 1,
					"bgcolor" : [ 0.858824, 0.858824, 0.858824, 1.0 ],
					"arrowframe" : 0,
					"arrow" : 0,
					"patching_rect" : [ 280.0, 35.0, 64.0, 20.0 ],
					"numinlets" : 1
				}

			}
, 			{
				"box" : 				{
					"maxclass" : "umenu",
					"hint" : "Note value A - add an [r nvA] object for this value",
					"varname" : "rate1",
					"types" : [  ],
					"fontname" : "Arial",
					"arrowlink" : 0,
					"numoutlets" : 3,
					"textcolor" : [ 0.0, 0.0, 0.0, 1.0 ],
					"items" : [ "1n", ",", "1nd", ",", "1nt", ",", "2n", ",", "2nd", ",", "2nt", ",", "4n", ",", "4nd", ",", "4nt", ",", "8n", ",", "8nd", ",", "8nt", ",", "16n", ",", "16nd", ",", "16nt", ",", "32n", ",", "32nd", ",", "32nt", ",", "64n", ",", "64nd", ",", "64nt", ",", "128n", ",", "128nd", ",", "128nt" ],
					"outlettype" : [ "int", "", "" ],
					"fontsize" : 11.595187,
					"arrowbgcolor" : [ 0.0, 0.0, 0.0, 1.0 ],
					"id" : "obj-65",
					"align" : 1,
					"bgcolor" : [ 0.858824, 0.858824, 0.858824, 1.0 ],
					"arrowframe" : 0,
					"arrow" : 0,
					"patching_rect" : [ 41.0, 33.0, 64.0, 20.0 ],
					"numinlets" : 1
				}

			}
 ],
		"lines" : [ 			{
				"patchline" : 				{
					"source" : [ "obj-15", 0 ],
					"destination" : [ "obj-12", 0 ],
					"hidden" : 0,
					"midpoints" : [  ]
				}

			}
, 			{
				"patchline" : 				{
					"source" : [ "obj-12", 0 ],
					"destination" : [ "obj-19", 0 ],
					"hidden" : 0,
					"midpoints" : [  ]
				}

			}
, 			{
				"patchline" : 				{
					"source" : [ "obj-16", 0 ],
					"destination" : [ "obj-12", 0 ],
					"hidden" : 0,
					"midpoints" : [  ]
				}

			}
, 			{
				"patchline" : 				{
					"source" : [ "obj-26", 0 ],
					"destination" : [ "obj-16", 0 ],
					"hidden" : 0,
					"midpoints" : [ 73.5, 232.0, 392.5, 232.0 ]
				}

			}
, 			{
				"patchline" : 				{
					"source" : [ "obj-106", 0 ],
					"destination" : [ "obj-18", 0 ],
					"hidden" : 0,
					"midpoints" : [ 312.5, 211.0, 232.5, 211.0 ]
				}

			}
, 			{
				"patchline" : 				{
					"source" : [ "obj-106", 0 ],
					"destination" : [ "obj-15", 0 ],
					"hidden" : 0,
					"midpoints" : [ 312.5, 211.0, 440.5, 211.0 ]
				}

			}
, 			{
				"patchline" : 				{
					"source" : [ "obj-26", 0 ],
					"destination" : [ "obj-17", 0 ],
					"hidden" : 0,
					"midpoints" : [  ]
				}

			}
, 			{
				"patchline" : 				{
					"source" : [ "obj-35", 0 ],
					"destination" : [ "obj-26", 0 ],
					"hidden" : 0,
					"midpoints" : [  ]
				}

			}
, 			{
				"patchline" : 				{
					"source" : [ "obj-26", 1 ],
					"destination" : [ "obj-27", 0 ],
					"hidden" : 0,
					"midpoints" : [  ]
				}

			}
, 			{
				"patchline" : 				{
					"source" : [ "obj-21", 0 ],
					"destination" : [ "obj-26", 1 ],
					"hidden" : 0,
					"midpoints" : [  ]
				}

			}
, 			{
				"patchline" : 				{
					"source" : [ "obj-25", 0 ],
					"destination" : [ "obj-26", 2 ],
					"hidden" : 0,
					"midpoints" : [  ]
				}

			}
, 			{
				"patchline" : 				{
					"source" : [ "obj-23", 0 ],
					"destination" : [ "obj-26", 3 ],
					"hidden" : 0,
					"midpoints" : [  ]
				}

			}
, 			{
				"patchline" : 				{
					"source" : [ "obj-9", 0 ],
					"destination" : [ "obj-106", 3 ],
					"hidden" : 0,
					"midpoints" : [  ]
				}

			}
, 			{
				"patchline" : 				{
					"source" : [ "obj-2", 0 ],
					"destination" : [ "obj-106", 2 ],
					"hidden" : 0,
					"midpoints" : [  ]
				}

			}
, 			{
				"patchline" : 				{
					"source" : [ "obj-11", 0 ],
					"destination" : [ "obj-106", 1 ],
					"hidden" : 0,
					"midpoints" : [  ]
				}

			}
, 			{
				"patchline" : 				{
					"source" : [ "obj-4", 1 ],
					"destination" : [ "obj-5", 0 ],
					"hidden" : 0,
					"midpoints" : [  ]
				}

			}
, 			{
				"patchline" : 				{
					"source" : [ "obj-65", 1 ],
					"destination" : [ "obj-35", 0 ],
					"hidden" : 0,
					"midpoints" : [  ]
				}

			}
, 			{
				"patchline" : 				{
					"source" : [ "obj-106", 1 ],
					"destination" : [ "obj-109", 0 ],
					"hidden" : 0,
					"midpoints" : [  ]
				}

			}
, 			{
				"patchline" : 				{
					"source" : [ "obj-5", 0 ],
					"destination" : [ "obj-106", 0 ],
					"hidden" : 0,
					"midpoints" : [  ]
				}

			}
 ]
	}

}
