{
	"patcher" : 	{
		"fileversion" : 1,
		"appversion" : 		{
			"major" : 8,
			"minor" : 0,
			"revision" : 3,
			"architecture" : "x64",
			"modernui" : 1
		}
,
		"classnamespace" : "box",
		"rect" : [ 82.0, 108.0, 642.0, 695.0 ],
		"bglocked" : 0,
		"openinpresentation" : 0,
		"default_fontsize" : 12.0,
		"default_fontface" : 0,
		"default_fontname" : "Arial",
		"gridonopen" : 1,
		"gridsize" : [ 15.0, 15.0 ],
		"gridsnaponopen" : 1,
		"objectsnaponopen" : 1,
		"statusbarvisible" : 2,
		"toolbarvisible" : 1,
		"lefttoolbarpinned" : 0,
		"toptoolbarpinned" : 0,
		"righttoolbarpinned" : 0,
		"bottomtoolbarpinned" : 0,
		"toolbars_unpinned_last_save" : 0,
		"tallnewobj" : 0,
		"boxanimatetime" : 200,
		"enablehscroll" : 1,
		"enablevscroll" : 1,
		"devicewidth" : 0.0,
		"description" : "",
		"digest" : "",
		"tags" : "",
		"style" : "",
		"subpatcher_template" : "",
		"boxes" : [ 			{
				"box" : 				{
					"id" : "obj-54",
					"maxclass" : "comment",
					"numinlets" : 1,
					"numoutlets" : 0,
					"patching_rect" : [ 411.0, 641.0, 150.0, 20.0 ],
					"text" : "7) ile pan yapabiliyorsun"
				}

			}
, 			{
				"box" : 				{
					"allowdrag" : 0,
					"buffername" : "break",
					"frozen_box_attributes" : [ "buffername" ],
					"gridcolor" : [ 1.0, 1.0, 1.0, 1.0 ],
					"id" : "obj-42",
					"maxclass" : "waveform~",
					"numinlets" : 5,
					"numoutlets" : 6,
					"outlettype" : [ "float", "float", "float", "float", "list", "" ],
					"patching_rect" : [ 51.0, 496.0, 273.0, 40.0 ],
					"style" : "default",
					"waveformcolor" : [ 0.439216, 0.74902, 0.254902, 1.0 ]
				}

			}
, 			{
				"box" : 				{
					"format" : 6,
					"id" : "obj-53",
					"maxclass" : "flonum",
					"numinlets" : 1,
					"numoutlets" : 2,
					"outlettype" : [ "", "bang" ],
					"parameter_enable" : 0,
					"patching_rect" : [ 475.0, 369.0, 62.0, 22.0 ],
					"style" : "default"
				}

			}
, 			{
				"box" : 				{
					"id" : "obj-51",
					"maxclass" : "comment",
					"numinlets" : 1,
					"numoutlets" : 0,
					"patching_rect" : [ 491.0, 283.0, 86.0, 20.0 ],
					"style" : "default",
					"text" : "stuttering dur"
				}

			}
, 			{
				"box" : 				{
					"id" : "obj-50",
					"maxclass" : "comment",
					"numinlets" : 1,
					"numoutlets" : 0,
					"patching_rect" : [ 450.0, 220.0, 29.0, 20.0 ],
					"style" : "default",
					"text" : "cue"
				}

			}
, 			{
				"box" : 				{
					"id" : "obj-48",
					"maxclass" : "comment",
					"numinlets" : 1,
					"numoutlets" : 0,
					"patching_rect" : [ 364.0, 219.0, 23.0, 20.0 ],
					"style" : "default",
					"text" : "dir"
				}

			}
, 			{
				"box" : 				{
					"id" : "obj-43",
					"linecount" : 2,
					"maxclass" : "comment",
					"numinlets" : 1,
					"numoutlets" : 0,
					"patching_rect" : [ 5.0, 228.0, 37.0, 33.0 ],
					"style" : "default",
					"text" : "pitch reset"
				}

			}
, 			{
				"box" : 				{
					"format" : 6,
					"id" : "obj-40",
					"maxclass" : "flonum",
					"numinlets" : 1,
					"numoutlets" : 2,
					"outlettype" : [ "", "bang" ],
					"parameter_enable" : 0,
					"patching_rect" : [ 475.0, 301.0, 62.0, 22.0 ],
					"style" : "default"
				}

			}
, 			{
				"box" : 				{
					"id" : "obj-15",
					"maxclass" : "comment",
					"numinlets" : 1,
					"numoutlets" : 0,
					"patching_rect" : [ 477.0, 147.0, 57.0, 20.0 ],
					"style" : "default",
					"text" : "stut prob"
				}

			}
, 			{
				"box" : 				{
					"id" : "obj-23",
					"maxclass" : "number",
					"maximum" : 100,
					"minimum" : 0,
					"numinlets" : 1,
					"numoutlets" : 2,
					"outlettype" : [ "", "bang" ],
					"parameter_enable" : 0,
					"patching_rect" : [ 476.0, 167.0, 50.0, 22.0 ],
					"style" : "default"
				}

			}
, 			{
				"box" : 				{
					"id" : "obj-9",
					"maxclass" : "newobj",
					"numinlets" : 0,
					"numoutlets" : 1,
					"outlettype" : [ "" ],
					"patching_rect" : [ 432.0, 167.0, 37.0, 22.0 ],
					"style" : "default",
					"text" : "r stut"
				}

			}
, 			{
				"box" : 				{
					"id" : "obj-57",
					"maxclass" : "newobj",
					"numinlets" : 1,
					"numoutlets" : 0,
					"patching_rect" : [ 334.0, 464.0, 39.0, 22.0 ],
					"style" : "default",
					"text" : "s stut"
				}

			}
, 			{
				"box" : 				{
					"bgcolor" : [ 1.0, 1.0, 1.0, 1.0 ],
					"candycane" : 2,
					"id" : "obj-67",
					"maxclass" : "multislider",
					"numinlets" : 1,
					"numoutlets" : 2,
					"outlettype" : [ "", "" ],
					"parameter_enable" : 0,
					"patching_rect" : [ 51.0, 438.0, 275.0, 42.0 ],
					"setminmax" : [ 1.0, 8.0 ],
					"setstyle" : 1,
					"settype" : 0,
					"size" : 8,
					"slidercolor" : [ 0.720698, 0.16723, 0.080014, 1.0 ],
					"spacing" : 1,
					"style" : "default"
				}

			}
, 			{
				"box" : 				{
					"id" : "obj-52",
					"maxclass" : "comment",
					"numinlets" : 1,
					"numoutlets" : 0,
					"patching_rect" : [ 1.0, 447.0, 44.0, 20.0 ],
					"style" : "default",
					"text" : "stutter"
				}

			}
, 			{
				"box" : 				{
					"id" : "obj-44",
					"maxclass" : "newobj",
					"numinlets" : 1,
					"numoutlets" : 1,
					"outlettype" : [ "" ],
					"patching_rect" : [ 551.0, 378.0, 41.0, 22.0 ],
					"style" : "default",
					"text" : "dbtoa"
				}

			}
, 			{
				"box" : 				{
					"id" : "obj-38",
					"maxclass" : "newobj",
					"numinlets" : 0,
					"numoutlets" : 1,
					"outlettype" : [ "" ],
					"patching_rect" : [ 539.0, 301.0, 70.0, 22.0 ],
					"style" : "default",
					"text" : "r blockdur2"
				}

			}
, 			{
				"box" : 				{
					"id" : "obj-37",
					"maxclass" : "newobj",
					"numinlets" : 2,
					"numoutlets" : 1,
					"outlettype" : [ "float" ],
					"patching_rect" : [ 475.0, 327.0, 83.0, 22.0 ],
					"style" : "default",
					"text" : "* 1."
				}

			}
, 			{
				"box" : 				{
					"id" : "obj-35",
					"maxclass" : "newobj",
					"numinlets" : 0,
					"numoutlets" : 1,
					"outlettype" : [ "" ],
					"patching_rect" : [ 551.0, 354.0, 40.0, 22.0 ],
					"style" : "default",
					"text" : "r vol2"
				}

			}
, 			{
				"box" : 				{
					"id" : "obj-41",
					"maxclass" : "newobj",
					"numinlets" : 1,
					"numoutlets" : 0,
					"patching_rect" : [ 336.0, 426.0, 72.0, 22.0 ],
					"style" : "default",
					"text" : "s blockdur2"
				}

			}
, 			{
				"box" : 				{
					"id" : "obj-39",
					"maxclass" : "newobj",
					"numinlets" : 1,
					"numoutlets" : 0,
					"patching_rect" : [ 336.0, 373.0, 42.0, 22.0 ],
					"style" : "default",
					"text" : "s vol2"
				}

			}
, 			{
				"box" : 				{
					"bgcolor" : [ 1.0, 1.0, 1.0, 1.0 ],
					"contdata" : 1,
					"ghostbar" : 10,
					"id" : "obj-62",
					"maxclass" : "multislider",
					"numinlets" : 1,
					"numoutlets" : 2,
					"outlettype" : [ "", "" ],
					"parameter_enable" : 0,
					"patching_rect" : [ 51.0, 375.0, 275.0, 42.0 ],
					"setminmax" : [ 0.0, 1.0 ],
					"size" : 8,
					"slidercolor" : [ 0.394356, 0.149215, 0.067687, 1.0 ],
					"spacing" : 1,
					"style" : "default",
					"thickness" : 6
				}

			}
, 			{
				"box" : 				{
					"id" : "obj-47",
					"maxclass" : "comment",
					"numinlets" : 1,
					"numoutlets" : 0,
					"patching_rect" : [ 12.0, 384.0, 31.0, 20.0 ],
					"style" : "default",
					"text" : "dur"
				}

			}
, 			{
				"box" : 				{
					"bgcolor" : [ 1.0, 1.0, 1.0, 1.0 ],
					"id" : "obj-61",
					"maxclass" : "multislider",
					"numinlets" : 1,
					"numoutlets" : 2,
					"outlettype" : [ "", "" ],
					"parameter_enable" : 0,
					"patching_rect" : [ 51.0, 317.0, 275.0, 42.0 ],
					"setminmax" : [ -30.0, 0.0 ],
					"setstyle" : 1,
					"size" : 8,
					"slidercolor" : [ 0.311041, 0.314599, 0.318357, 1.0 ],
					"spacing" : 1,
					"style" : "default"
				}

			}
, 			{
				"box" : 				{
					"id" : "obj-49",
					"maxclass" : "comment",
					"numinlets" : 1,
					"numoutlets" : 0,
					"patching_rect" : [ 15.0, 327.0, 27.0, 20.0 ],
					"style" : "default",
					"text" : "vol"
				}

			}
, 			{
				"box" : 				{
					"id" : "obj-32",
					"maxclass" : "message",
					"numinlets" : 2,
					"numoutlets" : 1,
					"outlettype" : [ "" ],
					"patching_rect" : [ 51.0, 112.0, 53.0, 22.0 ],
					"style" : "default",
					"text" : "fetch $1"
				}

			}
, 			{
				"box" : 				{
					"id" : "obj-11",
					"maxclass" : "newobj",
					"numinlets" : 1,
					"numoutlets" : 2,
					"outlettype" : [ "int", "int" ],
					"patching_rect" : [ 223.0, 111.0, 33.0, 22.0 ],
					"style" : "default",
					"text" : "t i i"
				}

			}
, 			{
				"box" : 				{
					"id" : "obj-17",
					"maxclass" : "message",
					"numinlets" : 2,
					"numoutlets" : 1,
					"outlettype" : [ "" ],
					"patching_rect" : [ 5.0, 258.0, 33.0, 22.0 ],
					"style" : "default",
					"text" : "0"
				}

			}
, 			{
				"box" : 				{
					"id" : "obj-4",
					"maxclass" : "newobj",
					"numinlets" : 1,
					"numoutlets" : 1,
					"outlettype" : [ "float" ],
					"patching_rect" : [ 366.0, 288.0, 49.0, 22.0 ],
					"style" : "default",
					"text" : "vs.ratio"
				}

			}
, 			{
				"box" : 				{
					"bgcolor" : [ 1.0, 1.0, 1.0, 1.0 ],
					"id" : "obj-60",
					"maxclass" : "multislider",
					"numinlets" : 1,
					"numoutlets" : 2,
					"outlettype" : [ "", "" ],
					"parameter_enable" : 0,
					"patching_rect" : [ 51.0, 267.0, 275.0, 42.0 ],
					"setminmax" : [ -12.0, 12.0 ],
					"setstyle" : 1,
					"settype" : 0,
					"signed" : 1,
					"size" : 8,
					"slidercolor" : [ 0.043137, 0.364706, 0.094118, 1.0 ],
					"spacing" : 1,
					"style" : "default"
				}

			}
, 			{
				"box" : 				{
					"id" : "obj-46",
					"maxclass" : "comment",
					"numinlets" : 1,
					"numoutlets" : 0,
					"patching_rect" : [ 5.0, 283.0, 37.0, 20.0 ],
					"style" : "default",
					"text" : "pitch"
				}

			}
, 			{
				"box" : 				{
					"id" : "obj-10",
					"maxclass" : "comment",
					"numinlets" : 1,
					"numoutlets" : 0,
					"patching_rect" : [ 377.0, 147.0, 50.0, 20.0 ],
					"style" : "default",
					"text" : "dir prob"
				}

			}
, 			{
				"box" : 				{
					"id" : "obj-8",
					"maxclass" : "number",
					"maximum" : 100,
					"minimum" : 0,
					"numinlets" : 1,
					"numoutlets" : 2,
					"outlettype" : [ "", "bang" ],
					"parameter_enable" : 0,
					"patching_rect" : [ 377.0, 167.0, 50.0, 22.0 ],
					"style" : "default"
				}

			}
, 			{
				"box" : 				{
					"format" : 6,
					"id" : "obj-36",
					"maxclass" : "flonum",
					"numinlets" : 1,
					"numoutlets" : 2,
					"outlettype" : [ "", "bang" ],
					"parameter_enable" : 0,
					"patching_rect" : [ 426.0, 240.0, 34.0, 22.0 ],
					"style" : "default"
				}

			}
, 			{
				"box" : 				{
					"format" : 6,
					"id" : "obj-34",
					"maxclass" : "flonum",
					"numinlets" : 1,
					"numoutlets" : 2,
					"outlettype" : [ "", "bang" ],
					"parameter_enable" : 0,
					"patching_rect" : [ 351.0, 240.0, 35.0, 22.0 ],
					"style" : "default"
				}

			}
, 			{
				"box" : 				{
					"id" : "obj-30",
					"maxclass" : "newobj",
					"numinlets" : 5,
					"numoutlets" : 3,
					"outlettype" : [ "int", "int", "" ],
					"patcher" : 					{
						"fileversion" : 1,
						"appversion" : 						{
							"major" : 8,
							"minor" : 0,
							"revision" : 3,
							"architecture" : "x64",
							"modernui" : 1
						}
,
						"classnamespace" : "box",
						"rect" : [ 1156.0, 200.0, 495.0, 387.0 ],
						"bglocked" : 0,
						"openinpresentation" : 0,
						"default_fontsize" : 12.0,
						"default_fontface" : 0,
						"default_fontname" : "Arial",
						"gridonopen" : 1,
						"gridsize" : [ 15.0, 15.0 ],
						"gridsnaponopen" : 1,
						"objectsnaponopen" : 1,
						"statusbarvisible" : 2,
						"toolbarvisible" : 1,
						"lefttoolbarpinned" : 0,
						"toptoolbarpinned" : 0,
						"righttoolbarpinned" : 0,
						"bottomtoolbarpinned" : 0,
						"toolbars_unpinned_last_save" : 0,
						"tallnewobj" : 0,
						"boxanimatetime" : 200,
						"enablehscroll" : 1,
						"enablevscroll" : 1,
						"devicewidth" : 0.0,
						"description" : "",
						"digest" : "",
						"tags" : "",
						"style" : "",
						"subpatcher_template" : "",
						"visible" : 1,
						"boxes" : [ 							{
								"box" : 								{
									"id" : "obj-36",
									"maxclass" : "message",
									"numinlets" : 2,
									"numoutlets" : 1,
									"outlettype" : [ "" ],
									"patching_rect" : [ 273.5, 43.0, 29.5, 22.0 ],
									"style" : "default",
									"text" : "2"
								}

							}
, 							{
								"box" : 								{
									"id" : "obj-39",
									"maxclass" : "comment",
									"numinlets" : 1,
									"numoutlets" : 0,
									"patching_rect" : [ 387.5, 255.0, 55.0, 20.0 ],
									"style" : "default",
									"text" : "cue dur"
								}

							}
, 							{
								"box" : 								{
									"id" : "obj-38",
									"linecount" : 2,
									"maxclass" : "comment",
									"numinlets" : 1,
									"numoutlets" : 0,
									"patching_rect" : [ 424.25, 63.0, 38.0, 33.0 ],
									"style" : "default",
									"text" : "stut prob"
								}

							}
, 							{
								"box" : 								{
									"id" : "obj-37",
									"linecount" : 2,
									"maxclass" : "comment",
									"numinlets" : 1,
									"numoutlets" : 0,
									"patching_rect" : [ 353.0, 10.0, 61.0, 33.0 ],
									"style" : "default",
									"text" : "stuttering val"
								}

							}
, 							{
								"box" : 								{
									"id" : "obj-35",
									"maxclass" : "number",
									"numinlets" : 1,
									"numoutlets" : 2,
									"outlettype" : [ "", "bang" ],
									"parameter_enable" : 0,
									"patching_rect" : [ 414.25, 97.0, 50.0, 22.0 ],
									"style" : "default"
								}

							}
, 							{
								"box" : 								{
									"id" : "obj-34",
									"maxclass" : "number",
									"numinlets" : 1,
									"numoutlets" : 2,
									"outlettype" : [ "", "bang" ],
									"parameter_enable" : 0,
									"patching_rect" : [ 293.75, 128.0, 50.0, 22.0 ],
									"style" : "default"
								}

							}
, 							{
								"box" : 								{
									"format" : 6,
									"id" : "obj-31",
									"maxclass" : "flonum",
									"numinlets" : 1,
									"numoutlets" : 2,
									"outlettype" : [ "", "bang" ],
									"parameter_enable" : 0,
									"patching_rect" : [ 332.5, 311.0, 50.0, 22.0 ],
									"style" : "default"
								}

							}
, 							{
								"box" : 								{
									"format" : 6,
									"id" : "obj-18",
									"maxclass" : "flonum",
									"numinlets" : 1,
									"numoutlets" : 2,
									"outlettype" : [ "", "bang" ],
									"parameter_enable" : 0,
									"patching_rect" : [ 332.5, 255.0, 50.0, 22.0 ],
									"style" : "default"
								}

							}
, 							{
								"box" : 								{
									"id" : "obj-32",
									"maxclass" : "comment",
									"numinlets" : 1,
									"numoutlets" : 0,
									"patching_rect" : [ 386.5, 311.0, 79.0, 20.0 ],
									"style" : "default",
									"text" : "stuttering dur"
								}

							}
, 							{
								"box" : 								{
									"id" : "obj-30",
									"maxclass" : "newobj",
									"numinlets" : 1,
									"numoutlets" : 2,
									"outlettype" : [ "bang", "" ],
									"patching_rect" : [ 12.0, 35.0, 33.0, 22.0 ],
									"style" : "default",
									"text" : "t b l"
								}

							}
, 							{
								"box" : 								{
									"id" : "obj-29",
									"maxclass" : "newobj",
									"numinlets" : 2,
									"numoutlets" : 1,
									"outlettype" : [ "int" ],
									"patching_rect" : [ 12.0, 327.0, 33.0, 22.0 ],
									"style" : "default",
									"text" : "int"
								}

							}
, 							{
								"box" : 								{
									"comment" : "",
									"id" : "obj-28",
									"index" : 5,
									"maxclass" : "inlet",
									"numinlets" : 0,
									"numoutlets" : 1,
									"outlettype" : [ "float" ],
									"patching_rect" : [ 458.25, 9.0, 25.0, 25.0 ],
									"style" : "default"
								}

							}
, 							{
								"box" : 								{
									"comment" : "",
									"id" : "obj-27",
									"index" : 3,
									"maxclass" : "outlet",
									"numinlets" : 1,
									"numoutlets" : 0,
									"patching_rect" : [ 332.5, 352.0, 25.0, 25.0 ],
									"style" : "default"
								}

							}
, 							{
								"box" : 								{
									"comment" : "",
									"id" : "obj-26",
									"index" : 4,
									"maxclass" : "inlet",
									"numinlets" : 0,
									"numoutlets" : 1,
									"outlettype" : [ "" ],
									"patching_rect" : [ 414.25, 9.0, 25.0, 25.0 ],
									"style" : "default"
								}

							}
, 							{
								"box" : 								{
									"comment" : "",
									"id" : "obj-25",
									"index" : 3,
									"maxclass" : "inlet",
									"numinlets" : 0,
									"numoutlets" : 1,
									"outlettype" : [ "" ],
									"patching_rect" : [ 325.0, 10.0, 25.0, 25.0 ],
									"style" : "default"
								}

							}
, 							{
								"box" : 								{
									"id" : "obj-20",
									"maxclass" : "comment",
									"numinlets" : 1,
									"numoutlets" : 0,
									"patching_rect" : [ 140.0, 258.0, 118.0, 20.0 ],
									"style" : "default",
									"text" : "swap elements"
								}

							}
, 							{
								"box" : 								{
									"id" : "obj-16",
									"maxclass" : "comment",
									"numinlets" : 1,
									"numoutlets" : 0,
									"patching_rect" : [ 38.0, 355.0, 26.0, 20.0 ],
									"style" : "default",
									"text" : "dir"
								}

							}
, 							{
								"box" : 								{
									"id" : "obj-14",
									"maxclass" : "comment",
									"numinlets" : 1,
									"numoutlets" : 0,
									"patching_rect" : [ 145.0, 288.0, 30.0, 20.0 ],
									"style" : "default",
									"text" : "cue"
								}

							}
, 							{
								"box" : 								{
									"id" : "obj-13",
									"maxclass" : "comment",
									"numinlets" : 1,
									"numoutlets" : 0,
									"patching_rect" : [ 180.0, 233.0, 26.0, 20.0 ],
									"style" : "default",
									"text" : "dir"
								}

							}
, 							{
								"box" : 								{
									"id" : "obj-12",
									"maxclass" : "comment",
									"numinlets" : 1,
									"numoutlets" : 0,
									"patching_rect" : [ 76.0, 106.0, 35.0, 20.0 ],
									"style" : "default",
									"text" : "step"
								}

							}
, 							{
								"box" : 								{
									"id" : "obj-11",
									"maxclass" : "message",
									"numinlets" : 2,
									"numoutlets" : 1,
									"outlettype" : [ "" ],
									"patching_rect" : [ 119.0, 233.0, 60.0, 22.0 ],
									"style" : "default",
									"text" : "1"
								}

							}
, 							{
								"box" : 								{
									"id" : "obj-5",
									"maxclass" : "newobj",
									"numinlets" : 2,
									"numoutlets" : 2,
									"outlettype" : [ "bang", "" ],
									"patching_rect" : [ 142.0, 182.0, 36.0, 22.0 ],
									"style" : "default",
									"text" : "sel 0"
								}

							}
, 							{
								"box" : 								{
									"id" : "obj-19",
									"maxclass" : "message",
									"numinlets" : 2,
									"numoutlets" : 1,
									"outlettype" : [ "" ],
									"patching_rect" : [ 24.0, 106.0, 46.5, 22.0 ],
									"style" : "default",
									"text" : "1"
								}

							}
, 							{
								"box" : 								{
									"comment" : "",
									"id" : "obj-10",
									"index" : 2,
									"maxclass" : "inlet",
									"numinlets" : 0,
									"numoutlets" : 1,
									"outlettype" : [ "" ],
									"patching_rect" : [ 225.0, 7.0, 25.0, 25.0 ],
									"style" : "default"
								}

							}
, 							{
								"box" : 								{
									"id" : "obj-4",
									"maxclass" : "newobj",
									"numinlets" : 2,
									"numoutlets" : 1,
									"outlettype" : [ "int" ],
									"patching_rect" : [ 142.0, 153.0, 102.0, 22.0 ],
									"style" : "default",
									"text" : ">="
								}

							}
, 							{
								"box" : 								{
									"id" : "obj-3",
									"maxclass" : "newobj",
									"numinlets" : 1,
									"numoutlets" : 3,
									"outlettype" : [ "bang", "bang", "int" ],
									"patching_rect" : [ 132.0, 97.0, 99.0, 22.0 ],
									"style" : "default",
									"text" : "t b b i"
								}

							}
, 							{
								"box" : 								{
									"id" : "obj-2",
									"maxclass" : "newobj",
									"numinlets" : 2,
									"numoutlets" : 1,
									"outlettype" : [ "int" ],
									"patching_rect" : [ 142.0, 128.0, 75.0, 22.0 ],
									"style" : "default",
									"text" : "random 100"
								}

							}
, 							{
								"box" : 								{
									"comment" : "",
									"id" : "obj-9",
									"index" : 2,
									"maxclass" : "outlet",
									"numinlets" : 1,
									"numoutlets" : 0,
									"patching_rect" : [ 119.0, 284.0, 25.0, 25.0 ],
									"style" : "default"
								}

							}
, 							{
								"box" : 								{
									"id" : "obj-8",
									"maxclass" : "newobj",
									"numinlets" : 2,
									"numoutlets" : 2,
									"outlettype" : [ "int", "int" ],
									"patching_rect" : [ 12.0, 258.0, 126.0, 22.0 ],
									"style" : "default",
									"text" : "swap"
								}

							}
, 							{
								"box" : 								{
									"id" : "obj-6",
									"maxclass" : "newobj",
									"numinlets" : 1,
									"numoutlets" : 2,
									"outlettype" : [ "", "" ],
									"patching_rect" : [ 12.0, 151.0, 65.0, 22.0 ],
									"style" : "default",
									"text" : "vs.choose"
								}

							}
, 							{
								"box" : 								{
									"id" : "obj-1",
									"maxclass" : "newobj",
									"numinlets" : 2,
									"numoutlets" : 2,
									"outlettype" : [ "", "" ],
									"patching_rect" : [ 12.0, 73.0, 139.0, 22.0 ],
									"style" : "default",
									"text" : "zl ecils 1"
								}

							}
, 							{
								"box" : 								{
									"id" : "obj-49",
									"maxclass" : "newobj",
									"numinlets" : 2,
									"numoutlets" : 1,
									"outlettype" : [ "int" ],
									"patching_rect" : [ 12.0, 177.0, 33.0, 22.0 ],
									"style" : "default",
									"text" : "- 1"
								}

							}
, 							{
								"box" : 								{
									"comment" : "",
									"id" : "obj-15",
									"index" : 1,
									"maxclass" : "inlet",
									"numinlets" : 0,
									"numoutlets" : 1,
									"outlettype" : [ "" ],
									"patching_rect" : [ 12.0, 7.0, 25.0, 25.0 ],
									"style" : "default"
								}

							}
, 							{
								"box" : 								{
									"comment" : "",
									"id" : "obj-17",
									"index" : 1,
									"maxclass" : "outlet",
									"numinlets" : 1,
									"numoutlets" : 0,
									"patching_rect" : [ 12.0, 352.0, 25.0, 25.0 ],
									"style" : "default"
								}

							}
, 							{
								"box" : 								{
									"id" : "obj-7",
									"maxclass" : "message",
									"numinlets" : 2,
									"numoutlets" : 1,
									"outlettype" : [ "" ],
									"patching_rect" : [ 273.5, 213.0, 71.0, 22.0 ],
									"style" : "default",
									"text" : "2"
								}

							}
, 							{
								"box" : 								{
									"id" : "obj-21",
									"maxclass" : "newobj",
									"numinlets" : 2,
									"numoutlets" : 2,
									"outlettype" : [ "bang", "" ],
									"patching_rect" : [ 293.75, 182.0, 36.0, 22.0 ],
									"style" : "default",
									"text" : "sel 0"
								}

							}
, 							{
								"box" : 								{
									"id" : "obj-22",
									"maxclass" : "newobj",
									"numinlets" : 2,
									"numoutlets" : 1,
									"outlettype" : [ "int" ],
									"patching_rect" : [ 293.75, 153.0, 140.0, 22.0 ],
									"style" : "default",
									"text" : ">="
								}

							}
, 							{
								"box" : 								{
									"id" : "obj-23",
									"maxclass" : "newobj",
									"numinlets" : 2,
									"numoutlets" : 1,
									"outlettype" : [ "int" ],
									"patching_rect" : [ 293.75, 102.0, 75.0, 22.0 ],
									"style" : "default",
									"text" : "random 100"
								}

							}
, 							{
								"box" : 								{
									"id" : "obj-24",
									"maxclass" : "newobj",
									"numinlets" : 1,
									"numoutlets" : 3,
									"outlettype" : [ "bang", "bang", "int" ],
									"patching_rect" : [ 273.5, 73.0, 116.0, 22.0 ],
									"style" : "default",
									"text" : "t b b i"
								}

							}
, 							{
								"box" : 								{
									"id" : "obj-76",
									"maxclass" : "newobj",
									"numinlets" : 2,
									"numoutlets" : 2,
									"outlettype" : [ "bang", "float" ],
									"patching_rect" : [ 273.5, 284.0, 78.0, 22.0 ],
									"style" : "default",
									"text" : "vs.multibang"
								}

							}
 ],
						"lines" : [ 							{
								"patchline" : 								{
									"destination" : [ "obj-19", 1 ],
									"midpoints" : [ 21.5, 101.0, 61.0, 101.0 ],
									"order" : 0,
									"source" : [ "obj-1", 0 ]
								}

							}
, 							{
								"patchline" : 								{
									"destination" : [ "obj-3", 0 ],
									"source" : [ "obj-1", 1 ]
								}

							}
, 							{
								"patchline" : 								{
									"destination" : [ "obj-6", 0 ],
									"order" : 1,
									"source" : [ "obj-1", 0 ]
								}

							}
, 							{
								"patchline" : 								{
									"destination" : [ "obj-4", 1 ],
									"source" : [ "obj-10", 0 ]
								}

							}
, 							{
								"patchline" : 								{
									"destination" : [ "obj-8", 1 ],
									"source" : [ "obj-11", 0 ]
								}

							}
, 							{
								"patchline" : 								{
									"destination" : [ "obj-30", 0 ],
									"source" : [ "obj-15", 0 ]
								}

							}
, 							{
								"patchline" : 								{
									"destination" : [ "obj-76", 1 ],
									"source" : [ "obj-18", 0 ]
								}

							}
, 							{
								"patchline" : 								{
									"destination" : [ "obj-4", 0 ],
									"source" : [ "obj-2", 0 ]
								}

							}
, 							{
								"patchline" : 								{
									"destination" : [ "obj-7", 1 ],
									"source" : [ "obj-21", 1 ]
								}

							}
, 							{
								"patchline" : 								{
									"destination" : [ "obj-21", 0 ],
									"source" : [ "obj-22", 0 ]
								}

							}
, 							{
								"patchline" : 								{
									"destination" : [ "obj-34", 0 ],
									"source" : [ "obj-23", 0 ]
								}

							}
, 							{
								"patchline" : 								{
									"destination" : [ "obj-23", 0 ],
									"source" : [ "obj-24", 1 ]
								}

							}
, 							{
								"patchline" : 								{
									"destination" : [ "obj-7", 1 ],
									"source" : [ "obj-24", 2 ]
								}

							}
, 							{
								"patchline" : 								{
									"destination" : [ "obj-7", 0 ],
									"source" : [ "obj-24", 0 ]
								}

							}
, 							{
								"patchline" : 								{
									"destination" : [ "obj-36", 1 ],
									"source" : [ "obj-25", 0 ]
								}

							}
, 							{
								"patchline" : 								{
									"destination" : [ "obj-35", 0 ],
									"source" : [ "obj-26", 0 ]
								}

							}
, 							{
								"patchline" : 								{
									"destination" : [ "obj-18", 0 ],
									"midpoints" : [ 467.75, 243.0, 342.0, 243.0 ],
									"source" : [ "obj-28", 0 ]
								}

							}
, 							{
								"patchline" : 								{
									"destination" : [ "obj-17", 0 ],
									"source" : [ "obj-29", 0 ]
								}

							}
, 							{
								"patchline" : 								{
									"destination" : [ "obj-11", 1 ],
									"midpoints" : [ 221.5, 215.5, 169.5, 215.5 ],
									"source" : [ "obj-3", 2 ]
								}

							}
, 							{
								"patchline" : 								{
									"destination" : [ "obj-11", 0 ],
									"source" : [ "obj-3", 0 ]
								}

							}
, 							{
								"patchline" : 								{
									"destination" : [ "obj-2", 0 ],
									"source" : [ "obj-3", 1 ]
								}

							}
, 							{
								"patchline" : 								{
									"destination" : [ "obj-1", 0 ],
									"source" : [ "obj-30", 1 ]
								}

							}
, 							{
								"patchline" : 								{
									"destination" : [ "obj-36", 0 ],
									"midpoints" : [ 21.5, 60.0, 264.0, 60.0, 264.0, 35.0, 283.0, 35.0 ],
									"source" : [ "obj-30", 0 ]
								}

							}
, 							{
								"patchline" : 								{
									"destination" : [ "obj-27", 0 ],
									"source" : [ "obj-31", 0 ]
								}

							}
, 							{
								"patchline" : 								{
									"destination" : [ "obj-22", 0 ],
									"source" : [ "obj-34", 0 ]
								}

							}
, 							{
								"patchline" : 								{
									"destination" : [ "obj-22", 1 ],
									"source" : [ "obj-35", 0 ]
								}

							}
, 							{
								"patchline" : 								{
									"destination" : [ "obj-24", 0 ],
									"source" : [ "obj-36", 0 ]
								}

							}
, 							{
								"patchline" : 								{
									"destination" : [ "obj-5", 0 ],
									"source" : [ "obj-4", 0 ]
								}

							}
, 							{
								"patchline" : 								{
									"destination" : [ "obj-8", 0 ],
									"source" : [ "obj-49", 0 ]
								}

							}
, 							{
								"patchline" : 								{
									"destination" : [ "obj-11", 1 ],
									"source" : [ "obj-5", 1 ]
								}

							}
, 							{
								"patchline" : 								{
									"destination" : [ "obj-49", 0 ],
									"source" : [ "obj-6", 0 ]
								}

							}
, 							{
								"patchline" : 								{
									"destination" : [ "obj-76", 0 ],
									"source" : [ "obj-7", 0 ]
								}

							}
, 							{
								"patchline" : 								{
									"destination" : [ "obj-29", 0 ],
									"midpoints" : [ 283.0, 315.0, 21.5, 315.0 ],
									"source" : [ "obj-76", 0 ]
								}

							}
, 							{
								"patchline" : 								{
									"destination" : [ "obj-31", 0 ],
									"source" : [ "obj-76", 1 ]
								}

							}
, 							{
								"patchline" : 								{
									"destination" : [ "obj-29", 1 ],
									"source" : [ "obj-8", 0 ]
								}

							}
, 							{
								"patchline" : 								{
									"destination" : [ "obj-9", 0 ],
									"source" : [ "obj-8", 1 ]
								}

							}
 ]
					}
,
					"patching_rect" : [ 351.0, 196.0, 215.0, 22.0 ],
					"saved_object_attributes" : 					{
						"description" : "",
						"digest" : "",
						"globalpatchername" : "",
						"tags" : ""
					}
,
					"style" : "default",
					"text" : "p dir_cue_stut"
				}

			}
, 			{
				"box" : 				{
					"hidden" : 1,
					"id" : "obj-65",
					"maxclass" : "newobj",
					"numinlets" : 0,
					"numoutlets" : 1,
					"outlettype" : [ "" ],
					"patching_rect" : [ 331.0, 522.0, 72.0, 22.0 ],
					"style" : "default",
					"text" : "r selection4"
				}

			}
, 			{
				"box" : 				{
					"hidden" : 1,
					"id" : "obj-64",
					"maxclass" : "newobj",
					"numinlets" : 1,
					"numoutlets" : 0,
					"patching_rect" : [ 510.0, 256.0, 74.0, 22.0 ],
					"style" : "default",
					"text" : "s selection4"
				}

			}
, 			{
				"box" : 				{
					"hidden" : 1,
					"id" : "obj-63",
					"maxclass" : "newobj",
					"numinlets" : 2,
					"numoutlets" : 1,
					"outlettype" : [ "" ],
					"patcher" : 					{
						"fileversion" : 1,
						"appversion" : 						{
							"major" : 8,
							"minor" : 0,
							"revision" : 3,
							"architecture" : "x64",
							"modernui" : 1
						}
,
						"classnamespace" : "box",
						"rect" : [ 25.0, 69.0, 178.0, 251.0 ],
						"bglocked" : 0,
						"openinpresentation" : 0,
						"default_fontsize" : 12.0,
						"default_fontface" : 0,
						"default_fontname" : "Arial",
						"gridonopen" : 1,
						"gridsize" : [ 15.0, 15.0 ],
						"gridsnaponopen" : 1,
						"objectsnaponopen" : 1,
						"statusbarvisible" : 2,
						"toolbarvisible" : 1,
						"lefttoolbarpinned" : 0,
						"toptoolbarpinned" : 0,
						"righttoolbarpinned" : 0,
						"bottomtoolbarpinned" : 0,
						"toolbars_unpinned_last_save" : 0,
						"tallnewobj" : 0,
						"boxanimatetime" : 200,
						"enablehscroll" : 1,
						"enablevscroll" : 1,
						"devicewidth" : 0.0,
						"description" : "",
						"digest" : "",
						"tags" : "",
						"style" : "",
						"subpatcher_template" : "",
						"boxes" : [ 							{
								"box" : 								{
									"fontname" : "Arial",
									"fontsize" : 12.0,
									"id" : "obj-2",
									"maxclass" : "newobj",
									"numinlets" : 1,
									"numoutlets" : 1,
									"outlettype" : [ "" ],
									"patching_rect" : [ 40.0, 191.0, 56.0, 20.0 ],
									"text" : "deferlow"
								}

							}
, 							{
								"box" : 								{
									"fontname" : "Arial",
									"fontsize" : 12.0,
									"id" : "obj-1",
									"maxclass" : "newobj",
									"numinlets" : 1,
									"numoutlets" : 2,
									"outlettype" : [ "bang", "float" ],
									"patching_rect" : [ 106.0, 40.0, 32.5, 20.0 ],
									"text" : "t b f"
								}

							}
, 							{
								"box" : 								{
									"fontname" : "Arial",
									"fontsize" : 12.0,
									"id" : "obj-6",
									"maxclass" : "newobj",
									"numinlets" : 2,
									"numoutlets" : 1,
									"outlettype" : [ "float" ],
									"patching_rect" : [ 38.0, 80.0, 32.5, 20.0 ],
									"text" : "f"
								}

							}
, 							{
								"box" : 								{
									"fontname" : "Arial",
									"fontsize" : 12.0,
									"id" : "obj-51",
									"maxclass" : "newobj",
									"numinlets" : 2,
									"numoutlets" : 1,
									"outlettype" : [ "" ],
									"patching_rect" : [ 40.0, 163.0, 63.0, 20.0 ],
									"text" : "pack 0. 0."
								}

							}
, 							{
								"box" : 								{
									"fontname" : "Arial",
									"fontsize" : 12.0,
									"id" : "obj-50",
									"maxclass" : "newobj",
									"numinlets" : 2,
									"numoutlets" : 1,
									"outlettype" : [ "float" ],
									"patching_rect" : [ 85.0, 136.0, 32.5, 20.0 ],
									"text" : "+ 0."
								}

							}
, 							{
								"box" : 								{
									"fontname" : "Arial",
									"fontsize" : 12.0,
									"format" : 6,
									"id" : "obj-47",
									"maxclass" : "flonum",
									"numinlets" : 1,
									"numoutlets" : 2,
									"outlettype" : [ "", "bang" ],
									"parameter_enable" : 0,
									"patching_rect" : [ 40.0, 102.0, 57.0, 20.0 ]
								}

							}
, 							{
								"box" : 								{
									"comment" : "",
									"id" : "obj-60",
									"index" : 1,
									"maxclass" : "inlet",
									"numinlets" : 0,
									"numoutlets" : 1,
									"outlettype" : [ "float" ],
									"patching_rect" : [ 40.0, 5.0, 25.0, 25.0 ]
								}

							}
, 							{
								"box" : 								{
									"comment" : "",
									"id" : "obj-61",
									"index" : 2,
									"maxclass" : "inlet",
									"numinlets" : 0,
									"numoutlets" : 1,
									"outlettype" : [ "float" ],
									"patching_rect" : [ 106.0, 5.0, 25.0, 25.0 ]
								}

							}
, 							{
								"box" : 								{
									"comment" : "",
									"id" : "obj-62",
									"index" : 1,
									"maxclass" : "outlet",
									"numinlets" : 1,
									"numoutlets" : 0,
									"patching_rect" : [ 40.0, 216.0, 25.0, 25.0 ]
								}

							}
 ],
						"lines" : [ 							{
								"patchline" : 								{
									"destination" : [ "obj-50", 1 ],
									"source" : [ "obj-1", 1 ]
								}

							}
, 							{
								"patchline" : 								{
									"destination" : [ "obj-6", 0 ],
									"source" : [ "obj-1", 0 ]
								}

							}
, 							{
								"patchline" : 								{
									"destination" : [ "obj-62", 0 ],
									"source" : [ "obj-2", 0 ]
								}

							}
, 							{
								"patchline" : 								{
									"destination" : [ "obj-50", 0 ],
									"order" : 0,
									"source" : [ "obj-47", 0 ]
								}

							}
, 							{
								"patchline" : 								{
									"destination" : [ "obj-51", 0 ],
									"order" : 1,
									"source" : [ "obj-47", 0 ]
								}

							}
, 							{
								"patchline" : 								{
									"destination" : [ "obj-51", 1 ],
									"source" : [ "obj-50", 0 ]
								}

							}
, 							{
								"patchline" : 								{
									"destination" : [ "obj-2", 0 ],
									"source" : [ "obj-51", 0 ]
								}

							}
, 							{
								"patchline" : 								{
									"destination" : [ "obj-47", 0 ],
									"source" : [ "obj-6", 0 ]
								}

							}
, 							{
								"patchline" : 								{
									"destination" : [ "obj-6", 1 ],
									"source" : [ "obj-60", 0 ]
								}

							}
, 							{
								"patchline" : 								{
									"destination" : [ "obj-1", 0 ],
									"source" : [ "obj-61", 0 ]
								}

							}
 ]
					}
,
					"patching_rect" : [ 510.0, 235.0, 64.0, 22.0 ],
					"saved_object_attributes" : 					{
						"description" : "",
						"digest" : "",
						"globalpatchername" : "",
						"tags" : ""
					}
,
					"style" : "default",
					"text" : "p calc_sel"
				}

			}
, 			{
				"box" : 				{
					"bgstepcolor" : [ 0.541176, 0.639216, 0.784314, 1.0 ],
					"bgstepcolor2" : [ 0.831373, 0.870588, 0.890196, 1.0 ],
					"columns" : 8,
					"hbgcolor" : [ 0.0, 0.372549, 1.0, 0.501961 ],
					"id" : "obj-5",
					"maxclass" : "live.grid",
					"numinlets" : 2,
					"numoutlets" : 6,
					"outlettype" : [ "", "", "", "", "", "" ],
					"parameter_enable" : 1,
					"patching_rect" : [ 51.0, 145.0, 273.0, 110.0 ],
					"rows" : 8,
					"saved_attribute_attributes" : 					{
						"valueof" : 						{
							"parameter_shortname" : "live.grid",
							"parameter_type" : 3,
							"parameter_longname" : "live.grid",
							"parameter_invisible" : 1
						}

					}
,
					"spacing" : 0.5,
					"stepcolor" : [ 0.94902, 0.0, 0.0, 1.0 ],
					"varname" : "live.grid"
				}

			}
, 			{
				"box" : 				{
					"id" : "obj-2",
					"maxclass" : "newobj",
					"numinlets" : 2,
					"numoutlets" : 1,
					"outlettype" : [ "float" ],
					"patching_rect" : [ 352.0, 319.0, 33.0, 22.0 ],
					"style" : "default",
					"text" : "* 1."
				}

			}
, 			{
				"box" : 				{
					"id" : "obj-7",
					"maxclass" : "preset",
					"numinlets" : 1,
					"numoutlets" : 4,
					"outlettype" : [ "preset", "int", "preset", "int" ],
					"patching_rect" : [ 128.0, 7.0, 54.0, 53.0 ],
					"preset_data" : [ 						{
							"number" : 1,
							"data" : [ 5, "obj-5", "live.grid", "mode", 0, 5, "obj-5", "live.grid", "matrixmode", 0, 5, "obj-5", "live.grid", "columns", 8, 5, "obj-5", "live.grid", "rows", 8, 13, "obj-5", "live.grid", "constraint", 1, 1, 1, 1, 1, 1, 1, 1, 1, 13, "obj-5", "live.grid", "constraint", 2, 1, 1, 1, 1, 1, 1, 1, 1, 13, "obj-5", "live.grid", "constraint", 3, 1, 1, 1, 1, 1, 1, 1, 1, 13, "obj-5", "live.grid", "constraint", 4, 1, 1, 1, 1, 1, 1, 1, 1, 13, "obj-5", "live.grid", "constraint", 5, 1, 1, 1, 1, 1, 1, 1, 1, 13, "obj-5", "live.grid", "constraint", 6, 1, 1, 1, 1, 1, 1, 1, 1, 13, "obj-5", "live.grid", "constraint", 7, 1, 1, 1, 1, 1, 1, 1, 1, 13, "obj-5", "live.grid", "constraint", 8, 1, 1, 1, 1, 1, 1, 1, 1, 12, "obj-5", "live.grid", "steps", 1, 2, 3, 4, 5, 6, 7, 8, 12, "obj-5", "live.grid", "directions", 1, 1, 1, 1, 1, 1, 1, 1, 5, "obj-8", "number", "int", 100, 12, "obj-60", "multislider", "list", 0, -12, 0, 0, 6, 0, 0, 0, 12, "obj-61", "multislider", "list", 0.0, 0.0, 0.0, 0.0, 0.0, 0.0, 0.0, 0.0, 12, "obj-62", "multislider", "list", 1.0, 1.0, 1.0, 1.0, 1.0, 1.0, 1.0, 1.0, 12, "obj-67", "multislider", "list", 1, 1, 1, 3, 1, 1, 1, 5, 5, "obj-23", "number", "int", 70 ]
						}
, 						{
							"number" : 2,
							"data" : [ 5, "obj-5", "live.grid", "mode", 0, 5, "obj-5", "live.grid", "matrixmode", 0, 5, "obj-5", "live.grid", "columns", 8, 5, "obj-5", "live.grid", "rows", 8, 13, "obj-5", "live.grid", "constraint", 1, 1, 1, 1, 1, 1, 1, 1, 1, 13, "obj-5", "live.grid", "constraint", 2, 1, 1, 1, 1, 1, 1, 1, 1, 13, "obj-5", "live.grid", "constraint", 3, 1, 1, 1, 1, 1, 1, 1, 1, 13, "obj-5", "live.grid", "constraint", 4, 1, 1, 1, 1, 1, 1, 1, 1, 13, "obj-5", "live.grid", "constraint", 5, 1, 1, 1, 1, 1, 1, 1, 1, 13, "obj-5", "live.grid", "constraint", 6, 1, 1, 1, 1, 1, 1, 1, 1, 13, "obj-5", "live.grid", "constraint", 7, 1, 1, 1, 1, 1, 1, 1, 1, 13, "obj-5", "live.grid", "constraint", 8, 1, 1, 1, 1, 1, 1, 1, 1, 12, "obj-5", "live.grid", "steps", 3, 3, 3, 4, 2, 4, 7, 8, 12, "obj-5", "live.grid", "directions", 1, 1, -1, 1, 1, 1, 1, 1, 5, "obj-8", "number", "int", 50, 12, "obj-60", "multislider", "list", -12, -6, 0, 0, 0, 0, 0, 0, 12, "obj-61", "multislider", "list", 0.0, 0.0, 0.0, 0.0, 0.0, 0.0, 0.0, 0.0, 12, "obj-62", "multislider", "list", 1.0, 1.0, 1.0, 1.0, 0.725, 1.0, 0.725, 1.0, 12, "obj-67", "multislider", "list", 1, 1, 3, 1, 2, 2, 2, 2, 5, "obj-23", "number", "int", 40 ]
						}
, 						{
							"number" : 3,
							"data" : [ 5, "obj-5", "live.grid", "mode", 0, 5, "obj-5", "live.grid", "matrixmode", 0, 5, "obj-5", "live.grid", "columns", 8, 5, "obj-5", "live.grid", "rows", 8, 13, "obj-5", "live.grid", "constraint", 1, 1, 1, 1, 1, 1, 1, 1, 1, 13, "obj-5", "live.grid", "constraint", 2, 1, 1, 1, 1, 1, 1, 1, 1, 13, "obj-5", "live.grid", "constraint", 3, 1, 1, 1, 1, 1, 1, 1, 1, 13, "obj-5", "live.grid", "constraint", 4, 1, 1, 1, 1, 1, 1, 1, 1, 13, "obj-5", "live.grid", "constraint", 5, 1, 1, 1, 1, 1, 1, 1, 1, 13, "obj-5", "live.grid", "constraint", 6, 1, 1, 1, 1, 1, 1, 1, 1, 13, "obj-5", "live.grid", "constraint", 7, 1, 1, 1, 1, 1, 1, 1, 1, 13, "obj-5", "live.grid", "constraint", 8, 1, 1, 1, 1, 1, 1, 1, 1, 12, "obj-5", "live.grid", "steps", 4, 2, 5, 4, 6, 6, 3, 8, 12, "obj-5", "live.grid", "directions", 1, 1, 1, 1, -1, 1, 1, -1, 5, "obj-8", "number", "int", 60, 12, "obj-60", "multislider", "list", 0, -12, -12, -12, -12, -12, -12, -12, 12, "obj-61", "multislider", "list", 0.0, 0.0, 0.0, 0.0, 0.0, 0.0, 0.0, 0.0, 12, "obj-62", "multislider", "list", 1.0, 1.0, 1.0, 1.0, 1.0, 1.0, 1.0, 1.0, 12, "obj-67", "multislider", "list", 1, 1, 4, 4, 4, 4, 1, 1, 5, "obj-23", "number", "int", 40 ]
						}
, 						{
							"number" : 4,
							"data" : [ 5, "obj-5", "live.grid", "mode", 0, 5, "obj-5", "live.grid", "matrixmode", 0, 5, "obj-5", "live.grid", "columns", 8, 5, "obj-5", "live.grid", "rows", 8, 13, "obj-5", "live.grid", "constraint", 1, 1, 1, 1, 1, 1, 1, 1, 1, 13, "obj-5", "live.grid", "constraint", 2, 1, 1, 1, 1, 1, 1, 1, 1, 13, "obj-5", "live.grid", "constraint", 3, 1, 1, 1, 1, 1, 1, 1, 1, 13, "obj-5", "live.grid", "constraint", 4, 1, 1, 1, 1, 1, 1, 1, 1, 13, "obj-5", "live.grid", "constraint", 5, 1, 1, 1, 1, 1, 1, 1, 1, 13, "obj-5", "live.grid", "constraint", 6, 1, 1, 1, 1, 1, 1, 1, 1, 13, "obj-5", "live.grid", "constraint", 7, 1, 1, 1, 1, 1, 1, 1, 1, 13, "obj-5", "live.grid", "constraint", 8, 1, 1, 1, 1, 1, 1, 1, 1, 12, "obj-5", "live.grid", "steps", 5, 3, 1, 5, 1, 5, 3, 5, 12, "obj-5", "live.grid", "directions", 1, 1, 1, 1, 1, 1, 1, -1, 5, "obj-8", "number", "int", 60, 12, "obj-60", "multislider", "list", 0, 0, 0, 0, 0, 0, 0, 0, 12, "obj-61", "multislider", "list", 0.0, 0.0, 0.0, 0.0, 0.0, 0.0, 0.0, 0.0, 12, "obj-62", "multislider", "list", 0.75, 0.375, 0.375, 0.4, 0.425, 0.4, 1.0, 1.0, 12, "obj-67", "multislider", "list", 1, 5, 1, 1, 1, 1, 3, 5, 5, "obj-23", "number", "int", 30 ]
						}
, 						{
							"number" : 5,
							"data" : [ 5, "obj-5", "live.grid", "mode", 0, 5, "obj-5", "live.grid", "matrixmode", 0, 5, "obj-5", "live.grid", "columns", 8, 5, "obj-5", "live.grid", "rows", 8, 13, "obj-5", "live.grid", "constraint", 1, 1, 1, 1, 1, 1, 1, 1, 1, 13, "obj-5", "live.grid", "constraint", 2, 1, 1, 1, 1, 1, 1, 1, 1, 13, "obj-5", "live.grid", "constraint", 3, 1, 1, 1, 1, 1, 1, 1, 1, 13, "obj-5", "live.grid", "constraint", 4, 1, 1, 1, 1, 1, 1, 1, 1, 13, "obj-5", "live.grid", "constraint", 5, 1, 1, 1, 1, 1, 1, 1, 1, 13, "obj-5", "live.grid", "constraint", 6, 1, 1, 1, 1, 1, 1, 1, 1, 13, "obj-5", "live.grid", "constraint", 7, 1, 1, 1, 1, 1, 1, 1, 1, 13, "obj-5", "live.grid", "constraint", 8, 1, 1, 1, 1, 1, 1, 1, 1, 12, "obj-5", "live.grid", "steps", 1, 2, 3, 3, 4, 2, 3, 7, 12, "obj-5", "live.grid", "directions", 1, 1, -1, 1, 1, -1, 1, 1, 5, "obj-8", "number", "int", 100, 12, "obj-60", "multislider", "list", 0, 0, 0, 0, 0, 0, 0, 0, 12, "obj-61", "multislider", "list", -15.75, -8.25, 0.0, 0.0, -18.0, -9.75, -5.25, -0.75, 12, "obj-62", "multislider", "list", 1.0, 1.0, 1.0, 1.0, 1.0, 1.0, 1.0, 1.0, 12, "obj-67", "multislider", "list", 1, 3, 1, 3, 1, 1, 2, 2, 5, "obj-23", "number", "int", 60 ]
						}
, 						{
							"number" : 6,
							"data" : [ 5, "obj-5", "live.grid", "mode", 0, 5, "obj-5", "live.grid", "matrixmode", 0, 5, "obj-5", "live.grid", "columns", 8, 5, "obj-5", "live.grid", "rows", 8, 13, "obj-5", "live.grid", "constraint", 1, 1, 1, 1, 1, 1, 1, 1, 1, 13, "obj-5", "live.grid", "constraint", 2, 1, 1, 1, 1, 1, 1, 1, 1, 13, "obj-5", "live.grid", "constraint", 3, 1, 1, 1, 1, 1, 1, 1, 1, 13, "obj-5", "live.grid", "constraint", 4, 1, 1, 1, 1, 1, 1, 1, 1, 13, "obj-5", "live.grid", "constraint", 5, 1, 1, 1, 1, 1, 1, 1, 1, 13, "obj-5", "live.grid", "constraint", 6, 1, 1, 1, 1, 1, 1, 1, 1, 13, "obj-5", "live.grid", "constraint", 7, 1, 1, 1, 1, 1, 1, 1, 1, 13, "obj-5", "live.grid", "constraint", 8, 1, 1, 1, 1, 1, 1, 1, 1, 12, "obj-5", "live.grid", "steps", 5, 3, 1, 5, 1, 5, 3, 5, 12, "obj-5", "live.grid", "directions", -1, -1, -1, -1, -1, -1, -1, -1, 5, "obj-8", "number", "int", 60, 12, "obj-60", "multislider", "list", -6, -4, -1, -1, 0, 1, -4, -10, 12, "obj-61", "multislider", "list", 0.0, 0.0, 0.0, 0.0, 0.0, 0.0, 0.0, 0.0, 12, "obj-62", "multislider", "list", 0.25, 0.15, 0.15, 0.175, 0.275, 0.35, 0.35, 0.45, 12, "obj-67", "multislider", "list", 7, 5, 1, 3, 3, 1, 3, 7, 5, "obj-23", "number", "int", 40 ]
						}
, 						{
							"number" : 7,
							"data" : [ 5, "obj-5", "live.grid", "mode", 0, 5, "obj-5", "live.grid", "matrixmode", 0, 5, "obj-5", "live.grid", "columns", 8, 5, "obj-5", "live.grid", "rows", 8, 13, "obj-5", "live.grid", "constraint", 1, 1, 1, 1, 1, 1, 1, 1, 1, 13, "obj-5", "live.grid", "constraint", 2, 1, 1, 1, 1, 1, 1, 1, 1, 13, "obj-5", "live.grid", "constraint", 3, 1, 1, 1, 1, 1, 1, 1, 1, 13, "obj-5", "live.grid", "constraint", 4, 1, 1, 1, 1, 1, 1, 1, 1, 13, "obj-5", "live.grid", "constraint", 5, 1, 1, 1, 1, 1, 1, 1, 1, 13, "obj-5", "live.grid", "constraint", 6, 1, 1, 1, 1, 1, 1, 1, 1, 13, "obj-5", "live.grid", "constraint", 7, 1, 1, 1, 1, 1, 1, 1, 1, 13, "obj-5", "live.grid", "constraint", 8, 1, 1, 1, 1, 1, 1, 1, 1, 12, "obj-5", "live.grid", "steps", 1, 2, 3, 4, 5, 6, 7, 8, 12, "obj-5", "live.grid", "directions", -1, -1, -1, -1, -1, -1, -1, -1, 5, "obj-8", "number", "int", 60, 12, "obj-60", "multislider", "list", 12, 12, 12, 12, 0, 12, 12, 12, 12, "obj-61", "multislider", "list", 0.0, -12.0, 0.0, -15.0, 0.0, 0.0, -14.25, 0.0, 12, "obj-62", "multislider", "list", 1.0, 0.15, 0.15, 0.15, 0.15, 1.0, 0.45, 0.45, 12, "obj-67", "multislider", "list", 7, 5, 1, 3, 3, 1, 3, 7, 5, "obj-23", "number", "int", 20 ]
						}
, 						{
							"number" : 8,
							"data" : [ 5, "obj-5", "live.grid", "mode", 0, 5, "obj-5", "live.grid", "matrixmode", 0, 5, "obj-5", "live.grid", "columns", 8, 5, "obj-5", "live.grid", "rows", 8, 13, "obj-5", "live.grid", "constraint", 1, 1, 1, 1, 1, 1, 1, 1, 1, 13, "obj-5", "live.grid", "constraint", 2, 1, 1, 1, 1, 1, 1, 1, 1, 13, "obj-5", "live.grid", "constraint", 3, 1, 1, 1, 1, 1, 1, 1, 1, 13, "obj-5", "live.grid", "constraint", 4, 1, 1, 1, 1, 1, 1, 1, 1, 13, "obj-5", "live.grid", "constraint", 5, 1, 1, 1, 1, 1, 1, 1, 1, 13, "obj-5", "live.grid", "constraint", 6, 1, 1, 1, 1, 1, 1, 1, 1, 13, "obj-5", "live.grid", "constraint", 7, 1, 1, 1, 1, 1, 1, 1, 1, 13, "obj-5", "live.grid", "constraint", 8, 1, 1, 1, 1, 1, 1, 1, 1, 12, "obj-5", "live.grid", "steps", 1, 4, 4, 4, 4, 4, 4, 4, 12, "obj-5", "live.grid", "directions", 1, 1, 1, 1, 1, 1, 1, 1, 5, "obj-8", "number", "int", 100, 12, "obj-60", "multislider", "list", -4, 12, -12, 12, -12, 12, -12, 12, 12, "obj-61", "multislider", "list", 0.0, 0.0, 0.0, 0.0, 0.0, 0.0, 0.0, 0.0, 12, "obj-62", "multislider", "list", 1.0, 0.25, 1.0, 0.25, 1.0, 0.25, 1.0, 0.25, 12, "obj-67", "multislider", "list", 2, 2, 1, 3, 3, 1, 4, 4, 5, "obj-23", "number", "int", 60 ]
						}
, 						{
							"number" : 9,
							"data" : [ 5, "obj-5", "live.grid", "mode", 0, 5, "obj-5", "live.grid", "matrixmode", 0, 5, "obj-5", "live.grid", "columns", 8, 5, "obj-5", "live.grid", "rows", 8, 13, "obj-5", "live.grid", "constraint", 1, 1, 1, 1, 1, 1, 1, 1, 1, 13, "obj-5", "live.grid", "constraint", 2, 1, 1, 1, 1, 1, 1, 1, 1, 13, "obj-5", "live.grid", "constraint", 3, 1, 1, 1, 1, 1, 1, 1, 1, 13, "obj-5", "live.grid", "constraint", 4, 1, 1, 1, 1, 1, 1, 1, 1, 13, "obj-5", "live.grid", "constraint", 5, 1, 1, 1, 1, 1, 1, 1, 1, 13, "obj-5", "live.grid", "constraint", 6, 1, 1, 1, 1, 1, 1, 1, 1, 13, "obj-5", "live.grid", "constraint", 7, 1, 1, 1, 1, 1, 1, 1, 1, 13, "obj-5", "live.grid", "constraint", 8, 1, 1, 1, 1, 1, 1, 1, 1, 12, "obj-5", "live.grid", "steps", 1, 2, 3, 4, 5, 6, 7, 8, 12, "obj-5", "live.grid", "directions", -1, -1, 1, 1, -1, -1, 1, 1, 5, "obj-8", "number", "int", 20, 12, "obj-60", "multislider", "list", 0, 0, 0, 0, 0, 0, 0, 0, 12, "obj-61", "multislider", "list", 0.0, 0.0, 0.0, 0.0, 0.0, 0.0, 0.0, 0.0, 12, "obj-62", "multislider", "list", 0.75, 0.75, 0.75, 0.75, 0.75, 0.75, 0.75, 0.75, 12, "obj-67", "multislider", "list", 2, 2, 2, 2, 2, 2, 2, 2, 5, "obj-23", "number", "int", 70 ]
						}
, 						{
							"number" : 10,
							"data" : [ 5, "obj-5", "live.grid", "mode", 0, 5, "obj-5", "live.grid", "matrixmode", 0, 5, "obj-5", "live.grid", "columns", 8, 5, "obj-5", "live.grid", "rows", 8, 13, "obj-5", "live.grid", "constraint", 1, 1, 1, 1, 1, 1, 1, 1, 1, 13, "obj-5", "live.grid", "constraint", 2, 1, 1, 1, 1, 1, 1, 1, 1, 13, "obj-5", "live.grid", "constraint", 3, 1, 1, 1, 1, 1, 1, 1, 1, 13, "obj-5", "live.grid", "constraint", 4, 1, 1, 1, 1, 1, 1, 1, 1, 13, "obj-5", "live.grid", "constraint", 5, 1, 1, 1, 1, 1, 1, 1, 1, 13, "obj-5", "live.grid", "constraint", 6, 1, 1, 1, 1, 1, 1, 1, 1, 13, "obj-5", "live.grid", "constraint", 7, 1, 1, 1, 1, 1, 1, 1, 1, 13, "obj-5", "live.grid", "constraint", 8, 1, 1, 1, 1, 1, 1, 1, 1, 12, "obj-5", "live.grid", "steps", 4, 4, 4, 4, 4, 6, 1, 8, 12, "obj-5", "live.grid", "directions", -1, -1, 1, 1, -1, -1, 1, 1, 5, "obj-8", "number", "int", 30, 12, "obj-60", "multislider", "list", 0, -5, -5, -4, -4, 0, -10, 0, 12, "obj-61", "multislider", "list", 0.0, 0.0, 0.0, 0.0, 0.0, 0.0, 0.0, 0.0, 12, "obj-62", "multislider", "list", 0.6, 0.6, 0.6, 0.6, 0.6, 0.6, 0.6, 0.6, 12, "obj-67", "multislider", "list", 2, 6, 5, 3, 3, 2, 2, 2, 5, "obj-23", "number", "int", 70 ]
						}
, 						{
							"number" : 11,
							"data" : [ 5, "obj-5", "live.grid", "mode", 0, 5, "obj-5", "live.grid", "matrixmode", 0, 5, "obj-5", "live.grid", "columns", 8, 5, "obj-5", "live.grid", "rows", 8, 13, "obj-5", "live.grid", "constraint", 1, 1, 1, 1, 1, 1, 1, 1, 1, 13, "obj-5", "live.grid", "constraint", 2, 1, 1, 1, 1, 1, 1, 1, 1, 13, "obj-5", "live.grid", "constraint", 3, 1, 1, 1, 1, 1, 1, 1, 1, 13, "obj-5", "live.grid", "constraint", 4, 1, 1, 1, 1, 1, 1, 1, 1, 13, "obj-5", "live.grid", "constraint", 5, 1, 1, 1, 1, 1, 1, 1, 1, 13, "obj-5", "live.grid", "constraint", 6, 1, 1, 1, 1, 1, 1, 1, 1, 13, "obj-5", "live.grid", "constraint", 7, 1, 1, 1, 1, 1, 1, 1, 1, 13, "obj-5", "live.grid", "constraint", 8, 1, 1, 1, 1, 1, 1, 1, 1, 12, "obj-5", "live.grid", "steps", 1, 4, 4, 4, 4, 6, 1, 8, 12, "obj-5", "live.grid", "directions", -1, 1, 1, -1, 1, -1, 1, 1, 5, "obj-8", "number", "int", 30, 12, "obj-60", "multislider", "list", 0, -12, -12, -12, -12, 0, -10, 7, 12, "obj-61", "multislider", "list", 0.0, 0.0, 0.0, 0.0, 0.0, 0.0, 0.0, 0.0, 12, "obj-62", "multislider", "list", 0.6, 0.6, 0.6, 0.6, 0.6, 0.6, 0.6, 0.6, 12, "obj-67", "multislider", "list", 2, 6, 5, 3, 3, 2, 2, 2, 5, "obj-23", "number", "int", 70 ]
						}
, 						{
							"number" : 12,
							"data" : [ 5, "obj-5", "live.grid", "mode", 0, 5, "obj-5", "live.grid", "matrixmode", 0, 5, "obj-5", "live.grid", "columns", 8, 5, "obj-5", "live.grid", "rows", 8, 13, "obj-5", "live.grid", "constraint", 1, 1, 1, 1, 1, 1, 1, 1, 1, 13, "obj-5", "live.grid", "constraint", 2, 1, 1, 1, 1, 1, 1, 1, 1, 13, "obj-5", "live.grid", "constraint", 3, 1, 1, 1, 1, 1, 1, 1, 1, 13, "obj-5", "live.grid", "constraint", 4, 1, 1, 1, 1, 1, 1, 1, 1, 13, "obj-5", "live.grid", "constraint", 5, 1, 1, 1, 1, 1, 1, 1, 1, 13, "obj-5", "live.grid", "constraint", 6, 1, 1, 1, 1, 1, 1, 1, 1, 13, "obj-5", "live.grid", "constraint", 7, 1, 1, 1, 1, 1, 1, 1, 1, 13, "obj-5", "live.grid", "constraint", 8, 1, 1, 1, 1, 1, 1, 1, 1, 12, "obj-5", "live.grid", "steps", 6, 6, 6, 6, 6, 6, 4, 6, 12, "obj-5", "live.grid", "directions", -1, 1, 1, -1, 1, -1, 1, 1, 5, "obj-8", "number", "int", 30, 12, "obj-60", "multislider", "list", -5, 4, 7, -5, -9, -4, -4, 7, 12, "obj-61", "multislider", "list", 0.0, 0.0, 0.0, 0.0, 0.0, 0.0, 0.0, 0.0, 12, "obj-62", "multislider", "list", 0.375, 0.3, 0.3, 0.3, 0.325, 0.325, 0.325, 0.3, 12, "obj-67", "multislider", "list", 8, 6, 5, 3, 3, 2, 1, 8, 5, "obj-23", "number", "int", 70 ]
						}
, 						{
							"number" : 13,
							"data" : [ 5, "obj-5", "live.grid", "mode", 0, 5, "obj-5", "live.grid", "matrixmode", 0, 5, "obj-5", "live.grid", "columns", 8, 5, "obj-5", "live.grid", "rows", 8, 13, "obj-5", "live.grid", "constraint", 1, 1, 1, 1, 1, 1, 1, 1, 1, 13, "obj-5", "live.grid", "constraint", 2, 1, 1, 1, 1, 1, 1, 1, 1, 13, "obj-5", "live.grid", "constraint", 3, 1, 1, 1, 1, 1, 1, 1, 1, 13, "obj-5", "live.grid", "constraint", 4, 1, 1, 1, 1, 1, 1, 1, 1, 13, "obj-5", "live.grid", "constraint", 5, 1, 1, 1, 1, 1, 1, 1, 1, 13, "obj-5", "live.grid", "constraint", 6, 1, 1, 1, 1, 1, 1, 1, 1, 13, "obj-5", "live.grid", "constraint", 7, 1, 1, 1, 1, 1, 1, 1, 1, 13, "obj-5", "live.grid", "constraint", 8, 1, 1, 1, 1, 1, 1, 1, 1, 12, "obj-5", "live.grid", "steps", 5, 4, 5, 4, 5, 4, 5, 5, 12, "obj-5", "live.grid", "directions", 1, 1, 0, 1, 0, 1, 0, 1, 5, "obj-8", "number", "int", 50, 12, "obj-60", "multislider", "list", 12, 12, 12, 12, 12, 12, 12, 12, 12, "obj-61", "multislider", "list", 0.0, 0.0, 0.0, 0.0, 0.0, 0.0, 0.0, 0.0, 12, "obj-62", "multislider", "list", 0.2, 0.2, 0.2, 0.25, 0.25, 0.225, 0.2, 0.2, 12, "obj-67", "multislider", "list", 2, 2, 3, 4, 6, 7, 7, 8, 5, "obj-23", "number", "int", 80 ]
						}
, 						{
							"number" : 14,
							"data" : [ 5, "obj-5", "live.grid", "mode", 0, 5, "obj-5", "live.grid", "matrixmode", 0, 5, "obj-5", "live.grid", "columns", 8, 5, "obj-5", "live.grid", "rows", 8, 13, "obj-5", "live.grid", "constraint", 1, 1, 1, 1, 1, 1, 1, 1, 1, 13, "obj-5", "live.grid", "constraint", 2, 1, 1, 1, 1, 1, 1, 1, 1, 13, "obj-5", "live.grid", "constraint", 3, 1, 1, 1, 1, 1, 1, 1, 1, 13, "obj-5", "live.grid", "constraint", 4, 1, 1, 1, 1, 1, 1, 1, 1, 13, "obj-5", "live.grid", "constraint", 5, 1, 1, 1, 1, 1, 1, 1, 1, 13, "obj-5", "live.grid", "constraint", 6, 1, 1, 1, 1, 1, 1, 1, 1, 13, "obj-5", "live.grid", "constraint", 7, 1, 1, 1, 1, 1, 1, 1, 1, 13, "obj-5", "live.grid", "constraint", 8, 1, 1, 1, 1, 1, 1, 1, 1, 12, "obj-5", "live.grid", "steps", 8, 7, 6, 5, 4, 3, 2, 1, 12, "obj-5", "live.grid", "directions", 1, 1, 1, -1, 1, -1, 1, 1, 5, "obj-8", "number", "int", 70, 12, "obj-60", "multislider", "list", -7, -4, -2, -1, 2, 4, 4, 7, 12, "obj-61", "multislider", "list", 0.0, 0.0, 0.0, 0.0, 0.0, 0.0, 0.0, 0.0, 12, "obj-62", "multislider", "list", 0.25, 0.8, 0.8, 0.225, 0.75, 0.775, 0.3, 0.775, 12, "obj-67", "multislider", "list", 1, 1, 1, 5, 1, 5, 2, 3, 5, "obj-23", "number", "int", 50 ]
						}
, 						{
							"number" : 15,
							"data" : [ 5, "obj-5", "live.grid", "mode", 0, 5, "obj-5", "live.grid", "matrixmode", 0, 5, "obj-5", "live.grid", "columns", 8, 5, "obj-5", "live.grid", "rows", 8, 13, "obj-5", "live.grid", "constraint", 1, 1, 1, 1, 1, 1, 1, 1, 1, 13, "obj-5", "live.grid", "constraint", 2, 1, 1, 1, 1, 1, 1, 1, 1, 13, "obj-5", "live.grid", "constraint", 3, 1, 1, 1, 1, 1, 1, 1, 1, 13, "obj-5", "live.grid", "constraint", 4, 1, 1, 1, 1, 1, 1, 1, 1, 13, "obj-5", "live.grid", "constraint", 5, 1, 1, 1, 1, 1, 1, 1, 1, 13, "obj-5", "live.grid", "constraint", 6, 1, 1, 1, 1, 1, 1, 1, 1, 13, "obj-5", "live.grid", "constraint", 7, 1, 1, 1, 1, 1, 1, 1, 1, 13, "obj-5", "live.grid", "constraint", 8, 1, 1, 1, 1, 1, 1, 1, 1, 12, "obj-5", "live.grid", "steps", 1, 1, 1, 1, 1, 1, 1, 1, 12, "obj-5", "live.grid", "directions", 1, 1, 1, -1, 1, -1, 1, -1, 5, "obj-8", "number", "int", 50, 12, "obj-60", "multislider", "list", -12, -4, 5, 6, -7, 10, 11, 5, 12, "obj-61", "multislider", "list", 0.0, -14.25, -15.0, 0.0, -15.0, 0.0, -15.0, 0.0, 12, "obj-62", "multislider", "list", 1.0, 1.0, 1.0, 1.0, 1.0, 1.0, 1.0, 1.0, 12, "obj-67", "multislider", "list", 2, 8, 4, 7, 6, 6, 8, 5, 5, "obj-23", "number", "int", 100 ]
						}
, 						{
							"number" : 16,
							"data" : [ 5, "obj-5", "live.grid", "mode", 0, 5, "obj-5", "live.grid", "matrixmode", 0, 5, "obj-5", "live.grid", "columns", 8, 5, "obj-5", "live.grid", "rows", 8, 13, "obj-5", "live.grid", "constraint", 1, 1, 1, 1, 1, 1, 1, 1, 1, 13, "obj-5", "live.grid", "constraint", 2, 1, 1, 1, 1, 1, 1, 1, 1, 13, "obj-5", "live.grid", "constraint", 3, 1, 1, 1, 1, 1, 1, 1, 1, 13, "obj-5", "live.grid", "constraint", 4, 1, 1, 1, 1, 1, 1, 1, 1, 13, "obj-5", "live.grid", "constraint", 5, 1, 1, 1, 1, 1, 1, 1, 1, 13, "obj-5", "live.grid", "constraint", 6, 1, 1, 1, 1, 1, 1, 1, 1, 13, "obj-5", "live.grid", "constraint", 7, 1, 1, 1, 1, 1, 1, 1, 1, 13, "obj-5", "live.grid", "constraint", 8, 1, 1, 1, 1, 1, 1, 1, 1, 12, "obj-5", "live.grid", "steps", 1, 3, 1, 3, 1, 3, 1, 4, 12, "obj-5", "live.grid", "directions", -1, 1, -1, 1, -1, -1, -1, -1, 5, "obj-8", "number", "int", 30, 12, "obj-60", "multislider", "list", 12, 10, 7, 2, -2, -5, -9, -12, 12, "obj-61", "multislider", "list", 0.0, -6.75, -12.0, -14.25, -10.5, -6.0, -3.75, 0.0, 12, "obj-62", "multislider", "list", 1.0, 0.675, 1.0, 0.7, 1.0, 1.0, 1.0, 1.0, 12, "obj-67", "multislider", "list", 4, 4, 3, 3, 3, 2, 2, 2, 5, "obj-23", "number", "int", 80 ]
						}
, 						{
							"number" : 17,
							"data" : [ 5, "obj-18", "flonum", "float", 1666.666625999999951, 5, "obj-33", "flonum", "float", 208.333327999999995, 5, "obj-5", "live.grid", "mode", 0, 5, "obj-5", "live.grid", "matrixmode", 0, 5, "obj-5", "live.grid", "columns", 8, 5, "obj-5", "live.grid", "rows", 8, 13, "obj-5", "live.grid", "constraint", 1, 1, 1, 1, 1, 1, 1, 1, 1, 13, "obj-5", "live.grid", "constraint", 2, 1, 1, 1, 1, 1, 1, 1, 1, 13, "obj-5", "live.grid", "constraint", 3, 1, 1, 1, 1, 1, 1, 1, 1, 13, "obj-5", "live.grid", "constraint", 4, 1, 1, 1, 1, 1, 1, 1, 1, 13, "obj-5", "live.grid", "constraint", 5, 1, 1, 1, 1, 1, 1, 1, 1, 13, "obj-5", "live.grid", "constraint", 6, 1, 1, 1, 1, 1, 1, 1, 1, 13, "obj-5", "live.grid", "constraint", 7, 1, 1, 1, 1, 1, 1, 1, 1, 13, "obj-5", "live.grid", "constraint", 8, 1, 1, 1, 1, 1, 1, 1, 1, 12, "obj-5", "live.grid", "steps", 1, 1, 1, 1, 1, 1, 1, 1, 12, "obj-5", "live.grid", "directions", 1, 1, 1, -1, 1, -1, 1, -1, 5, "obj-8", "number", "int", 50, 12, "obj-60", "multislider", "list", -12, -4, 5, 6, -7, 10, 11, 5, 12, "obj-61", "multislider", "list", 0.0, -14.25, -15.0, 0.0, -15.0, 0.0, -15.0, 0.0, 12, "obj-62", "multislider", "list", 1.0, 1.0, 1.0, 1.0, 1.0, 1.0, 1.0, 1.0, 12, "obj-67", "multislider", "list", 8, 8, 8, 8, 8, 8, 8, 8, 5, "obj-23", "number", "int", 100, 5, "obj-40", "flonum", "float", 26.041665999999999, 5, "obj-53", "flonum", "float", 26.041665999999999 ]
						}
 ],
					"style" : "default"
				}

			}
, 			{
				"box" : 				{
					"id" : "obj-6",
					"linecount" : 8,
					"maxclass" : "comment",
					"numinlets" : 1,
					"numoutlets" : 0,
					"patching_rect" : [ 414.0, 436.0, 147.0, 114.0 ],
					"style" : "default",
					"text" : "list of 6 elements for vs.block~:\n1) direction\n2) cue\n3) duration\n4) fade-in\n5) fade-out\n6) amplitude"
				}

			}
, 			{
				"box" : 				{
					"id" : "obj-3",
					"maxclass" : "number",
					"numinlets" : 1,
					"numoutlets" : 2,
					"outlettype" : [ "", "bang" ],
					"parameter_enable" : 0,
					"patching_rect" : [ 223.0, 87.0, 31.0, 22.0 ],
					"style" : "default"
				}

			}
, 			{
				"box" : 				{
					"id" : "obj-78",
					"maxclass" : "newobj",
					"numinlets" : 1,
					"numoutlets" : 1,
					"outlettype" : [ "bang" ],
					"patching_rect" : [ 343.0, 10.0, 60.0, 22.0 ],
					"style" : "default",
					"text" : "loadbang"
				}

			}
, 			{
				"box" : 				{
					"format" : 6,
					"id" : "obj-33",
					"maxclass" : "flonum",
					"numinlets" : 1,
					"numoutlets" : 2,
					"outlettype" : [ "", "bang" ],
					"parameter_enable" : 0,
					"patching_rect" : [ 269.0, 9.0, 50.0, 22.0 ],
					"style" : "default"
				}

			}
, 			{
				"box" : 				{
					"id" : "obj-31",
					"maxclass" : "toggle",
					"numinlets" : 1,
					"numoutlets" : 1,
					"outlettype" : [ "int" ],
					"parameter_enable" : 0,
					"patching_rect" : [ 223.0, 14.0, 20.0, 20.0 ],
					"style" : "default"
				}

			}
, 			{
				"box" : 				{
					"id" : "obj-29",
					"maxclass" : "newobj",
					"numinlets" : 2,
					"numoutlets" : 1,
					"outlettype" : [ "bang" ],
					"patching_rect" : [ 223.0, 37.0, 65.0, 22.0 ],
					"style" : "default",
					"text" : "metro 125"
				}

			}
, 			{
				"box" : 				{
					"id" : "obj-24",
					"interpinlet" : 1,
					"maxclass" : "gain~",
					"multichannelvariant" : 0,
					"numinlets" : 2,
					"numoutlets" : 2,
					"outlettype" : [ "signal", "" ],
					"parameter_enable" : 0,
					"patching_rect" : [ 184.0, 578.5, 21.0, 81.0 ],
					"style" : "default"
				}

			}
, 			{
				"box" : 				{
					"id" : "obj-25",
					"maxclass" : "message",
					"numinlets" : 2,
					"numoutlets" : 1,
					"outlettype" : [ "" ],
					"patching_rect" : [ 81.0, 603.5, 74.0, 22.0 ],
					"style" : "default",
					"text" : "startwindow"
				}

			}
, 			{
				"box" : 				{
					"id" : "obj-26",
					"maxclass" : "newobj",
					"numinlets" : 2,
					"numoutlets" : 0,
					"patching_rect" : [ 161.0, 662.5, 37.0, 22.0 ],
					"style" : "default",
					"text" : "dac~"
				}

			}
, 			{
				"box" : 				{
					"id" : "obj-27",
					"interpinlet" : 1,
					"maxclass" : "gain~",
					"multichannelvariant" : 0,
					"numinlets" : 2,
					"numoutlets" : 2,
					"outlettype" : [ "signal", "" ],
					"parameter_enable" : 0,
					"patching_rect" : [ 160.0, 578.5, 21.0, 81.0 ],
					"style" : "default"
				}

			}
, 			{
				"box" : 				{
					"id" : "obj-28",
					"maxclass" : "message",
					"numinlets" : 2,
					"numoutlets" : 1,
					"outlettype" : [ "" ],
					"patching_rect" : [ 105.0, 631.5, 50.0, 22.0 ],
					"style" : "default",
					"text" : "stop"
				}

			}
, 			{
				"box" : 				{
					"id" : "obj-22",
					"maxclass" : "newobj",
					"numinlets" : 2,
					"numoutlets" : 1,
					"outlettype" : [ "float" ],
					"patching_rect" : [ 434.0, 269.0, 39.0, 22.0 ],
					"style" : "default",
					"text" : "* 0."
				}

			}
, 			{
				"box" : 				{
					"id" : "obj-21",
					"maxclass" : "newobj",
					"numinlets" : 5,
					"numoutlets" : 4,
					"outlettype" : [ "int", "", "", "int" ],
					"patching_rect" : [ 223.0, 62.0, 73.0, 22.0 ],
					"style" : "default",
					"text" : "counter 1 8"
				}

			}
, 			{
				"box" : 				{
					"id" : "obj-20",
					"maxclass" : "newobj",
					"numinlets" : 6,
					"numoutlets" : 1,
					"outlettype" : [ "" ],
					"patching_rect" : [ 404.0, 403.0, 166.0, 22.0 ],
					"style" : "default",
					"text" : "pack 1. 0. 0. 1 1 1."
				}

			}
, 			{
				"box" : 				{
					"id" : "obj-19",
					"maxclass" : "newobj",
					"numinlets" : 2,
					"numoutlets" : 1,
					"outlettype" : [ "float" ],
					"patching_rect" : [ 561.0, 118.0, 33.0, 22.0 ],
					"style" : "default",
					"text" : "/ 8."
				}

			}
, 			{
				"box" : 				{
					"format" : 6,
					"id" : "obj-18",
					"maxclass" : "flonum",
					"numinlets" : 1,
					"numoutlets" : 2,
					"outlettype" : [ "", "bang" ],
					"parameter_enable" : 0,
					"patching_rect" : [ 561.0, 95.0, 62.0, 22.0 ],
					"style" : "default"
				}

			}
, 			{
				"box" : 				{
					"id" : "obj-16",
					"maxclass" : "button",
					"numinlets" : 1,
					"numoutlets" : 1,
					"outlettype" : [ "bang" ],
					"parameter_enable" : 0,
					"patching_rect" : [ 342.0, 92.0, 20.0, 20.0 ],
					"style" : "default"
				}

			}
, 			{
				"box" : 				{
					"id" : "obj-14",
					"maxclass" : "newobj",
					"numinlets" : 1,
					"numoutlets" : 9,
					"outlettype" : [ "float", "list", "float", "float", "float", "float", "float", "", "int" ],
					"patching_rect" : [ 342.0, 115.0, 114.0, 22.0 ],
					"style" : "default",
					"text" : "info~ break"
				}

			}
, 			{
				"box" : 				{
					"id" : "obj-13",
					"maxclass" : "newobj",
					"numinlets" : 1,
					"numoutlets" : 2,
					"outlettype" : [ "signal", "signal" ],
					"patching_rect" : [ 159.0, 552.0, 104.0, 22.0 ],
					"style" : "default",
					"text" : "vs.block~ break 4"
				}

			}
, 			{
				"box" : 				{
					"id" : "obj-12",
					"maxclass" : "message",
					"numinlets" : 2,
					"numoutlets" : 1,
					"outlettype" : [ "" ],
					"patching_rect" : [ 343.0, 36.0, 93.0, 22.0 ],
					"style" : "default",
					"text" : "read vs_abreak"
				}

			}
, 			{
				"box" : 				{
					"id" : "obj-1",
					"maxclass" : "newobj",
					"numinlets" : 1,
					"numoutlets" : 2,
					"outlettype" : [ "float", "bang" ],
					"patching_rect" : [ 343.0, 62.0, 140.0, 22.0 ],
					"style" : "default",
					"text" : "buffer~ break vs_abreak"
				}

			}
 ],
		"lines" : [ 			{
				"patchline" : 				{
					"destination" : [ "obj-16", 0 ],
					"midpoints" : [ 473.5, 86.5, 351.5, 86.5 ],
					"source" : [ "obj-1", 1 ]
				}

			}
, 			{
				"patchline" : 				{
					"destination" : [ "obj-32", 0 ],
					"midpoints" : [ 246.5, 138.0, 189.0, 138.0, 189.0, 107.0, 60.5, 107.0 ],
					"source" : [ "obj-11", 1 ]
				}

			}
, 			{
				"patchline" : 				{
					"destination" : [ "obj-5", 0 ],
					"midpoints" : [ 232.5, 138.5, 60.5, 138.5 ],
					"source" : [ "obj-11", 0 ]
				}

			}
, 			{
				"patchline" : 				{
					"destination" : [ "obj-1", 0 ],
					"source" : [ "obj-12", 0 ]
				}

			}
, 			{
				"patchline" : 				{
					"destination" : [ "obj-24", 0 ],
					"midpoints" : [ 253.5, 577.75, 193.5, 577.75 ],
					"source" : [ "obj-13", 1 ]
				}

			}
, 			{
				"patchline" : 				{
					"destination" : [ "obj-27", 0 ],
					"source" : [ "obj-13", 0 ]
				}

			}
, 			{
				"patchline" : 				{
					"destination" : [ "obj-18", 0 ],
					"midpoints" : [ 422.75, 139.0, 464.5, 139.0, 464.5, 92.0, 570.5, 92.0 ],
					"source" : [ "obj-14", 6 ]
				}

			}
, 			{
				"patchline" : 				{
					"destination" : [ "obj-14", 0 ],
					"source" : [ "obj-16", 0 ]
				}

			}
, 			{
				"patchline" : 				{
					"color" : [ 0.317647, 0.709804, 0.321569, 1.0 ],
					"destination" : [ "obj-60", 0 ],
					"source" : [ "obj-17", 0 ]
				}

			}
, 			{
				"patchline" : 				{
					"destination" : [ "obj-19", 0 ],
					"source" : [ "obj-18", 0 ]
				}

			}
, 			{
				"patchline" : 				{
					"destination" : [ "obj-22", 1 ],
					"order" : 1,
					"source" : [ "obj-19", 0 ]
				}

			}
, 			{
				"patchline" : 				{
					"destination" : [ "obj-30", 4 ],
					"midpoints" : [ 570.5, 190.5, 556.5, 190.5 ],
					"order" : 0,
					"source" : [ "obj-19", 0 ]
				}

			}
, 			{
				"patchline" : 				{
					"destination" : [ "obj-33", 0 ],
					"midpoints" : [ 570.5, 144.0, 333.5, 144.0, 333.5, 6.0, 278.5, 6.0 ],
					"order" : 2,
					"source" : [ "obj-19", 0 ]
				}

			}
, 			{
				"patchline" : 				{
					"destination" : [ "obj-20", 0 ],
					"source" : [ "obj-2", 0 ]
				}

			}
, 			{
				"patchline" : 				{
					"destination" : [ "obj-13", 0 ],
					"midpoints" : [ 413.5, 539.0, 168.5, 539.0 ],
					"source" : [ "obj-20", 0 ]
				}

			}
, 			{
				"patchline" : 				{
					"destination" : [ "obj-3", 0 ],
					"source" : [ "obj-21", 0 ]
				}

			}
, 			{
				"patchline" : 				{
					"destination" : [ "obj-20", 1 ],
					"order" : 1,
					"source" : [ "obj-22", 0 ]
				}

			}
, 			{
				"patchline" : 				{
					"destination" : [ "obj-63", 0 ],
					"hidden" : 1,
					"midpoints" : [ 443.5, 291.0, 475.0, 291.0, 501.0, 226.0, 519.5, 226.0 ],
					"order" : 0,
					"source" : [ "obj-22", 0 ]
				}

			}
, 			{
				"patchline" : 				{
					"destination" : [ "obj-30", 3 ],
					"midpoints" : [ 485.5, 191.0, 507.5, 191.0 ],
					"source" : [ "obj-23", 0 ]
				}

			}
, 			{
				"patchline" : 				{
					"destination" : [ "obj-26", 1 ],
					"source" : [ "obj-24", 0 ]
				}

			}
, 			{
				"patchline" : 				{
					"destination" : [ "obj-26", 0 ],
					"midpoints" : [ 90.5, 666.5, 148.0, 666.5, 148.0, 657.5, 170.5, 657.5 ],
					"source" : [ "obj-25", 0 ]
				}

			}
, 			{
				"patchline" : 				{
					"destination" : [ "obj-24", 0 ],
					"hidden" : 1,
					"source" : [ "obj-27", 1 ]
				}

			}
, 			{
				"patchline" : 				{
					"destination" : [ "obj-26", 0 ],
					"source" : [ "obj-27", 0 ]
				}

			}
, 			{
				"patchline" : 				{
					"destination" : [ "obj-26", 0 ],
					"midpoints" : [ 114.5, 657.5, 170.5, 657.5 ],
					"source" : [ "obj-28", 0 ]
				}

			}
, 			{
				"patchline" : 				{
					"destination" : [ "obj-21", 0 ],
					"source" : [ "obj-29", 0 ]
				}

			}
, 			{
				"patchline" : 				{
					"destination" : [ "obj-11", 0 ],
					"source" : [ "obj-3", 0 ]
				}

			}
, 			{
				"patchline" : 				{
					"destination" : [ "obj-34", 0 ],
					"source" : [ "obj-30", 0 ]
				}

			}
, 			{
				"patchline" : 				{
					"destination" : [ "obj-36", 0 ],
					"source" : [ "obj-30", 1 ]
				}

			}
, 			{
				"patchline" : 				{
					"destination" : [ "obj-40", 0 ],
					"midpoints" : [ 556.5, 281.5, 484.5, 281.5 ],
					"source" : [ "obj-30", 2 ]
				}

			}
, 			{
				"patchline" : 				{
					"destination" : [ "obj-29", 0 ],
					"source" : [ "obj-31", 0 ]
				}

			}
, 			{
				"patchline" : 				{
					"destination" : [ "obj-60", 0 ],
					"midpoints" : [ 60.5, 138.0, 42.0, 138.0, 42.0, 260.0, 60.5, 260.0 ],
					"order" : 3,
					"source" : [ "obj-32", 0 ]
				}

			}
, 			{
				"patchline" : 				{
					"destination" : [ "obj-61", 0 ],
					"midpoints" : [ 60.5, 138.0, 42.0, 138.0, 42.0, 313.0, 60.5, 313.0 ],
					"order" : 2,
					"source" : [ "obj-32", 0 ]
				}

			}
, 			{
				"patchline" : 				{
					"destination" : [ "obj-62", 0 ],
					"midpoints" : [ 60.5, 138.0, 42.0, 138.0, 42.0, 365.0, 60.5, 365.0 ],
					"order" : 1,
					"source" : [ "obj-32", 0 ]
				}

			}
, 			{
				"patchline" : 				{
					"destination" : [ "obj-67", 0 ],
					"midpoints" : [ 60.5, 138.0, 42.0, 138.0, 42.0, 418.0, 60.5, 418.0 ],
					"order" : 0,
					"source" : [ "obj-32", 0 ]
				}

			}
, 			{
				"patchline" : 				{
					"destination" : [ "obj-29", 1 ],
					"source" : [ "obj-33", 0 ]
				}

			}
, 			{
				"patchline" : 				{
					"destination" : [ "obj-2", 0 ],
					"source" : [ "obj-34", 0 ]
				}

			}
, 			{
				"patchline" : 				{
					"destination" : [ "obj-44", 0 ],
					"source" : [ "obj-35", 0 ]
				}

			}
, 			{
				"patchline" : 				{
					"destination" : [ "obj-22", 0 ],
					"midpoints" : [ 435.5, 265.5, 443.5, 265.5 ],
					"source" : [ "obj-36", 0 ]
				}

			}
, 			{
				"patchline" : 				{
					"destination" : [ "obj-53", 0 ],
					"order" : 1,
					"source" : [ "obj-37", 0 ]
				}

			}
, 			{
				"patchline" : 				{
					"destination" : [ "obj-63", 1 ],
					"hidden" : 1,
					"midpoints" : [ 484.5, 349.0, 613.0, 349.0, 613.0, 228.0, 564.5, 228.0 ],
					"order" : 0,
					"source" : [ "obj-37", 0 ]
				}

			}
, 			{
				"patchline" : 				{
					"destination" : [ "obj-37", 1 ],
					"source" : [ "obj-38", 0 ]
				}

			}
, 			{
				"patchline" : 				{
					"destination" : [ "obj-2", 1 ],
					"source" : [ "obj-4", 0 ]
				}

			}
, 			{
				"patchline" : 				{
					"destination" : [ "obj-37", 0 ],
					"source" : [ "obj-40", 0 ]
				}

			}
, 			{
				"patchline" : 				{
					"destination" : [ "obj-20", 5 ],
					"source" : [ "obj-44", 0 ]
				}

			}
, 			{
				"patchline" : 				{
					"destination" : [ "obj-30", 0 ],
					"midpoints" : [ 60.5, 257.0, 328.0, 257.0, 328.0, 175.0, 360.5, 175.0 ],
					"source" : [ "obj-5", 0 ]
				}

			}
, 			{
				"patchline" : 				{
					"destination" : [ "obj-20", 2 ],
					"source" : [ "obj-53", 0 ]
				}

			}
, 			{
				"patchline" : 				{
					"destination" : [ "obj-4", 0 ],
					"midpoints" : [ 316.5, 313.0, 339.0, 313.0, 367.0, 270.0, 375.5, 270.0 ],
					"source" : [ "obj-60", 1 ]
				}

			}
, 			{
				"patchline" : 				{
					"destination" : [ "obj-39", 0 ],
					"midpoints" : [ 316.5, 365.0, 328.5, 365.0, 328.5, 351.0, 345.5, 351.0 ],
					"source" : [ "obj-61", 1 ]
				}

			}
, 			{
				"patchline" : 				{
					"destination" : [ "obj-41", 0 ],
					"midpoints" : [ 316.5, 422.0, 331.0, 422.0, 331.0, 404.0, 345.5, 404.0 ],
					"source" : [ "obj-62", 1 ]
				}

			}
, 			{
				"patchline" : 				{
					"destination" : [ "obj-64", 0 ],
					"hidden" : 1,
					"source" : [ "obj-63", 0 ]
				}

			}
, 			{
				"patchline" : 				{
					"destination" : [ "obj-42", 2 ],
					"hidden" : 1,
					"midpoints" : [ 340.5, 538.0, 327.0, 538.0, 327.0, 489.0, 187.5, 489.0 ],
					"source" : [ "obj-65", 0 ]
				}

			}
, 			{
				"patchline" : 				{
					"destination" : [ "obj-57", 0 ],
					"midpoints" : [ 316.5, 485.0, 329.5, 485.0, 329.5, 452.0, 343.5, 452.0 ],
					"source" : [ "obj-67", 1 ]
				}

			}
, 			{
				"patchline" : 				{
					"destination" : [ "obj-18", 0 ],
					"hidden" : 1,
					"order" : 0,
					"source" : [ "obj-7", 2 ]
				}

			}
, 			{
				"patchline" : 				{
					"destination" : [ "obj-24", 0 ],
					"hidden" : 1,
					"order" : 8,
					"source" : [ "obj-7", 2 ]
				}

			}
, 			{
				"patchline" : 				{
					"destination" : [ "obj-27", 0 ],
					"hidden" : 1,
					"order" : 9,
					"source" : [ "obj-7", 2 ]
				}

			}
, 			{
				"patchline" : 				{
					"destination" : [ "obj-3", 0 ],
					"hidden" : 1,
					"order" : 6,
					"source" : [ "obj-7", 2 ]
				}

			}
, 			{
				"patchline" : 				{
					"destination" : [ "obj-31", 0 ],
					"hidden" : 1,
					"order" : 7,
					"source" : [ "obj-7", 2 ]
				}

			}
, 			{
				"patchline" : 				{
					"destination" : [ "obj-33", 0 ],
					"hidden" : 1,
					"order" : 5,
					"source" : [ "obj-7", 2 ]
				}

			}
, 			{
				"patchline" : 				{
					"destination" : [ "obj-34", 0 ],
					"hidden" : 1,
					"order" : 4,
					"source" : [ "obj-7", 2 ]
				}

			}
, 			{
				"patchline" : 				{
					"destination" : [ "obj-36", 0 ],
					"hidden" : 1,
					"order" : 3,
					"source" : [ "obj-7", 2 ]
				}

			}
, 			{
				"patchline" : 				{
					"destination" : [ "obj-40", 0 ],
					"hidden" : 1,
					"order" : 2,
					"source" : [ "obj-7", 2 ]
				}

			}
, 			{
				"patchline" : 				{
					"destination" : [ "obj-42", 0 ],
					"hidden" : 1,
					"order" : 10,
					"source" : [ "obj-7", 2 ]
				}

			}
, 			{
				"patchline" : 				{
					"destination" : [ "obj-53", 0 ],
					"hidden" : 1,
					"order" : 1,
					"source" : [ "obj-7", 2 ]
				}

			}
, 			{
				"patchline" : 				{
					"destination" : [ "obj-12", 0 ],
					"source" : [ "obj-78", 0 ]
				}

			}
, 			{
				"patchline" : 				{
					"destination" : [ "obj-30", 1 ],
					"midpoints" : [ 386.5, 191.0, 409.5, 191.0 ],
					"source" : [ "obj-8", 0 ]
				}

			}
, 			{
				"patchline" : 				{
					"destination" : [ "obj-30", 2 ],
					"midpoints" : [ 441.5, 191.0, 458.5, 191.0 ],
					"source" : [ "obj-9", 0 ]
				}

			}
 ],
		"parameters" : 		{
			"obj-5" : [ "live.grid", "live.grid", 0 ],
			"parameterbanks" : 			{

			}

		}
,
		"dependency_cache" : [ 			{
				"name" : "vs.block~.maxpat",
				"bootpath" : "~/Documents/Max 8/Packages/Virtual Sound Macros/externals/sampling macros",
				"patcherrelativepath" : "../Documents/Max 8/Packages/Virtual Sound Macros/externals/sampling macros",
				"type" : "JSON",
				"implicit" : 1
			}
, 			{
				"name" : "vs.p-block~.maxpat",
				"bootpath" : "~/Documents/Max 8/Packages/Virtual Sound Macros/externals/sampling macros",
				"patcherrelativepath" : "../Documents/Max 8/Packages/Virtual Sound Macros/externals/sampling macros",
				"type" : "JSON",
				"implicit" : 1
			}
, 			{
				"name" : "vs.kpan~.maxpat",
				"bootpath" : "~/Documents/Max 8/Packages/Virtual Sound Macros/externals/spat and audio routers",
				"patcherrelativepath" : "../Documents/Max 8/Packages/Virtual Sound Macros/externals/spat and audio routers",
				"type" : "JSON",
				"implicit" : 1
			}
, 			{
				"name" : "vs.pi.maxpat",
				"bootpath" : "~/Documents/Max 8/Packages/Virtual Sound Macros/externals/math and numbers",
				"patcherrelativepath" : "../Documents/Max 8/Packages/Virtual Sound Macros/externals/math and numbers",
				"type" : "JSON",
				"implicit" : 1
			}
, 			{
				"name" : "vs.multibang.maxpat",
				"bootpath" : "~/Documents/Max 8/Packages/Virtual Sound Macros/externals/time and triggers",
				"patcherrelativepath" : "../Documents/Max 8/Packages/Virtual Sound Macros/externals/time and triggers",
				"type" : "JSON",
				"implicit" : 1
			}
, 			{
				"name" : "vs.choose.maxpat",
				"bootpath" : "~/Documents/Max 8/Packages/Virtual Sound Macros/externals/random generators",
				"patcherrelativepath" : "../Documents/Max 8/Packages/Virtual Sound Macros/externals/random generators",
				"type" : "JSON",
				"implicit" : 1
			}
, 			{
				"name" : "vs.between.maxpat",
				"bootpath" : "~/Documents/Max 8/Packages/Virtual Sound Macros/externals/random generators",
				"patcherrelativepath" : "../Documents/Max 8/Packages/Virtual Sound Macros/externals/random generators",
				"type" : "JSON",
				"implicit" : 1
			}
, 			{
				"name" : "vs.random.maxpat",
				"bootpath" : "~/Documents/Max 8/Packages/Virtual Sound Macros/externals/random generators",
				"patcherrelativepath" : "../Documents/Max 8/Packages/Virtual Sound Macros/externals/random generators",
				"type" : "JSON",
				"implicit" : 1
			}
, 			{
				"name" : "vs.ratio.maxpat",
				"bootpath" : "~/Documents/Max 8/Packages/Virtual Sound Macros/externals/converters and mappings",
				"patcherrelativepath" : "../Documents/Max 8/Packages/Virtual Sound Macros/externals/converters and mappings",
				"type" : "JSON",
				"implicit" : 1
			}
 ],
		"autosave" : 0
	}

}
